<?xml version="1.0" encoding="UTF-8" standalone="no"?>
<!DOCTYPE svg PUBLIC "-//W3C//DTD SVG 1.1//EN"
 "http://www.w3.org/Graphics/SVG/1.1/DTD/svg11.dtd">
<!-- Generated by graphviz version 2.40.1 (20161225.0304)
 -->
<!-- Title: active_storage_attachments Pages: 1 -->
<svg width="699pt" height="742pt"
 viewBox="0.00 0.00 699.00 742.00" xmlns="http://www.w3.org/2000/svg" xmlns:xlink="http://www.w3.org/1999/xlink">
<g id="graph0" class="graph" transform="scale(1 1) rotate(0) translate(4 738)">
<title>active_storage_attachments</title>
<polygon fill="#ffffff" stroke="transparent" points="-4,4 -4,-738 695,-738 695,4 -4,4"/>
<!-- active_storage_attachments -->
<g id="node1" class="node">
<title>active_storage_attachments</title>
<polygon fill="#efefef" stroke="transparent" points="309,-652.5 309,-687.5 645,-687.5 645,-652.5 309,-652.5"/>
<polygon fill="none" stroke="#000000" points="309,-652.5 309,-687.5 645,-687.5 645,-652.5 309,-652.5"/>
<text text-anchor="start" x="315.838" y="-665.3" font-family="Arial Bold" font-size="18.00" fill="#000000">active_storage_attachments</text>
<text text-anchor="start" x="540.9082" y="-665.3" font-family="Arial" font-size="14.00" fill="#000000"> </text>
<text text-anchor="start" x="544.7988" y="-665.3" font-family="Arial" font-size="14.00" fill="#666666">[BASE TABLE]</text>
<polygon fill="none" stroke="#000000" points="309,-622.5 309,-652.5 645,-652.5 645,-622.5 309,-622.5"/>
<text text-anchor="start" x="316" y="-633.9" font-family="Arial" font-size="14.00" fill="#000000">id </text>
<text text-anchor="start" x="330.7798" y="-633.9" font-family="Arial" font-size="14.00" fill="#666666">[bigint]</text>
<polygon fill="none" stroke="#000000" points="309,-592.5 309,-622.5 645,-622.5 645,-592.5 309,-592.5"/>
<text text-anchor="start" x="316" y="-603.9" font-family="Arial" font-size="14.00" fill="#000000">name </text>
<text text-anchor="start" x="354.899" y="-603.9" font-family="Arial" font-size="14.00" fill="#666666">[varchar(255)]</text>
<polygon fill="none" stroke="#000000" points="309,-562.5 309,-592.5 645,-592.5 645,-562.5 309,-562.5"/>
<text text-anchor="start" x="316" y="-573.9" font-family="Arial" font-size="14.00" fill="#000000">record_type </text>
<text text-anchor="start" x="393.798" y="-573.9" font-family="Arial" font-size="14.00" fill="#666666">[varchar(255)]</text>
<polygon fill="none" stroke="#000000" points="309,-532.5 309,-562.5 645,-562.5 645,-532.5 309,-532.5"/>
<text text-anchor="start" x="316" y="-543.9" font-family="Arial" font-size="14.00" fill="#000000">record_id </text>
<text text-anchor="start" x="378.2314" y="-543.9" font-family="Arial" font-size="14.00" fill="#666666">[bigint]</text>
<polygon fill="none" stroke="#000000" points="309,-502.5 309,-532.5 645,-532.5 645,-502.5 309,-502.5"/>
<text text-anchor="start" x="316" y="-513.9" font-family="Arial" font-size="14.00" fill="#000000">blob_id </text>
<text text-anchor="start" x="365.0168" y="-513.9" font-family="Arial" font-size="14.00" fill="#666666">[bigint]</text>
<polygon fill="none" stroke="#000000" points="309,-472.5 309,-502.5 645,-502.5 645,-472.5 309,-472.5"/>
<text text-anchor="start" x="316" y="-483.9" font-family="Arial" font-size="14.00" fill="#000000">created_at </text>
<text text-anchor="start" x="386.028" y="-483.9" font-family="Arial" font-size="14.00" fill="#666666">[datetime(6)]</text>
<polygon fill="none" stroke="#000000" stroke-width="3" points="307.5,-471.5 307.5,-689.5 646.5,-689.5 646.5,-471.5 307.5,-471.5"/>
</g>
<!-- active_storage_blobs -->
<g id="node2" class="node">
<title>active_storage_blobs</title>
<polygon fill="#efefef" stroke="transparent" points="336,-312.5 336,-347.5 617,-347.5 617,-312.5 336,-312.5"/>
<polygon fill="none" stroke="#000000" points="336,-312.5 336,-347.5 617,-347.5 617,-312.5 336,-312.5"/>
<text text-anchor="start" x="342.8465" y="-325.3" font-family="Arial Bold" font-size="18.00" fill="#000000">active_storage_blobs</text>
<text text-anchor="start" x="512.8997" y="-325.3" font-family="Arial" font-size="14.00" fill="#000000"> </text>
<text text-anchor="start" x="516.7903" y="-325.3" font-family="Arial" font-size="14.00" fill="#666666">[BASE TABLE]</text>
<polygon fill="none" stroke="#000000" points="336,-282.5 336,-312.5 617,-312.5 617,-282.5 336,-282.5"/>
<text text-anchor="start" x="343" y="-293.9" font-family="Arial" font-size="14.00" fill="#000000">id </text>
<text text-anchor="start" x="357.7798" y="-293.9" font-family="Arial" font-size="14.00" fill="#666666">[bigint]</text>
<polygon fill="none" stroke="#000000" points="336,-252.5 336,-282.5 617,-282.5 617,-252.5 336,-252.5"/>
<text text-anchor="start" x="343" y="-263.9" font-family="Arial" font-size="14.00" fill="#000000">key </text>
<text text-anchor="start" x="368.6732" y="-263.9" font-family="Arial" font-size="14.00" fill="#666666">[varchar(255)]</text>
<polygon fill="none" stroke="#000000" points="336,-222.5 336,-252.5 617,-252.5 617,-222.5 336,-222.5"/>
<text text-anchor="start" x="343" y="-233.9" font-family="Arial" font-size="14.00" fill="#000000">filename </text>
<text text-anchor="start" x="399.7854" y="-233.9" font-family="Arial" font-size="14.00" fill="#666666">[varchar(255)]</text>
<polygon fill="none" stroke="#000000" points="336,-192.5 336,-222.5 617,-222.5 617,-192.5 336,-192.5"/>
<text text-anchor="start" x="343" y="-203.9" font-family="Arial" font-size="14.00" fill="#000000">content_type </text>
<text text-anchor="start" x="427.0406" y="-203.9" font-family="Arial" font-size="14.00" fill="#666666">[varchar(255)]</text>
<polygon fill="none" stroke="#000000" points="336,-162.5 336,-192.5 617,-192.5 617,-162.5 336,-162.5"/>
<text text-anchor="start" x="343" y="-173.9" font-family="Arial" font-size="14.00" fill="#000000">metadata </text>
<text text-anchor="start" x="405.2454" y="-173.9" font-family="Arial" font-size="14.00" fill="#666666">[text]</text>
<polygon fill="none" stroke="#000000" points="336,-132.5 336,-162.5 617,-162.5 617,-132.5 336,-132.5"/>
<text text-anchor="start" x="343" y="-143.9" font-family="Arial" font-size="14.00" fill="#000000">service_name </text>
<text text-anchor="start" x="434.014" y="-143.9" font-family="Arial" font-size="14.00" fill="#666666">[varchar(255)]</text>
<polygon fill="none" stroke="#000000" points="336,-102.5 336,-132.5 617,-132.5 617,-102.5 336,-102.5"/>
<text text-anchor="start" x="343" y="-113.9" font-family="Arial" font-size="14.00" fill="#000000">byte_size </text>
<text text-anchor="start" x="406.0182" y="-113.9" font-family="Arial" font-size="14.00" fill="#666666">[bigint]</text>
<polygon fill="none" stroke="#000000" points="336,-72.5 336,-102.5 617,-102.5 617,-72.5 336,-72.5"/>
<text text-anchor="start" x="343" y="-83.9" font-family="Arial" font-size="14.00" fill="#000000">checksum </text>
<text text-anchor="start" x="409.899" y="-83.9" font-family="Arial" font-size="14.00" fill="#666666">[varchar(255)]</text>
<polygon fill="none" stroke="#000000" points="336,-42.5 336,-72.5 617,-72.5 617,-42.5 336,-42.5"/>
<text text-anchor="start" x="343" y="-53.9" font-family="Arial" font-size="14.00" fill="#000000">created_at </text>
<text text-anchor="start" x="413.028" y="-53.9" font-family="Arial" font-size="14.00" fill="#666666">[datetime(6)]</text>
</g>
<!-- active_storage_attachments&#45;&gt;active_storage_blobs -->
<g id="edge1" class="edge">
<title>active_storage_attachments:blob_id&#45;&gt;active_storage_blobs:id</title>
<path fill="none" stroke="#000000" d="M299.0702,-515.9809C271.4223,-506.4323 284.7673,-454.2301 309,-427 400.6227,-324.0444 525.3773,-493.9556 617,-391 644.626,-359.957 658.5556,-297.5 617,-297.5"/>
<polygon fill="#000000" stroke="#000000" points="299.115,-515.9877 308.3194,-521.9482 304.0575,-516.7438 309,-517.5 309,-517.5 309,-517.5 304.0575,-516.7438 309.6806,-513.0518 299.115,-515.9877 299.115,-515.9877"/>
<text text-anchor="start" x="7.207" y="-527.5" font-family="Arial" font-size="10.00" fill="#000000">FOREIGN KEY (blob_id) REFERENCES active_storage_blobs (id)</text>
</g>
</g>
</svg>
