<?xml version="1.0" encoding="UTF-8" standalone="no"?>
<!DOCTYPE svg PUBLIC "-//W3C//DTD SVG 1.1//EN"
 "http://www.w3.org/Graphics/SVG/1.1/DTD/svg11.dtd">
<!-- Generated by graphviz version 2.40.1 (20161225.0304)
 -->
<!-- Title: active_storage_blobs Pages: 1 -->
<svg width="896pt" height="742pt"
 viewBox="0.00 0.00 896.00 742.00" xmlns="http://www.w3.org/2000/svg" xmlns:xlink="http://www.w3.org/1999/xlink">
<g id="graph0" class="graph" transform="scale(1 1) rotate(0) translate(4 738)">
<title>active_storage_blobs</title>
<polygon fill="#ffffff" stroke="transparent" points="-4,4 -4,-738 892,-738 892,4 -4,4"/>
<!-- active_storage_blobs -->
<g id="node1" class="node">
<title>active_storage_blobs</title>
<polygon fill="#efefef" stroke="transparent" points="296,-315.5 296,-350.5 577,-350.5 577,-315.5 296,-315.5"/>
<polygon fill="none" stroke="#000000" points="296,-315.5 296,-350.5 577,-350.5 577,-315.5 296,-315.5"/>
<text text-anchor="start" x="302.8465" y="-328.3" font-family="Arial Bold" font-size="18.00" fill="#000000">active_storage_blobs</text>
<text text-anchor="start" x="472.8997" y="-328.3" font-family="Arial" font-size="14.00" fill="#000000"> </text>
<text text-anchor="start" x="476.7903" y="-328.3" font-family="Arial" font-size="14.00" fill="#666666">[BASE TABLE]</text>
<polygon fill="none" stroke="#000000" points="296,-285.5 296,-315.5 577,-315.5 577,-285.5 296,-285.5"/>
<text text-anchor="start" x="303" y="-296.9" font-family="Arial" font-size="14.00" fill="#000000">id </text>
<text text-anchor="start" x="317.7798" y="-296.9" font-family="Arial" font-size="14.00" fill="#666666">[bigint]</text>
<polygon fill="none" stroke="#000000" points="296,-255.5 296,-285.5 577,-285.5 577,-255.5 296,-255.5"/>
<text text-anchor="start" x="303" y="-266.9" font-family="Arial" font-size="14.00" fill="#000000">key </text>
<text text-anchor="start" x="328.6732" y="-266.9" font-family="Arial" font-size="14.00" fill="#666666">[varchar(255)]</text>
<polygon fill="none" stroke="#000000" points="296,-225.5 296,-255.5 577,-255.5 577,-225.5 296,-225.5"/>
<text text-anchor="start" x="303" y="-236.9" font-family="Arial" font-size="14.00" fill="#000000">filename </text>
<text text-anchor="start" x="359.7854" y="-236.9" font-family="Arial" font-size="14.00" fill="#666666">[varchar(255)]</text>
<polygon fill="none" stroke="#000000" points="296,-195.5 296,-225.5 577,-225.5 577,-195.5 296,-195.5"/>
<text text-anchor="start" x="303" y="-206.9" font-family="Arial" font-size="14.00" fill="#000000">content_type </text>
<text text-anchor="start" x="387.0406" y="-206.9" font-family="Arial" font-size="14.00" fill="#666666">[varchar(255)]</text>
<polygon fill="none" stroke="#000000" points="296,-165.5 296,-195.5 577,-195.5 577,-165.5 296,-165.5"/>
<text text-anchor="start" x="303" y="-176.9" font-family="Arial" font-size="14.00" fill="#000000">metadata </text>
<text text-anchor="start" x="365.2454" y="-176.9" font-family="Arial" font-size="14.00" fill="#666666">[text]</text>
<polygon fill="none" stroke="#000000" points="296,-135.5 296,-165.5 577,-165.5 577,-135.5 296,-135.5"/>
<text text-anchor="start" x="303" y="-146.9" font-family="Arial" font-size="14.00" fill="#000000">service_name </text>
<text text-anchor="start" x="394.014" y="-146.9" font-family="Arial" font-size="14.00" fill="#666666">[varchar(255)]</text>
<polygon fill="none" stroke="#000000" points="296,-105.5 296,-135.5 577,-135.5 577,-105.5 296,-105.5"/>
<text text-anchor="start" x="303" y="-116.9" font-family="Arial" font-size="14.00" fill="#000000">byte_size </text>
<text text-anchor="start" x="366.0182" y="-116.9" font-family="Arial" font-size="14.00" fill="#666666">[bigint]</text>
<polygon fill="none" stroke="#000000" points="296,-75.5 296,-105.5 577,-105.5 577,-75.5 296,-75.5"/>
<text text-anchor="start" x="303" y="-86.9" font-family="Arial" font-size="14.00" fill="#000000">checksum </text>
<text text-anchor="start" x="369.899" y="-86.9" font-family="Arial" font-size="14.00" fill="#666666">[varchar(255)]</text>
<polygon fill="none" stroke="#000000" points="296,-45.5 296,-75.5 577,-75.5 577,-45.5 296,-45.5"/>
<text text-anchor="start" x="303" y="-56.9" font-family="Arial" font-size="14.00" fill="#000000">created_at </text>
<text text-anchor="start" x="373.028" y="-56.9" font-family="Arial" font-size="14.00" fill="#666666">[datetime(6)]</text>
<polygon fill="none" stroke="#000000" stroke-width="3" points="294,-44.5 294,-352.5 578,-352.5 578,-44.5 294,-44.5"/>
</g>
<!-- active_storage_attachments -->
<g id="node2" class="node">
<title>active_storage_attachments</title>
<polygon fill="#efefef" stroke="transparent" points="43,-655.5 43,-690.5 379,-690.5 379,-655.5 43,-655.5"/>
<polygon fill="none" stroke="#000000" points="43,-655.5 43,-690.5 379,-690.5 379,-655.5 43,-655.5"/>
<text text-anchor="start" x="49.838" y="-668.3" font-family="Arial Bold" font-size="18.00" fill="#000000">active_storage_attachments</text>
<text text-anchor="start" x="274.9082" y="-668.3" font-family="Arial" font-size="14.00" fill="#000000"> </text>
<text text-anchor="start" x="278.7988" y="-668.3" font-family="Arial" font-size="14.00" fill="#666666">[BASE TABLE]</text>
<polygon fill="none" stroke="#000000" points="43,-625.5 43,-655.5 379,-655.5 379,-625.5 43,-625.5"/>
<text text-anchor="start" x="50" y="-636.9" font-family="Arial" font-size="14.00" fill="#000000">id </text>
<text text-anchor="start" x="64.7798" y="-636.9" font-family="Arial" font-size="14.00" fill="#666666">[bigint]</text>
<polygon fill="none" stroke="#000000" points="43,-595.5 43,-625.5 379,-625.5 379,-595.5 43,-595.5"/>
<text text-anchor="start" x="50" y="-606.9" font-family="Arial" font-size="14.00" fill="#000000">name </text>
<text text-anchor="start" x="88.899" y="-606.9" font-family="Arial" font-size="14.00" fill="#666666">[varchar(255)]</text>
<polygon fill="none" stroke="#000000" points="43,-565.5 43,-595.5 379,-595.5 379,-565.5 43,-565.5"/>
<text text-anchor="start" x="50" y="-576.9" font-family="Arial" font-size="14.00" fill="#000000">record_type </text>
<text text-anchor="start" x="127.798" y="-576.9" font-family="Arial" font-size="14.00" fill="#666666">[varchar(255)]</text>
<polygon fill="none" stroke="#000000" points="43,-535.5 43,-565.5 379,-565.5 379,-535.5 43,-535.5"/>
<text text-anchor="start" x="50" y="-546.9" font-family="Arial" font-size="14.00" fill="#000000">record_id </text>
<text text-anchor="start" x="112.2314" y="-546.9" font-family="Arial" font-size="14.00" fill="#666666">[bigint]</text>
<polygon fill="none" stroke="#000000" points="43,-505.5 43,-535.5 379,-535.5 379,-505.5 43,-505.5"/>
<text text-anchor="start" x="50" y="-516.9" font-family="Arial" font-size="14.00" fill="#000000">blob_id </text>
<text text-anchor="start" x="99.0168" y="-516.9" font-family="Arial" font-size="14.00" fill="#666666">[bigint]</text>
<polygon fill="none" stroke="#000000" points="43,-475.5 43,-505.5 379,-505.5 379,-475.5 43,-475.5"/>
<text text-anchor="start" x="50" y="-486.9" font-family="Arial" font-size="14.00" fill="#000000">created_at </text>
<text text-anchor="start" x="120.028" y="-486.9" font-family="Arial" font-size="14.00" fill="#666666">[datetime(6)]</text>
</g>
<!-- active_storage_attachments&#45;&gt;active_storage_blobs -->
<g id="edge1" class="edge">
<title>active_storage_attachments:blob_id&#45;&gt;active_storage_blobs:id</title>
<path fill="none" stroke="#000000" d="M389.1576,-518.8796C414.2847,-509.5625 398.1702,-462.2105 379,-433 356.9383,-399.3835 318.0617,-430.6165 296,-397 272.4681,-361.1433 253.1111,-300.5 296,-300.5"/>
<polygon fill="#000000" stroke="#000000" points="388.8751,-518.9246 378.291,-516.0562 383.9376,-519.7123 379,-520.5 379,-520.5 379,-520.5 383.9376,-519.7123 379.709,-524.9438 388.8751,-518.9246 388.8751,-518.9246"/>
<text text-anchor="start" x="386.207" y="-530.5" font-family="Arial" font-size="10.00" fill="#000000">FOREIGN KEY (blob_id) REFERENCES active_storage_blobs (id)</text>
</g>
<!-- active_storage_variant_records -->
<g id="node3" class="node">
<title>active_storage_variant_records</title>
<polygon fill="#efefef" stroke="transparent" points="483,-610.5 483,-645.5 845,-645.5 845,-610.5 483,-610.5"/>
<polygon fill="none" stroke="#000000" points="483,-610.5 483,-645.5 845,-645.5 845,-610.5 483,-610.5"/>
<text text-anchor="start" x="489.8447" y="-623.3" font-family="Arial Bold" font-size="18.00" fill="#000000">active_storage_variant_records</text>
<text text-anchor="start" x="740.9015" y="-623.3" font-family="Arial" font-size="14.00" fill="#000000"> </text>
<text text-anchor="start" x="744.7921" y="-623.3" font-family="Arial" font-size="14.00" fill="#666666">[BASE TABLE]</text>
<polygon fill="none" stroke="#000000" points="483,-580.5 483,-610.5 845,-610.5 845,-580.5 483,-580.5"/>
<text text-anchor="start" x="490" y="-591.9" font-family="Arial" font-size="14.00" fill="#000000">id </text>
<text text-anchor="start" x="504.7798" y="-591.9" font-family="Arial" font-size="14.00" fill="#666666">[bigint]</text>
<polygon fill="none" stroke="#000000" points="483,-550.5 483,-580.5 845,-580.5 845,-550.5 483,-550.5"/>
<text text-anchor="start" x="490" y="-561.9" font-family="Arial" font-size="14.00" fill="#000000">blob_id </text>
<text text-anchor="start" x="539.0168" y="-561.9" font-family="Arial" font-size="14.00" fill="#666666">[bigint]</text>
<polygon fill="none" stroke="#000000" points="483,-520.5 483,-550.5 845,-550.5 845,-520.5 483,-520.5"/>
<text text-anchor="start" x="490" y="-531.9" font-family="Arial" font-size="14.00" fill="#000000">variation_digest </text>
<text text-anchor="start" x="591.913" y="-531.9" font-family="Arial" font-size="14.00" fill="#666666">[varchar(255)]</text>
</g>
<!-- active_storage_variant_records&#45;&gt;active_storage_blobs -->
<g id="edge2" class="edge">
<title>active_storage_variant_records:blob_id&#45;&gt;active_storage_blobs:id</title>
<path fill="none" stroke="#000000" d="M472.9851,-563.9585C448.6522,-555.0807 468.442,-509.7619 483,-478 505.9786,-427.8665 554.0214,-447.1335 577,-397 594.8703,-358.0114 619.8889,-300.5 577,-300.5"/>
<polygon fill="#000000" stroke="#000000" points="473.1164,-563.9786 482.3154,-569.9476 478.0582,-564.7393 483,-565.5 483,-565.5 483,-565.5 478.0582,-564.7393 483.6846,-561.0524 473.1164,-563.9786 473.1164,-563.9786"/>
<text text-anchor="start" x="490.207" y="-575.5" font-family="Arial" font-size="10.00" fill="#000000">FOREIGN KEY (blob_id) REFERENCES active_storage_blobs (id)</text>
</g>
</g>
</svg>
