<?xml version="1.0" encoding="UTF-8" standalone="no"?>
<!DOCTYPE svg PUBLIC "-//W3C//DTD SVG 1.1//EN"
 "http://www.w3.org/Graphics/SVG/1.1/DTD/svg11.dtd">
<!-- Generated by graphviz version 2.40.1 (20161225.0304)
 -->
<!-- Title: active_storage_variant_records Pages: 1 -->
<svg width="725pt" height="652pt"
 viewBox="0.00 0.00 725.00 652.00" xmlns="http://www.w3.org/2000/svg" xmlns:xlink="http://www.w3.org/1999/xlink">
<g id="graph0" class="graph" transform="scale(1 1) rotate(0) translate(4 648)">
<title>active_storage_variant_records</title>
<polygon fill="#ffffff" stroke="transparent" points="-4,4 -4,-648 721,-648 721,4 -4,4"/>
<!-- active_storage_variant_records -->
<g id="node1" class="node">
<title>active_storage_variant_records</title>
<polygon fill="#efefef" stroke="transparent" points="309,-562.5 309,-597.5 671,-597.5 671,-562.5 309,-562.5"/>
<polygon fill="none" stroke="#000000" points="309,-562.5 309,-597.5 671,-597.5 671,-562.5 309,-562.5"/>
<text text-anchor="start" x="315.8447" y="-575.3" font-family="Arial Bold" font-size="18.00" fill="#000000">active_storage_variant_records</text>
<text text-anchor="start" x="566.9015" y="-575.3" font-family="Arial" font-size="14.00" fill="#000000"> </text>
<text text-anchor="start" x="570.7921" y="-575.3" font-family="Arial" font-size="14.00" fill="#666666">[BASE TABLE]</text>
<polygon fill="none" stroke="#000000" points="309,-532.5 309,-562.5 671,-562.5 671,-532.5 309,-532.5"/>
<text text-anchor="start" x="316" y="-543.9" font-family="Arial" font-size="14.00" fill="#000000">id </text>
<text text-anchor="start" x="330.7798" y="-543.9" font-family="Arial" font-size="14.00" fill="#666666">[bigint]</text>
<polygon fill="none" stroke="#000000" points="309,-502.5 309,-532.5 671,-532.5 671,-502.5 309,-502.5"/>
<text text-anchor="start" x="316" y="-513.9" font-family="Arial" font-size="14.00" fill="#000000">blob_id </text>
<text text-anchor="start" x="365.0168" y="-513.9" font-family="Arial" font-size="14.00" fill="#666666">[bigint]</text>
<polygon fill="none" stroke="#000000" points="309,-472.5 309,-502.5 671,-502.5 671,-472.5 309,-472.5"/>
<text text-anchor="start" x="316" y="-483.9" font-family="Arial" font-size="14.00" fill="#000000">variation_digest </text>
<text text-anchor="start" x="417.913" y="-483.9" font-family="Arial" font-size="14.00" fill="#666666">[varchar(255)]</text>
<polygon fill="none" stroke="#000000" stroke-width="3" points="307.5,-471.5 307.5,-599.5 672.5,-599.5 672.5,-471.5 307.5,-471.5"/>
</g>
<!-- active_storage_blobs -->
<g id="node2" class="node">
<title>active_storage_blobs</title>
<polygon fill="#efefef" stroke="transparent" points="349,-312.5 349,-347.5 630,-347.5 630,-312.5 349,-312.5"/>
<polygon fill="none" stroke="#000000" points="349,-312.5 349,-347.5 630,-347.5 630,-312.5 349,-312.5"/>
<text text-anchor="start" x="355.8465" y="-325.3" font-family="Arial Bold" font-size="18.00" fill="#000000">active_storage_blobs</text>
<text text-anchor="start" x="525.8997" y="-325.3" font-family="Arial" font-size="14.00" fill="#000000"> </text>
<text text-anchor="start" x="529.7903" y="-325.3" font-family="Arial" font-size="14.00" fill="#666666">[BASE TABLE]</text>
<polygon fill="none" stroke="#000000" points="349,-282.5 349,-312.5 630,-312.5 630,-282.5 349,-282.5"/>
<text text-anchor="start" x="356" y="-293.9" font-family="Arial" font-size="14.00" fill="#000000">id </text>
<text text-anchor="start" x="370.7798" y="-293.9" font-family="Arial" font-size="14.00" fill="#666666">[bigint]</text>
<polygon fill="none" stroke="#000000" points="349,-252.5 349,-282.5 630,-282.5 630,-252.5 349,-252.5"/>
<text text-anchor="start" x="356" y="-263.9" font-family="Arial" font-size="14.00" fill="#000000">key </text>
<text text-anchor="start" x="381.6732" y="-263.9" font-family="Arial" font-size="14.00" fill="#666666">[varchar(255)]</text>
<polygon fill="none" stroke="#000000" points="349,-222.5 349,-252.5 630,-252.5 630,-222.5 349,-222.5"/>
<text text-anchor="start" x="356" y="-233.9" font-family="Arial" font-size="14.00" fill="#000000">filename </text>
<text text-anchor="start" x="412.7854" y="-233.9" font-family="Arial" font-size="14.00" fill="#666666">[varchar(255)]</text>
<polygon fill="none" stroke="#000000" points="349,-192.5 349,-222.5 630,-222.5 630,-192.5 349,-192.5"/>
<text text-anchor="start" x="356" y="-203.9" font-family="Arial" font-size="14.00" fill="#000000">content_type </text>
<text text-anchor="start" x="440.0406" y="-203.9" font-family="Arial" font-size="14.00" fill="#666666">[varchar(255)]</text>
<polygon fill="none" stroke="#000000" points="349,-162.5 349,-192.5 630,-192.5 630,-162.5 349,-162.5"/>
<text text-anchor="start" x="356" y="-173.9" font-family="Arial" font-size="14.00" fill="#000000">metadata </text>
<text text-anchor="start" x="418.2454" y="-173.9" font-family="Arial" font-size="14.00" fill="#666666">[text]</text>
<polygon fill="none" stroke="#000000" points="349,-132.5 349,-162.5 630,-162.5 630,-132.5 349,-132.5"/>
<text text-anchor="start" x="356" y="-143.9" font-family="Arial" font-size="14.00" fill="#000000">service_name </text>
<text text-anchor="start" x="447.014" y="-143.9" font-family="Arial" font-size="14.00" fill="#666666">[varchar(255)]</text>
<polygon fill="none" stroke="#000000" points="349,-102.5 349,-132.5 630,-132.5 630,-102.5 349,-102.5"/>
<text text-anchor="start" x="356" y="-113.9" font-family="Arial" font-size="14.00" fill="#000000">byte_size </text>
<text text-anchor="start" x="419.0182" y="-113.9" font-family="Arial" font-size="14.00" fill="#666666">[bigint]</text>
<polygon fill="none" stroke="#000000" points="349,-72.5 349,-102.5 630,-102.5 630,-72.5 349,-72.5"/>
<text text-anchor="start" x="356" y="-83.9" font-family="Arial" font-size="14.00" fill="#000000">checksum </text>
<text text-anchor="start" x="422.899" y="-83.9" font-family="Arial" font-size="14.00" fill="#666666">[varchar(255)]</text>
<polygon fill="none" stroke="#000000" points="349,-42.5 349,-72.5 630,-72.5 630,-42.5 349,-42.5"/>
<text text-anchor="start" x="356" y="-53.9" font-family="Arial" font-size="14.00" fill="#000000">created_at </text>
<text text-anchor="start" x="426.028" y="-53.9" font-family="Arial" font-size="14.00" fill="#666666">[datetime]</text>
</g>
<!-- active_storage_variant_records&#45;&gt;active_storage_blobs -->
<g id="edge1" class="edge">
<title>active_storage_variant_records:blob_id&#45;&gt;active_storage_blobs:id</title>
<path fill="none" stroke="#000000" d="M299.0685,-515.9794C271.4104,-506.4217 284.7037,-454.1734 309,-427 404.6891,-319.9795 534.3109,-498.0205 630,-391 657.6984,-360.0216 671.5556,-297.5 630,-297.5"/>
<polygon fill="#000000" stroke="#000000" points="299.1152,-515.9865 308.3189,-521.9482 304.0576,-516.7432 309,-517.5 309,-517.5 309,-517.5 304.0576,-516.7432 309.6811,-513.0518 299.1152,-515.9865 299.1152,-515.9865"/>
<text text-anchor="start" x="7.207" y="-527.5" font-family="Arial" font-size="10.00" fill="#000000">FOREIGN KEY (blob_id) REFERENCES active_storage_blobs (id)</text>
</g>
</g>
</svg>
