<?xml version="1.0" encoding="UTF-8" standalone="no"?>
<!DOCTYPE svg PUBLIC "-//W3C//DTD SVG 1.1//EN"
 "http://www.w3.org/Graphics/SVG/1.1/DTD/svg11.dtd">
<!-- Generated by graphviz version 2.40.1 (20161225.0304)
 -->
<!-- Title: books Pages: 1 -->
<svg width="620pt" height="562pt"
 viewBox="0.00 0.00 620.00 562.00" xmlns="http://www.w3.org/2000/svg" xmlns:xlink="http://www.w3.org/1999/xlink">
<g id="graph0" class="graph" transform="scale(1 1) rotate(0) translate(4 558)">
<title>books</title>
<polygon fill="#ffffff" stroke="transparent" points="-4,4 -4,-558 616,-558 616,4 -4,4"/>
<!-- books -->
<g id="node1" class="node">
<title>books</title>
<polygon fill="#efefef" stroke="transparent" points="226,-165.5 226,-200.5 392,-200.5 392,-165.5 226,-165.5"/>
<polygon fill="none" stroke="#000000" points="226,-165.5 226,-200.5 392,-200.5 392,-165.5 226,-165.5"/>
<text text-anchor="start" x="236.3638" y="-178.3" font-family="Arial Bold" font-size="18.00" fill="#000000">books</text>
<text text-anchor="start" x="284.3824" y="-178.3" font-family="Arial" font-size="14.00" fill="#000000"> </text>
<text text-anchor="start" x="288.273" y="-178.3" font-family="Arial" font-size="14.00" fill="#666666">[BASE TABLE]</text>
<polygon fill="none" stroke="#000000" points="226,-135.5 226,-165.5 392,-165.5 392,-135.5 226,-135.5"/>
<text text-anchor="start" x="233" y="-146.9" font-family="Arial" font-size="14.00" fill="#000000">id </text>
<text text-anchor="start" x="247.7798" y="-146.9" font-family="Arial" font-size="14.00" fill="#666666">[bigint]</text>
<polygon fill="none" stroke="#000000" points="226,-105.5 226,-135.5 392,-135.5 392,-105.5 226,-105.5"/>
<text text-anchor="start" x="233" y="-116.9" font-family="Arial" font-size="14.00" fill="#000000">title </text>
<text text-anchor="start" x="258.6676" y="-116.9" font-family="Arial" font-size="14.00" fill="#666666">[varchar(255)]</text>
<polygon fill="none" stroke="#000000" points="226,-75.5 226,-105.5 392,-105.5 392,-75.5 226,-75.5"/>
<text text-anchor="start" x="233" y="-86.9" font-family="Arial" font-size="14.00" fill="#000000">created_at </text>
<text text-anchor="start" x="303.028" y="-86.9" font-family="Arial" font-size="14.00" fill="#666666">[datetime(6)]</text>
<polygon fill="none" stroke="#000000" points="226,-45.5 226,-75.5 392,-75.5 392,-45.5 226,-45.5"/>
<text text-anchor="start" x="232.7518" y="-56.9" font-family="Arial" font-size="14.00" fill="#000000">updated_at </text>
<text text-anchor="start" x="306.6844" y="-56.9" font-family="Arial" font-size="14.00" fill="#666666">[datetime(6)]</text>
<polygon fill="none" stroke="#000000" stroke-width="3" points="224.5,-44.5 224.5,-202.5 393.5,-202.5 393.5,-44.5 224.5,-44.5"/>
</g>
<!-- book_images -->
<g id="node2" class="node">
<title>book_images</title>
<polygon fill="#efefef" stroke="transparent" points="43,-460.5 43,-495.5 261,-495.5 261,-460.5 43,-460.5"/>
<polygon fill="none" stroke="#000000" points="43,-460.5 43,-495.5 261,-495.5 261,-460.5 43,-460.5"/>
<text text-anchor="start" x="49.8582" y="-473.3" font-family="Arial Bold" font-size="18.00" fill="#000000">book_images</text>
<text text-anchor="start" x="156.888" y="-473.3" font-family="Arial" font-size="14.00" fill="#000000"> </text>
<text text-anchor="start" x="160.7786" y="-473.3" font-family="Arial" font-size="14.00" fill="#666666">[BASE TABLE]</text>
<polygon fill="none" stroke="#000000" points="43,-430.5 43,-460.5 261,-460.5 261,-430.5 43,-430.5"/>
<text text-anchor="start" x="50" y="-441.9" font-family="Arial" font-size="14.00" fill="#000000">id </text>
<text text-anchor="start" x="64.7798" y="-441.9" font-family="Arial" font-size="14.00" fill="#666666">[bigint]</text>
<polygon fill="none" stroke="#000000" points="43,-400.5 43,-430.5 261,-430.5 261,-400.5 43,-400.5"/>
<text text-anchor="start" x="50" y="-411.9" font-family="Arial" font-size="14.00" fill="#000000">book_id </text>
<text text-anchor="start" x="102.9102" y="-411.9" font-family="Arial" font-size="14.00" fill="#666666">[bigint]</text>
<polygon fill="none" stroke="#000000" points="43,-370.5 43,-400.5 261,-400.5 261,-370.5 43,-370.5"/>
<text text-anchor="start" x="50" y="-381.9" font-family="Arial" font-size="14.00" fill="#000000">created_at </text>
<text text-anchor="start" x="120.028" y="-381.9" font-family="Arial" font-size="14.00" fill="#666666">[datetime(6)]</text>
<polygon fill="none" stroke="#000000" points="43,-340.5 43,-370.5 261,-370.5 261,-340.5 43,-340.5"/>
<text text-anchor="start" x="50" y="-351.9" font-family="Arial" font-size="14.00" fill="#000000">updated_at </text>
<text text-anchor="start" x="123.9326" y="-351.9" font-family="Arial" font-size="14.00" fill="#666666">[datetime(6)]</text>
</g>
<!-- book_images&#45;&gt;books -->
<g id="edge1" class="edge">
<title>book_images:book_id&#45;&gt;books:id</title>
<path fill="none" stroke="#000000" d="M271.2023,-414.4174C307.8839,-405.5602 275.3209,-344.1766 261,-298 252.8568,-271.7428 234.1432,-273.2572 226,-247 213.2957,-206.0359 183.1111,-150.5 226,-150.5"/>
<polygon fill="#000000" stroke="#000000" points="270.9442,-414.4447 260.5251,-411.0251 265.9721,-414.9724 261,-415.5 261,-415.5 261,-415.5 265.9721,-414.9724 261.4749,-419.9749 270.9442,-414.4447 270.9442,-414.4447"/>
<text text-anchor="start" x="267.715" y="-425.5" font-family="Arial" font-size="10.00" fill="#000000">FOREIGN KEY (book_id) REFERENCES books (id)</text>
</g>
<!-- user_books -->
<g id="node3" class="node">
<title>user_books</title>
<polygon fill="#efefef" stroke="transparent" points="365,-475.5 365,-510.5 569,-510.5 569,-475.5 365,-475.5"/>
<polygon fill="none" stroke="#000000" points="365,-475.5 365,-510.5 569,-510.5 569,-475.5 365,-475.5"/>
<text text-anchor="start" x="371.8584" y="-488.3" font-family="Arial Bold" font-size="18.00" fill="#000000">user_books</text>
<text text-anchor="start" x="464.8878" y="-488.3" font-family="Arial" font-size="14.00" fill="#000000"> </text>
<text text-anchor="start" x="468.7784" y="-488.3" font-family="Arial" font-size="14.00" fill="#666666">[BASE TABLE]</text>
<polygon fill="none" stroke="#000000" points="365,-445.5 365,-475.5 569,-475.5 569,-445.5 365,-445.5"/>
<text text-anchor="start" x="372" y="-456.9" font-family="Arial" font-size="14.00" fill="#000000">id </text>
<text text-anchor="start" x="386.7798" y="-456.9" font-family="Arial" font-size="14.00" fill="#666666">[bigint]</text>
<polygon fill="none" stroke="#000000" points="365,-415.5 365,-445.5 569,-445.5 569,-415.5 365,-415.5"/>
<text text-anchor="start" x="372" y="-426.9" font-family="Arial" font-size="14.00" fill="#000000">user_id </text>
<text text-anchor="start" x="421.7882" y="-426.9" font-family="Arial" font-size="14.00" fill="#666666">[bigint]</text>
<polygon fill="none" stroke="#000000" points="365,-385.5 365,-415.5 569,-415.5 569,-385.5 365,-385.5"/>
<text text-anchor="start" x="372" y="-396.9" font-family="Arial" font-size="14.00" fill="#000000">book_id </text>
<text text-anchor="start" x="424.9102" y="-396.9" font-family="Arial" font-size="14.00" fill="#666666">[bigint]</text>
<polygon fill="none" stroke="#000000" points="365,-355.5 365,-385.5 569,-385.5 569,-355.5 365,-355.5"/>
<text text-anchor="start" x="372" y="-366.9" font-family="Arial" font-size="14.00" fill="#000000">created_at </text>
<text text-anchor="start" x="442.028" y="-366.9" font-family="Arial" font-size="14.00" fill="#666666">[datetime(6)]</text>
<polygon fill="none" stroke="#000000" points="365,-325.5 365,-355.5 569,-355.5 569,-325.5 365,-325.5"/>
<text text-anchor="start" x="372" y="-336.9" font-family="Arial" font-size="14.00" fill="#000000">updated_at </text>
<text text-anchor="start" x="445.9326" y="-336.9" font-family="Arial" font-size="14.00" fill="#666666">[datetime(6)]</text>
</g>
<!-- user_books&#45;&gt;books -->
<g id="edge2" class="edge">
<title>user_books:book_id&#45;&gt;books:id</title>
<path fill="none" stroke="#000000" d="M354.7817,-399.4123C317.9725,-390.514 349.7115,-328.8654 365,-283 371.3246,-264.0263 385.6754,-265.9737 392,-247 405.5627,-206.312 434.8889,-150.5 392,-150.5"/>
<polygon fill="#000000" stroke="#000000" points="355.0562,-399.4414 364.5236,-404.9747 360.0281,-399.9707 365,-400.5 365,-400.5 365,-400.5 360.0281,-399.9707 365.4764,-396.0253 355.0562,-399.4414 355.0562,-399.4414"/>
<text text-anchor="start" x="310.715" y="-384.5" font-family="Arial" font-size="10.00" fill="#000000">FOREIGN KEY (book_id) REFERENCES books (id)</text>
</g>
</g>
</svg>
