<?xml version="1.0" encoding="UTF-8" standalone="no"?>
<!DOCTYPE svg PUBLIC "-//W3C//DTD SVG 1.1//EN"
 "http://www.w3.org/Graphics/SVG/1.1/DTD/svg11.dtd">
<!-- Generated by graphviz version 2.40.1 (20161225.0304)
 -->
<!-- Title: books Pages: 1 -->
<svg width="499pt" height="562pt"
 viewBox="0.00 0.00 499.00 562.00" xmlns="http://www.w3.org/2000/svg" xmlns:xlink="http://www.w3.org/1999/xlink">
<g id="graph0" class="graph" transform="scale(1 1) rotate(0) translate(4 558)">
<title>books</title>
<polygon fill="#ffffff" stroke="transparent" points="-4,4 -4,-558 495,-558 495,4 -4,4"/>
<!-- books -->
<g id="node1" class="node">
<title>books</title>
<polygon fill="#efefef" stroke="transparent" points="62,-165.5 62,-200.5 228,-200.5 228,-165.5 62,-165.5"/>
<polygon fill="none" stroke="#000000" points="62,-165.5 62,-200.5 228,-200.5 228,-165.5 62,-165.5"/>
<text text-anchor="start" x="72.3638" y="-178.3" font-family="Arial Bold" font-size="18.00" fill="#000000">books</text>
<text text-anchor="start" x="120.3824" y="-178.3" font-family="Arial" font-size="14.00" fill="#000000"> </text>
<text text-anchor="start" x="124.273" y="-178.3" font-family="Arial" font-size="14.00" fill="#666666">[BASE TABLE]</text>
<polygon fill="none" stroke="#000000" points="62,-135.5 62,-165.5 228,-165.5 228,-135.5 62,-135.5"/>
<text text-anchor="start" x="69" y="-146.9" font-family="Arial" font-size="14.00" fill="#000000">id </text>
<text text-anchor="start" x="83.7798" y="-146.9" font-family="Arial" font-size="14.00" fill="#666666">[bigint]</text>
<polygon fill="none" stroke="#000000" points="62,-105.5 62,-135.5 228,-135.5 228,-105.5 62,-105.5"/>
<text text-anchor="start" x="69" y="-116.9" font-family="Arial" font-size="14.00" fill="#000000">title </text>
<text text-anchor="start" x="94.6676" y="-116.9" font-family="Arial" font-size="14.00" fill="#666666">[varchar(255)]</text>
<polygon fill="none" stroke="#000000" points="62,-75.5 62,-105.5 228,-105.5 228,-75.5 62,-75.5"/>
<text text-anchor="start" x="69" y="-86.9" font-family="Arial" font-size="14.00" fill="#000000">created_at </text>
<text text-anchor="start" x="139.028" y="-86.9" font-family="Arial" font-size="14.00" fill="#666666">[datetime(6)]</text>
<polygon fill="none" stroke="#000000" points="62,-45.5 62,-75.5 228,-75.5 228,-45.5 62,-45.5"/>
<text text-anchor="start" x="68.7518" y="-56.9" font-family="Arial" font-size="14.00" fill="#000000">updated_at </text>
<text text-anchor="start" x="142.6844" y="-56.9" font-family="Arial" font-size="14.00" fill="#666666">[datetime(6)]</text>
<polygon fill="none" stroke="#000000" stroke-width="3" points="60.5,-44.5 60.5,-202.5 229.5,-202.5 229.5,-44.5 60.5,-44.5"/>
</g>
<!-- user_books -->
<g id="node2" class="node">
<title>user_books</title>
<polygon fill="#efefef" stroke="transparent" points="43,-475.5 43,-510.5 247,-510.5 247,-475.5 43,-475.5"/>
<polygon fill="none" stroke="#000000" points="43,-475.5 43,-510.5 247,-510.5 247,-475.5 43,-475.5"/>
<text text-anchor="start" x="49.8584" y="-488.3" font-family="Arial Bold" font-size="18.00" fill="#000000">user_books</text>
<text text-anchor="start" x="142.8878" y="-488.3" font-family="Arial" font-size="14.00" fill="#000000"> </text>
<text text-anchor="start" x="146.7784" y="-488.3" font-family="Arial" font-size="14.00" fill="#666666">[BASE TABLE]</text>
<polygon fill="none" stroke="#000000" points="43,-445.5 43,-475.5 247,-475.5 247,-445.5 43,-445.5"/>
<text text-anchor="start" x="50" y="-456.9" font-family="Arial" font-size="14.00" fill="#000000">id </text>
<text text-anchor="start" x="64.7798" y="-456.9" font-family="Arial" font-size="14.00" fill="#666666">[bigint]</text>
<polygon fill="none" stroke="#000000" points="43,-415.5 43,-445.5 247,-445.5 247,-415.5 43,-415.5"/>
<text text-anchor="start" x="50" y="-426.9" font-family="Arial" font-size="14.00" fill="#000000">user_id </text>
<text text-anchor="start" x="99.7882" y="-426.9" font-family="Arial" font-size="14.00" fill="#666666">[bigint]</text>
<polygon fill="none" stroke="#000000" points="43,-385.5 43,-415.5 247,-415.5 247,-385.5 43,-385.5"/>
<text text-anchor="start" x="50" y="-396.9" font-family="Arial" font-size="14.00" fill="#000000">book_id </text>
<text text-anchor="start" x="102.9102" y="-396.9" font-family="Arial" font-size="14.00" fill="#666666">[bigint]</text>
<polygon fill="none" stroke="#000000" points="43,-355.5 43,-385.5 247,-385.5 247,-355.5 43,-355.5"/>
<text text-anchor="start" x="50" y="-366.9" font-family="Arial" font-size="14.00" fill="#000000">created_at </text>
<text text-anchor="start" x="120.028" y="-366.9" font-family="Arial" font-size="14.00" fill="#666666">[datetime(6)]</text>
<polygon fill="none" stroke="#000000" points="43,-325.5 43,-355.5 247,-355.5 247,-325.5 43,-325.5"/>
<text text-anchor="start" x="50" y="-336.9" font-family="Arial" font-size="14.00" fill="#000000">updated_at </text>
<text text-anchor="start" x="123.9326" y="-336.9" font-family="Arial" font-size="14.00" fill="#666666">[datetime(6)]</text>
</g>
<!-- user_books&#45;&gt;books -->
<g id="edge1" class="edge">
<title>user_books:book_id&#45;&gt;books:id</title>
<path fill="none" stroke="#000000" d="M257.0657,-399.7828C357.1538,-385.1191 335.9493,-150.5 228,-150.5"/>
<polygon fill="#000000" stroke="#000000" points="256.9747,-399.7892 246.6802,-396.0114 251.9874,-400.1446 247,-400.5 247,-400.5 247,-400.5 251.9874,-400.1446 247.3198,-404.9886 256.9747,-399.7892 256.9747,-399.7892"/>
<text text-anchor="start" x="253.715" y="-410.5" font-family="Arial" font-size="10.00" fill="#000000">FOREIGN KEY (book_id) REFERENCES books (id)</text>
</g>
</g>
</svg>
