<?xml version="1.0" encoding="UTF-8" standalone="no"?>
<!DOCTYPE svg PUBLIC "-//W3C//DTD SVG 1.1//EN"
 "http://www.w3.org/Graphics/SVG/1.1/DTD/svg11.dtd">
<!-- Generated by graphviz version 2.40.1 (20161225.0304)
 -->
<!-- Title: book_images Pages: 1 -->
<svg width="516pt" height="532pt"
 viewBox="0.00 0.00 516.00 532.00" xmlns="http://www.w3.org/2000/svg" xmlns:xlink="http://www.w3.org/1999/xlink">
<g id="graph0" class="graph" transform="scale(1 1) rotate(0) translate(4 528)">
<title>book_images</title>
<polygon fill="#ffffff" stroke="transparent" points="-4,4 -4,-528 512,-528 512,4 -4,4"/>
<!-- book_images -->
<g id="node1" class="node">
<title>book_images</title>
<polygon fill="#efefef" stroke="transparent" points="46,-442.5 46,-477.5 264,-477.5 264,-442.5 46,-442.5"/>
<polygon fill="none" stroke="#000000" points="46,-442.5 46,-477.5 264,-477.5 264,-442.5 46,-442.5"/>
<text text-anchor="start" x="52.8582" y="-455.3" font-family="Arial Bold" font-size="18.00" fill="#000000">book_images</text>
<text text-anchor="start" x="159.888" y="-455.3" font-family="Arial" font-size="14.00" fill="#000000"> </text>
<text text-anchor="start" x="163.7786" y="-455.3" font-family="Arial" font-size="14.00" fill="#666666">[BASE TABLE]</text>
<polygon fill="none" stroke="#000000" points="46,-412.5 46,-442.5 264,-442.5 264,-412.5 46,-412.5"/>
<text text-anchor="start" x="53" y="-423.9" font-family="Arial" font-size="14.00" fill="#000000">id </text>
<text text-anchor="start" x="67.7798" y="-423.9" font-family="Arial" font-size="14.00" fill="#666666">[bigint]</text>
<polygon fill="none" stroke="#000000" points="46,-382.5 46,-412.5 264,-412.5 264,-382.5 46,-382.5"/>
<text text-anchor="start" x="53" y="-393.9" font-family="Arial" font-size="14.00" fill="#000000">book_id </text>
<text text-anchor="start" x="105.9102" y="-393.9" font-family="Arial" font-size="14.00" fill="#666666">[bigint]</text>
<polygon fill="none" stroke="#000000" points="46,-352.5 46,-382.5 264,-382.5 264,-352.5 46,-352.5"/>
<text text-anchor="start" x="53" y="-363.9" font-family="Arial" font-size="14.00" fill="#000000">created_at </text>
<text text-anchor="start" x="123.028" y="-363.9" font-family="Arial" font-size="14.00" fill="#666666">[datetime(6)]</text>
<polygon fill="none" stroke="#000000" points="46,-322.5 46,-352.5 264,-352.5 264,-322.5 46,-322.5"/>
<text text-anchor="start" x="53" y="-333.9" font-family="Arial" font-size="14.00" fill="#000000">updated_at </text>
<text text-anchor="start" x="126.9326" y="-333.9" font-family="Arial" font-size="14.00" fill="#666666">[datetime(6)]</text>
<polygon fill="none" stroke="#000000" stroke-width="3" points="44.5,-321.5 44.5,-479.5 265.5,-479.5 265.5,-321.5 44.5,-321.5"/>
</g>
<!-- books -->
<g id="node2" class="node">
<title>books</title>
<polygon fill="#efefef" stroke="transparent" points="72,-162.5 72,-197.5 238,-197.5 238,-162.5 72,-162.5"/>
<polygon fill="none" stroke="#000000" points="72,-162.5 72,-197.5 238,-197.5 238,-162.5 72,-162.5"/>
<text text-anchor="start" x="82.3638" y="-175.3" font-family="Arial Bold" font-size="18.00" fill="#000000">books</text>
<text text-anchor="start" x="130.3824" y="-175.3" font-family="Arial" font-size="14.00" fill="#000000"> </text>
<text text-anchor="start" x="134.273" y="-175.3" font-family="Arial" font-size="14.00" fill="#666666">[BASE TABLE]</text>
<polygon fill="none" stroke="#000000" points="72,-132.5 72,-162.5 238,-162.5 238,-132.5 72,-132.5"/>
<text text-anchor="start" x="79" y="-143.9" font-family="Arial" font-size="14.00" fill="#000000">id </text>
<text text-anchor="start" x="93.7798" y="-143.9" font-family="Arial" font-size="14.00" fill="#666666">[bigint]</text>
<polygon fill="none" stroke="#000000" points="72,-102.5 72,-132.5 238,-132.5 238,-102.5 72,-102.5"/>
<text text-anchor="start" x="79" y="-113.9" font-family="Arial" font-size="14.00" fill="#000000">title </text>
<text text-anchor="start" x="104.6676" y="-113.9" font-family="Arial" font-size="14.00" fill="#666666">[varchar(255)]</text>
<polygon fill="none" stroke="#000000" points="72,-72.5 72,-102.5 238,-102.5 238,-72.5 72,-72.5"/>
<text text-anchor="start" x="79" y="-83.9" font-family="Arial" font-size="14.00" fill="#000000">created_at </text>
<text text-anchor="start" x="149.028" y="-83.9" font-family="Arial" font-size="14.00" fill="#666666">[datetime(6)]</text>
<polygon fill="none" stroke="#000000" points="72,-42.5 72,-72.5 238,-72.5 238,-42.5 72,-42.5"/>
<text text-anchor="start" x="78.7518" y="-53.9" font-family="Arial" font-size="14.00" fill="#000000">updated_at </text>
<text text-anchor="start" x="152.6844" y="-53.9" font-family="Arial" font-size="14.00" fill="#666666">[datetime(6)]</text>
</g>
<!-- book_images&#45;&gt;books -->
<g id="edge1" class="edge">
<title>book_images:book_id&#45;&gt;books:id</title>
<path fill="none" stroke="#000000" d="M274.071,-396.7828C374.0017,-382.1191 346.2194,-147.5 238,-147.5"/>
<polygon fill="#000000" stroke="#000000" points="273.9747,-396.7896 263.6803,-393.0114 268.9874,-397.1448 264,-397.5 264,-397.5 264,-397.5 268.9874,-397.1448 264.3197,-401.9886 273.9747,-396.7896 273.9747,-396.7896"/>
<text text-anchor="start" x="270.715" y="-407.5" font-family="Arial" font-size="10.00" fill="#000000">FOREIGN KEY (book_id) REFERENCES books (id)</text>
</g>
</g>
</svg>
