<?xml version="1.0" encoding="UTF-8" standalone="no"?>
<!DOCTYPE svg PUBLIC "-//W3C//DTD SVG 1.1//EN"
 "http://www.w3.org/Graphics/SVG/1.1/DTD/svg11.dtd">
<!-- Generated by graphviz version 2.40.1 (20161225.0304)
 -->
<!-- Title: cascade_children Pages: 1 -->
<svg width="562pt" height="532pt"
 viewBox="0.00 0.00 561.50 532.00" xmlns="http://www.w3.org/2000/svg" xmlns:xlink="http://www.w3.org/1999/xlink">
<g id="graph0" class="graph" transform="scale(1 1) rotate(0) translate(4 528)">
<title>cascade_children</title>
<polygon fill="#ffffff" stroke="transparent" points="-4,4 -4,-528 557.5,-528 557.5,4 -4,4"/>
<!-- cascade_children -->
<g id="node1" class="node">
<title>cascade_children</title>
<polygon fill="#efefef" stroke="transparent" points="257,-442.5 257,-477.5 508,-477.5 508,-442.5 257,-442.5"/>
<polygon fill="none" stroke="#000000" points="257,-442.5 257,-477.5 508,-477.5 508,-442.5 257,-442.5"/>
<text text-anchor="start" x="263.8549" y="-455.3" font-family="Arial Bold" font-size="18.00" fill="#000000">cascade_children</text>
<text text-anchor="start" x="403.8913" y="-455.3" font-family="Arial" font-size="14.00" fill="#000000"> </text>
<text text-anchor="start" x="407.7819" y="-455.3" font-family="Arial" font-size="14.00" fill="#666666">[BASE TABLE]</text>
<polygon fill="none" stroke="#000000" points="257,-412.5 257,-442.5 508,-442.5 508,-412.5 257,-412.5"/>
<text text-anchor="start" x="264" y="-423.9" font-family="Arial" font-size="14.00" fill="#000000">id </text>
<text text-anchor="start" x="278.7798" y="-423.9" font-family="Arial" font-size="14.00" fill="#666666">[bigint]</text>
<polygon fill="none" stroke="#000000" points="257,-382.5 257,-412.5 508,-412.5 508,-382.5 257,-382.5"/>
<text text-anchor="start" x="264" y="-393.9" font-family="Arial" font-size="14.00" fill="#000000">parent_id </text>
<text text-anchor="start" x="326.244" y="-393.9" font-family="Arial" font-size="14.00" fill="#666666">[bigint]</text>
<polygon fill="none" stroke="#000000" points="257,-352.5 257,-382.5 508,-382.5 508,-352.5 257,-352.5"/>
<text text-anchor="start" x="264" y="-363.9" font-family="Arial" font-size="14.00" fill="#000000">created_at </text>
<text text-anchor="start" x="334.028" y="-363.9" font-family="Arial" font-size="14.00" fill="#666666">[datetime(6)]</text>
<polygon fill="none" stroke="#000000" points="257,-322.5 257,-352.5 508,-352.5 508,-322.5 257,-322.5"/>
<text text-anchor="start" x="264" y="-333.9" font-family="Arial" font-size="14.00" fill="#000000">updated_at </text>
<text text-anchor="start" x="337.9326" y="-333.9" font-family="Arial" font-size="14.00" fill="#666666">[datetime(6)]</text>
<polygon fill="none" stroke="#000000" stroke-width="3" points="255,-321.5 255,-479.5 509,-479.5 509,-321.5 255,-321.5"/>
</g>
<!-- parents -->
<g id="node2" class="node">
<title>parents</title>
<polygon fill="#efefef" stroke="transparent" points="297,-162.5 297,-197.5 468,-197.5 468,-162.5 297,-162.5"/>
<polygon fill="none" stroke="#000000" points="297,-162.5 297,-197.5 468,-197.5 468,-162.5 297,-162.5"/>
<text text-anchor="start" x="303.8635" y="-175.3" font-family="Arial Bold" font-size="18.00" fill="#000000">parents</text>
<text text-anchor="start" x="363.8827" y="-175.3" font-family="Arial" font-size="14.00" fill="#000000"> </text>
<text text-anchor="start" x="367.7733" y="-175.3" font-family="Arial" font-size="14.00" fill="#666666">[BASE TABLE]</text>
<polygon fill="none" stroke="#000000" points="297,-132.5 297,-162.5 468,-162.5 468,-132.5 297,-132.5"/>
<text text-anchor="start" x="304" y="-143.9" font-family="Arial" font-size="14.00" fill="#000000">id </text>
<text text-anchor="start" x="318.7798" y="-143.9" font-family="Arial" font-size="14.00" fill="#666666">[bigint]</text>
<polygon fill="none" stroke="#000000" points="297,-102.5 297,-132.5 468,-132.5 468,-102.5 297,-102.5"/>
<text text-anchor="start" x="304" y="-113.9" font-family="Arial" font-size="14.00" fill="#000000">status </text>
<text text-anchor="start" x="345.237" y="-113.9" font-family="Arial" font-size="14.00" fill="#666666">[tinyint unsigned]</text>
<polygon fill="none" stroke="#000000" points="297,-72.5 297,-102.5 468,-102.5 468,-72.5 297,-72.5"/>
<text text-anchor="start" x="304" y="-83.9" font-family="Arial" font-size="14.00" fill="#000000">created_at </text>
<text text-anchor="start" x="374.028" y="-83.9" font-family="Arial" font-size="14.00" fill="#666666">[datetime(6)]</text>
<polygon fill="none" stroke="#000000" points="297,-42.5 297,-72.5 468,-72.5 468,-42.5 297,-42.5"/>
<text text-anchor="start" x="304" y="-53.9" font-family="Arial" font-size="14.00" fill="#000000">updated_at </text>
<text text-anchor="start" x="377.9326" y="-53.9" font-family="Arial" font-size="14.00" fill="#666666">[datetime(6)]</text>
</g>
<!-- cascade_children&#45;&gt;parents -->
<g id="edge1" class="edge">
<title>cascade_children:parent_id&#45;&gt;parents:id</title>
<path fill="none" stroke="#000000" d="M246.8952,-396.7828C147.0465,-382.1191 187.992,-147.5 297,-147.5"/>
<polygon fill="#000000" stroke="#000000" points="247.0251,-396.792 256.6814,-401.9887 252.0125,-397.146 257,-397.5 257,-397.5 257,-397.5 252.0125,-397.146 257.3186,-393.0113 247.0251,-396.792 247.0251,-396.792"/>
<text text-anchor="start" x="7.048" y="-407.5" font-family="Arial" font-size="10.00" fill="#000000">FOREIGN KEY (parent_id) REFERENCES parents (id)</text>
</g>
</g>
</svg>
