<?xml version="1.0" encoding="UTF-8" standalone="no"?>
<!DOCTYPE svg PUBLIC "-//W3C//DTD SVG 1.1//EN"
 "http://www.w3.org/Graphics/SVG/1.1/DTD/svg11.dtd">
<!-- Generated by graphviz version 2.40.1 (20161225.0304)
 -->
<!-- Title: children Pages: 1 -->
<svg width="485pt" height="532pt"
 viewBox="0.00 0.00 485.00 532.00" xmlns="http://www.w3.org/2000/svg" xmlns:xlink="http://www.w3.org/1999/xlink">
<g id="graph0" class="graph" transform="scale(1 1) rotate(0) translate(4 528)">
<title>children</title>
<polygon fill="#ffffff" stroke="transparent" points="-4,4 -4,-528 481,-528 481,4 -4,4"/>
<!-- children -->
<g id="node1" class="node">
<title>children</title>
<polygon fill="#efefef" stroke="transparent" points="257,-442.5 257,-477.5 431,-477.5 431,-442.5 257,-442.5"/>
<polygon fill="none" stroke="#000000" points="257,-442.5 257,-477.5 431,-477.5 431,-442.5 257,-442.5"/>
<text text-anchor="start" x="263.8704" y="-455.3" font-family="Arial Bold" font-size="18.00" fill="#000000">children</text>
<text text-anchor="start" x="326.8758" y="-455.3" font-family="Arial" font-size="14.00" fill="#000000"> </text>
<text text-anchor="start" x="330.7664" y="-455.3" font-family="Arial" font-size="14.00" fill="#666666">[BASE TABLE]</text>
<polygon fill="none" stroke="#000000" points="257,-412.5 257,-442.5 431,-442.5 431,-412.5 257,-412.5"/>
<text text-anchor="start" x="264" y="-423.9" font-family="Arial" font-size="14.00" fill="#000000">id </text>
<text text-anchor="start" x="278.7798" y="-423.9" font-family="Arial" font-size="14.00" fill="#666666">[bigint]</text>
<polygon fill="none" stroke="#000000" points="257,-382.5 257,-412.5 431,-412.5 431,-382.5 257,-382.5"/>
<text text-anchor="start" x="264" y="-393.9" font-family="Arial" font-size="14.00" fill="#000000">parent_id </text>
<text text-anchor="start" x="326.244" y="-393.9" font-family="Arial" font-size="14.00" fill="#666666">[bigint]</text>
<polygon fill="none" stroke="#000000" points="257,-352.5 257,-382.5 431,-382.5 431,-352.5 257,-352.5"/>
<text text-anchor="start" x="264" y="-363.9" font-family="Arial" font-size="14.00" fill="#000000">created_at </text>
<text text-anchor="start" x="334.028" y="-363.9" font-family="Arial" font-size="14.00" fill="#666666">[datetime(6)]</text>
<polygon fill="none" stroke="#000000" points="257,-322.5 257,-352.5 431,-352.5 431,-322.5 257,-322.5"/>
<text text-anchor="start" x="264" y="-333.9" font-family="Arial" font-size="14.00" fill="#000000">updated_at </text>
<text text-anchor="start" x="337.9326" y="-333.9" font-family="Arial" font-size="14.00" fill="#666666">[datetime(6)]</text>
<polygon fill="none" stroke="#000000" stroke-width="3" points="255.5,-321.5 255.5,-479.5 432.5,-479.5 432.5,-321.5 255.5,-321.5"/>
</g>
<!-- parents -->
<g id="node2" class="node">
<title>parents</title>
<polygon fill="#efefef" stroke="transparent" points="258,-162.5 258,-197.5 429,-197.5 429,-162.5 258,-162.5"/>
<polygon fill="none" stroke="#000000" points="258,-162.5 258,-197.5 429,-197.5 429,-162.5 258,-162.5"/>
<text text-anchor="start" x="264.8635" y="-175.3" font-family="Arial Bold" font-size="18.00" fill="#000000">parents</text>
<text text-anchor="start" x="324.8827" y="-175.3" font-family="Arial" font-size="14.00" fill="#000000"> </text>
<text text-anchor="start" x="328.7733" y="-175.3" font-family="Arial" font-size="14.00" fill="#666666">[BASE TABLE]</text>
<polygon fill="none" stroke="#000000" points="258,-132.5 258,-162.5 429,-162.5 429,-132.5 258,-132.5"/>
<text text-anchor="start" x="265" y="-143.9" font-family="Arial" font-size="14.00" fill="#000000">id </text>
<text text-anchor="start" x="279.7798" y="-143.9" font-family="Arial" font-size="14.00" fill="#666666">[bigint]</text>
<polygon fill="none" stroke="#000000" points="258,-102.5 258,-132.5 429,-132.5 429,-102.5 258,-102.5"/>
<text text-anchor="start" x="265" y="-113.9" font-family="Arial" font-size="14.00" fill="#000000">status </text>
<text text-anchor="start" x="306.237" y="-113.9" font-family="Arial" font-size="14.00" fill="#666666">[tinyint unsigned]</text>
<polygon fill="none" stroke="#000000" points="258,-72.5 258,-102.5 429,-102.5 429,-72.5 258,-72.5"/>
<text text-anchor="start" x="265" y="-83.9" font-family="Arial" font-size="14.00" fill="#000000">created_at </text>
<text text-anchor="start" x="335.028" y="-83.9" font-family="Arial" font-size="14.00" fill="#666666">[datetime(6)]</text>
<polygon fill="none" stroke="#000000" points="258,-42.5 258,-72.5 429,-72.5 429,-42.5 258,-42.5"/>
<text text-anchor="start" x="265" y="-53.9" font-family="Arial" font-size="14.00" fill="#000000">updated_at </text>
<text text-anchor="start" x="338.9326" y="-53.9" font-family="Arial" font-size="14.00" fill="#666666">[datetime(6)]</text>
</g>
<!-- children&#45;&gt;parents -->
<g id="edge1" class="edge">
<title>children:parent_id&#45;&gt;parents:id</title>
<path fill="none" stroke="#000000" d="M247.0262,-396.4306C206.2151,-386.8831 225.54,-315.7264 257,-277 306.245,-216.3808 379.755,-301.6192 429,-241 455.202,-208.746 470.5556,-147.5 429,-147.5"/>
<polygon fill="#000000" stroke="#000000" points="247.057,-396.4338 256.5202,-401.9744 252.0285,-396.9669 257,-397.5 257,-397.5 257,-397.5 252.0285,-396.9669 257.4798,-393.0256 247.057,-396.4338 247.057,-396.4338"/>
<text text-anchor="start" x="7.048" y="-407.5" font-family="Arial" font-size="10.00" fill="#000000">FOREIGN KEY (parent_id) REFERENCES parents (id)</text>
</g>
</g>
</svg>
