<?xml version="1.0" encoding="UTF-8" standalone="no"?>
<!DOCTYPE svg PUBLIC "-//W3C//DTD SVG 1.1//EN"
 "http://www.w3.org/Graphics/SVG/1.1/DTD/svg11.dtd">
<!-- Generated by graphviz version 2.40.1 (20161225.0304)
 -->
<!-- Title: fugas Pages: 1 -->
<svg width="465pt" height="682pt"
 viewBox="0.00 0.00 465.00 682.00" xmlns="http://www.w3.org/2000/svg" xmlns:xlink="http://www.w3.org/1999/xlink">
<g id="graph0" class="graph" transform="scale(1 1) rotate(0) translate(4 678)">
<title>fugas</title>
<polygon fill="#ffffff" stroke="transparent" points="-4,4 -4,-678 461,-678 461,4 -4,4"/>
<!-- fugas -->
<g id="node1" class="node">
<title>fugas</title>
<polygon fill="#efefef" stroke="transparent" points="46,-592.5 46,-627.5 212,-627.5 212,-592.5 46,-592.5"/>
<polygon fill="none" stroke="#000000" points="46,-592.5 46,-627.5 212,-627.5 212,-592.5 46,-592.5"/>
<text text-anchor="start" x="58.3627" y="-605.3" font-family="Arial Bold" font-size="18.00" fill="#000000">fugas</text>
<text text-anchor="start" x="102.3835" y="-605.3" font-family="Arial" font-size="14.00" fill="#000000"> </text>
<text text-anchor="start" x="106.2741" y="-605.3" font-family="Arial" font-size="14.00" fill="#666666">[BASE TABLE]</text>
<polygon fill="none" stroke="#000000" points="46,-562.5 46,-592.5 212,-592.5 212,-562.5 46,-562.5"/>
<text text-anchor="start" x="53" y="-573.9" font-family="Arial" font-size="14.00" fill="#000000">id </text>
<text text-anchor="start" x="67.7798" y="-573.9" font-family="Arial" font-size="14.00" fill="#666666">[bigint]</text>
<polygon fill="none" stroke="#000000" points="46,-532.5 46,-562.5 212,-562.5 212,-532.5 46,-532.5"/>
<text text-anchor="start" x="53" y="-543.9" font-family="Arial" font-size="14.00" fill="#000000">hoge_id </text>
<text text-anchor="start" x="106.6928" y="-543.9" font-family="Arial" font-size="14.00" fill="#666666">[bigint]</text>
<polygon fill="none" stroke="#000000" points="46,-502.5 46,-532.5 212,-532.5 212,-502.5 46,-502.5"/>
<text text-anchor="start" x="53" y="-513.9" font-family="Arial" font-size="14.00" fill="#000000">idx_num </text>
<text text-anchor="start" x="109.7882" y="-513.9" font-family="Arial" font-size="14.00" fill="#666666">[int]</text>
<polygon fill="none" stroke="#000000" points="46,-472.5 46,-502.5 212,-502.5 212,-472.5 46,-472.5"/>
<text text-anchor="start" x="53" y="-483.9" font-family="Arial" font-size="14.00" fill="#000000">num </text>
<text text-anchor="start" x="84.1164" y="-483.9" font-family="Arial" font-size="14.00" fill="#666666">[int]</text>
<polygon fill="none" stroke="#000000" points="46,-442.5 46,-472.5 212,-472.5 212,-442.5 46,-442.5"/>
<text text-anchor="start" x="53" y="-453.9" font-family="Arial" font-size="14.00" fill="#000000">name </text>
<text text-anchor="start" x="91.899" y="-453.9" font-family="Arial" font-size="14.00" fill="#666666">[varchar(255)]</text>
<polygon fill="none" stroke="#000000" points="46,-412.5 46,-442.5 212,-442.5 212,-412.5 46,-412.5"/>
<text text-anchor="start" x="53" y="-423.9" font-family="Arial" font-size="14.00" fill="#000000">created_at </text>
<text text-anchor="start" x="123.028" y="-423.9" font-family="Arial" font-size="14.00" fill="#666666">[datetime(6)]</text>
<polygon fill="none" stroke="#000000" points="46,-382.5 46,-412.5 212,-412.5 212,-382.5 46,-382.5"/>
<text text-anchor="start" x="52.7518" y="-393.9" font-family="Arial" font-size="14.00" fill="#000000">updated_at </text>
<text text-anchor="start" x="126.6844" y="-393.9" font-family="Arial" font-size="14.00" fill="#666666">[datetime(6)]</text>
<polygon fill="none" stroke="#000000" stroke-width="3" points="44.5,-381.5 44.5,-629.5 213.5,-629.5 213.5,-381.5 44.5,-381.5"/>
</g>
<!-- hoges -->
<g id="node2" class="node">
<title>hoges</title>
<polygon fill="#efefef" stroke="transparent" points="46,-222.5 46,-257.5 212,-257.5 212,-222.5 46,-222.5"/>
<polygon fill="none" stroke="#000000" points="46,-222.5 46,-257.5 212,-257.5 212,-222.5 46,-222.5"/>
<text text-anchor="start" x="55.8607" y="-235.3" font-family="Arial Bold" font-size="18.00" fill="#000000">hoges</text>
<text text-anchor="start" x="104.8855" y="-235.3" font-family="Arial" font-size="14.00" fill="#000000"> </text>
<text text-anchor="start" x="108.7761" y="-235.3" font-family="Arial" font-size="14.00" fill="#666666">[BASE TABLE]</text>
<polygon fill="none" stroke="#000000" points="46,-192.5 46,-222.5 212,-222.5 212,-192.5 46,-192.5"/>
<text text-anchor="start" x="53" y="-203.9" font-family="Arial" font-size="14.00" fill="#000000">id </text>
<text text-anchor="start" x="67.7798" y="-203.9" font-family="Arial" font-size="14.00" fill="#666666">[bigint]</text>
<polygon fill="none" stroke="#000000" points="46,-162.5 46,-192.5 212,-192.5 212,-162.5 46,-162.5"/>
<text text-anchor="start" x="53" y="-173.9" font-family="Arial" font-size="14.00" fill="#000000">idx_num </text>
<text text-anchor="start" x="109.7882" y="-173.9" font-family="Arial" font-size="14.00" fill="#666666">[int]</text>
<polygon fill="none" stroke="#000000" points="46,-132.5 46,-162.5 212,-162.5 212,-132.5 46,-132.5"/>
<text text-anchor="start" x="53" y="-143.9" font-family="Arial" font-size="14.00" fill="#000000">num </text>
<text text-anchor="start" x="84.1164" y="-143.9" font-family="Arial" font-size="14.00" fill="#666666">[int]</text>
<polygon fill="none" stroke="#000000" points="46,-102.5 46,-132.5 212,-132.5 212,-102.5 46,-102.5"/>
<text text-anchor="start" x="53" y="-113.9" font-family="Arial" font-size="14.00" fill="#000000">name </text>
<text text-anchor="start" x="91.899" y="-113.9" font-family="Arial" font-size="14.00" fill="#666666">[varchar(255)]</text>
<polygon fill="none" stroke="#000000" points="46,-72.5 46,-102.5 212,-102.5 212,-72.5 46,-72.5"/>
<text text-anchor="start" x="53" y="-83.9" font-family="Arial" font-size="14.00" fill="#000000">created_at </text>
<text text-anchor="start" x="123.028" y="-83.9" font-family="Arial" font-size="14.00" fill="#666666">[datetime(6)]</text>
<polygon fill="none" stroke="#000000" points="46,-42.5 46,-72.5 212,-72.5 212,-42.5 46,-42.5"/>
<text text-anchor="start" x="52.7518" y="-53.9" font-family="Arial" font-size="14.00" fill="#000000">updated_at </text>
<text text-anchor="start" x="126.6844" y="-53.9" font-family="Arial" font-size="14.00" fill="#666666">[datetime(6)]</text>
</g>
<!-- fugas&#45;&gt;hoges -->
<g id="edge1" class="edge">
<title>fugas:hoge_id&#45;&gt;hoges:id</title>
<path fill="none" stroke="#000000" d="M222.127,-545.3288C287.3895,-516.3721 284.0139,-207.5 212,-207.5"/>
<polygon fill="#000000" stroke="#000000" points="221.7778,-545.4036 211.0566,-543.1 216.8889,-546.4518 212,-547.5 212,-547.5 212,-547.5 216.8889,-546.4518 212.9434,-551.9 221.7778,-545.4036 221.7778,-545.4036"/>
<text text-anchor="start" x="219.156" y="-557.5" font-family="Arial" font-size="10.00" fill="#000000">FOREIGN KEY (hoge_id) REFERENCES hoges (id)</text>
</g>
</g>
</svg>
