<?xml version="1.0" encoding="UTF-8" standalone="no"?>
<!DOCTYPE svg PUBLIC "-//W3C//DTD SVG 1.1//EN"
 "http://www.w3.org/Graphics/SVG/1.1/DTD/svg11.dtd">
<!-- Generated by graphviz version 2.40.1 (20161225.0304)
 -->
<!-- Title: hoges Pages: 1 -->
<svg width="465pt" height="682pt"
 viewBox="0.00 0.00 465.00 682.00" xmlns="http://www.w3.org/2000/svg" xmlns:xlink="http://www.w3.org/1999/xlink">
<g id="graph0" class="graph" transform="scale(1 1) rotate(0) translate(4 678)">
<title>hoges</title>
<polygon fill="#ffffff" stroke="transparent" points="-4,4 -4,-678 461,-678 461,4 -4,4"/>
<!-- hoges -->
<g id="node1" class="node">
<title>hoges</title>
<polygon fill="#efefef" stroke="transparent" points="46,-225.5 46,-260.5 212,-260.5 212,-225.5 46,-225.5"/>
<polygon fill="none" stroke="#000000" points="46,-225.5 46,-260.5 212,-260.5 212,-225.5 46,-225.5"/>
<text text-anchor="start" x="55.8607" y="-238.3" font-family="Arial Bold" font-size="18.00" fill="#000000">hoges</text>
<text text-anchor="start" x="104.8855" y="-238.3" font-family="Arial" font-size="14.00" fill="#000000"> </text>
<text text-anchor="start" x="108.7761" y="-238.3" font-family="Arial" font-size="14.00" fill="#666666">[BASE TABLE]</text>
<polygon fill="none" stroke="#000000" points="46,-195.5 46,-225.5 212,-225.5 212,-195.5 46,-195.5"/>
<text text-anchor="start" x="53" y="-206.9" font-family="Arial" font-size="14.00" fill="#000000">id </text>
<text text-anchor="start" x="67.7798" y="-206.9" font-family="Arial" font-size="14.00" fill="#666666">[bigint]</text>
<polygon fill="none" stroke="#000000" points="46,-165.5 46,-195.5 212,-195.5 212,-165.5 46,-165.5"/>
<text text-anchor="start" x="53" y="-176.9" font-family="Arial" font-size="14.00" fill="#000000">idx_num </text>
<text text-anchor="start" x="109.7882" y="-176.9" font-family="Arial" font-size="14.00" fill="#666666">[int]</text>
<polygon fill="none" stroke="#000000" points="46,-135.5 46,-165.5 212,-165.5 212,-135.5 46,-135.5"/>
<text text-anchor="start" x="53" y="-146.9" font-family="Arial" font-size="14.00" fill="#000000">num </text>
<text text-anchor="start" x="84.1164" y="-146.9" font-family="Arial" font-size="14.00" fill="#666666">[int]</text>
<polygon fill="none" stroke="#000000" points="46,-105.5 46,-135.5 212,-135.5 212,-105.5 46,-105.5"/>
<text text-anchor="start" x="53" y="-116.9" font-family="Arial" font-size="14.00" fill="#000000">name </text>
<text text-anchor="start" x="91.899" y="-116.9" font-family="Arial" font-size="14.00" fill="#666666">[varchar(255)]</text>
<polygon fill="none" stroke="#000000" points="46,-75.5 46,-105.5 212,-105.5 212,-75.5 46,-75.5"/>
<text text-anchor="start" x="53" y="-86.9" font-family="Arial" font-size="14.00" fill="#000000">created_at </text>
<text text-anchor="start" x="123.028" y="-86.9" font-family="Arial" font-size="14.00" fill="#666666">[datetime(6)]</text>
<polygon fill="none" stroke="#000000" points="46,-45.5 46,-75.5 212,-75.5 212,-45.5 46,-45.5"/>
<text text-anchor="start" x="52.7518" y="-56.9" font-family="Arial" font-size="14.00" fill="#000000">updated_at </text>
<text text-anchor="start" x="126.6844" y="-56.9" font-family="Arial" font-size="14.00" fill="#666666">[datetime(6)]</text>
<polygon fill="none" stroke="#000000" stroke-width="3" points="44.5,-44.5 44.5,-262.5 213.5,-262.5 213.5,-44.5 44.5,-44.5"/>
</g>
<!-- fugas -->
<g id="node2" class="node">
<title>fugas</title>
<polygon fill="#efefef" stroke="transparent" points="46,-595.5 46,-630.5 212,-630.5 212,-595.5 46,-595.5"/>
<polygon fill="none" stroke="#000000" points="46,-595.5 46,-630.5 212,-630.5 212,-595.5 46,-595.5"/>
<text text-anchor="start" x="58.3627" y="-608.3" font-family="Arial Bold" font-size="18.00" fill="#000000">fugas</text>
<text text-anchor="start" x="102.3835" y="-608.3" font-family="Arial" font-size="14.00" fill="#000000"> </text>
<text text-anchor="start" x="106.2741" y="-608.3" font-family="Arial" font-size="14.00" fill="#666666">[BASE TABLE]</text>
<polygon fill="none" stroke="#000000" points="46,-565.5 46,-595.5 212,-595.5 212,-565.5 46,-565.5"/>
<text text-anchor="start" x="53" y="-576.9" font-family="Arial" font-size="14.00" fill="#000000">id </text>
<text text-anchor="start" x="67.7798" y="-576.9" font-family="Arial" font-size="14.00" fill="#666666">[bigint]</text>
<polygon fill="none" stroke="#000000" points="46,-535.5 46,-565.5 212,-565.5 212,-535.5 46,-535.5"/>
<text text-anchor="start" x="53" y="-546.9" font-family="Arial" font-size="14.00" fill="#000000">hoge_id </text>
<text text-anchor="start" x="106.6928" y="-546.9" font-family="Arial" font-size="14.00" fill="#666666">[bigint]</text>
<polygon fill="none" stroke="#000000" points="46,-505.5 46,-535.5 212,-535.5 212,-505.5 46,-505.5"/>
<text text-anchor="start" x="53" y="-516.9" font-family="Arial" font-size="14.00" fill="#000000">idx_num </text>
<text text-anchor="start" x="109.7882" y="-516.9" font-family="Arial" font-size="14.00" fill="#666666">[int]</text>
<polygon fill="none" stroke="#000000" points="46,-475.5 46,-505.5 212,-505.5 212,-475.5 46,-475.5"/>
<text text-anchor="start" x="53" y="-486.9" font-family="Arial" font-size="14.00" fill="#000000">num </text>
<text text-anchor="start" x="84.1164" y="-486.9" font-family="Arial" font-size="14.00" fill="#666666">[int]</text>
<polygon fill="none" stroke="#000000" points="46,-445.5 46,-475.5 212,-475.5 212,-445.5 46,-445.5"/>
<text text-anchor="start" x="53" y="-456.9" font-family="Arial" font-size="14.00" fill="#000000">name </text>
<text text-anchor="start" x="91.899" y="-456.9" font-family="Arial" font-size="14.00" fill="#666666">[varchar(255)]</text>
<polygon fill="none" stroke="#000000" points="46,-415.5 46,-445.5 212,-445.5 212,-415.5 46,-415.5"/>
<text text-anchor="start" x="53" y="-426.9" font-family="Arial" font-size="14.00" fill="#000000">created_at </text>
<text text-anchor="start" x="123.028" y="-426.9" font-family="Arial" font-size="14.00" fill="#666666">[datetime(6)]</text>
<polygon fill="none" stroke="#000000" points="46,-385.5 46,-415.5 212,-415.5 212,-385.5 46,-385.5"/>
<text text-anchor="start" x="52.7518" y="-396.9" font-family="Arial" font-size="14.00" fill="#000000">updated_at </text>
<text text-anchor="start" x="126.6844" y="-396.9" font-family="Arial" font-size="14.00" fill="#666666">[datetime(6)]</text>
</g>
<!-- fugas&#45;&gt;hoges -->
<g id="edge1" class="edge">
<title>fugas:hoge_id&#45;&gt;hoges:id</title>
<path fill="none" stroke="#000000" d="M222.127,-548.3288C287.3895,-519.3721 284.0139,-210.5 212,-210.5"/>
<polygon fill="#000000" stroke="#000000" points="221.7778,-548.4036 211.0566,-546.1 216.8889,-549.4518 212,-550.5 212,-550.5 212,-550.5 216.8889,-549.4518 212.9434,-554.9 221.7778,-548.4036 221.7778,-548.4036"/>
<text text-anchor="start" x="219.156" y="-560.5" font-family="Arial" font-size="10.00" fill="#000000">FOREIGN KEY (hoge_id) REFERENCES hoges (id)</text>
</g>
</g>
</svg>
