<?xml version="1.0" encoding="UTF-8" standalone="no"?>
<!DOCTYPE svg PUBLIC "-//W3C//DTD SVG 1.1//EN"
 "http://www.w3.org/Graphics/SVG/1.1/DTD/svg11.dtd">
<!-- Generated by graphviz version 2.40.1 (20161225.0304)
 -->
<!-- Title: parents Pages: 1 -->
<svg width="483pt" height="532pt"
 viewBox="0.00 0.00 482.50 532.00" xmlns="http://www.w3.org/2000/svg" xmlns:xlink="http://www.w3.org/1999/xlink">
<g id="graph0" class="graph" transform="scale(1 1) rotate(0) translate(4 528)">
<title>parents</title>
<polygon fill="#ffffff" stroke="transparent" points="-4,4 -4,-528 478.5,-528 478.5,4 -4,4"/>
<!-- parents -->
<g id="node1" class="node">
<title>parents</title>
<polygon fill="#efefef" stroke="transparent" points="258,-165.5 258,-200.5 429,-200.5 429,-165.5 258,-165.5"/>
<polygon fill="none" stroke="#000000" points="258,-165.5 258,-200.5 429,-200.5 429,-165.5 258,-165.5"/>
<text text-anchor="start" x="264.8635" y="-178.3" font-family="Arial Bold" font-size="18.00" fill="#000000">parents</text>
<text text-anchor="start" x="324.8827" y="-178.3" font-family="Arial" font-size="14.00" fill="#000000"> </text>
<text text-anchor="start" x="328.7733" y="-178.3" font-family="Arial" font-size="14.00" fill="#666666">[BASE TABLE]</text>
<polygon fill="none" stroke="#000000" points="258,-135.5 258,-165.5 429,-165.5 429,-135.5 258,-135.5"/>
<text text-anchor="start" x="265" y="-146.9" font-family="Arial" font-size="14.00" fill="#000000">id </text>
<text text-anchor="start" x="279.7798" y="-146.9" font-family="Arial" font-size="14.00" fill="#666666">[bigint]</text>
<polygon fill="none" stroke="#000000" points="258,-105.5 258,-135.5 429,-135.5 429,-105.5 258,-105.5"/>
<text text-anchor="start" x="265" y="-116.9" font-family="Arial" font-size="14.00" fill="#000000">status </text>
<text text-anchor="start" x="306.237" y="-116.9" font-family="Arial" font-size="14.00" fill="#666666">[tinyint unsigned]</text>
<polygon fill="none" stroke="#000000" points="258,-75.5 258,-105.5 429,-105.5 429,-75.5 258,-75.5"/>
<text text-anchor="start" x="265" y="-86.9" font-family="Arial" font-size="14.00" fill="#000000">created_at </text>
<text text-anchor="start" x="335.028" y="-86.9" font-family="Arial" font-size="14.00" fill="#666666">[datetime(6)]</text>
<polygon fill="none" stroke="#000000" points="258,-45.5 258,-75.5 429,-75.5 429,-45.5 258,-45.5"/>
<text text-anchor="start" x="265" y="-56.9" font-family="Arial" font-size="14.00" fill="#000000">updated_at </text>
<text text-anchor="start" x="338.9326" y="-56.9" font-family="Arial" font-size="14.00" fill="#666666">[datetime(6)]</text>
<polygon fill="none" stroke="#000000" stroke-width="3" points="256,-44.5 256,-202.5 430,-202.5 430,-44.5 256,-44.5"/>
</g>
<!-- children -->
<g id="node2" class="node">
<title>children</title>
<polygon fill="#efefef" stroke="transparent" points="257,-445.5 257,-480.5 431,-480.5 431,-445.5 257,-445.5"/>
<polygon fill="none" stroke="#000000" points="257,-445.5 257,-480.5 431,-480.5 431,-445.5 257,-445.5"/>
<text text-anchor="start" x="263.8704" y="-458.3" font-family="Arial Bold" font-size="18.00" fill="#000000">children</text>
<text text-anchor="start" x="326.8758" y="-458.3" font-family="Arial" font-size="14.00" fill="#000000"> </text>
<text text-anchor="start" x="330.7664" y="-458.3" font-family="Arial" font-size="14.00" fill="#666666">[BASE TABLE]</text>
<polygon fill="none" stroke="#000000" points="257,-415.5 257,-445.5 431,-445.5 431,-415.5 257,-415.5"/>
<text text-anchor="start" x="264" y="-426.9" font-family="Arial" font-size="14.00" fill="#000000">id </text>
<text text-anchor="start" x="278.7798" y="-426.9" font-family="Arial" font-size="14.00" fill="#666666">[bigint]</text>
<polygon fill="none" stroke="#000000" points="257,-385.5 257,-415.5 431,-415.5 431,-385.5 257,-385.5"/>
<text text-anchor="start" x="264" y="-396.9" font-family="Arial" font-size="14.00" fill="#000000">parent_id </text>
<text text-anchor="start" x="326.244" y="-396.9" font-family="Arial" font-size="14.00" fill="#666666">[bigint]</text>
<polygon fill="none" stroke="#000000" points="257,-355.5 257,-385.5 431,-385.5 431,-355.5 257,-355.5"/>
<text text-anchor="start" x="264" y="-366.9" font-family="Arial" font-size="14.00" fill="#000000">created_at </text>
<text text-anchor="start" x="334.028" y="-366.9" font-family="Arial" font-size="14.00" fill="#666666">[datetime(6)]</text>
<polygon fill="none" stroke="#000000" points="257,-325.5 257,-355.5 431,-355.5 431,-325.5 257,-325.5"/>
<text text-anchor="start" x="264" y="-336.9" font-family="Arial" font-size="14.00" fill="#000000">updated_at </text>
<text text-anchor="start" x="337.9326" y="-336.9" font-family="Arial" font-size="14.00" fill="#666666">[datetime(6)]</text>
</g>
<!-- children&#45;&gt;parents -->
<g id="edge1" class="edge">
<title>children:parent_id&#45;&gt;parents:id</title>
<path fill="none" stroke="#000000" d="M247.025,-399.3979C207.5585,-389.8566 226.3875,-320.6831 257,-283 306.245,-222.3808 379.755,-307.6192 429,-247 456.0427,-213.7112 471.8889,-150.5 429,-150.5"/>
<polygon fill="#000000" stroke="#000000" points="247.0605,-399.4017 256.5058,-404.9728 252.0302,-399.9509 257,-400.5 257,-400.5 257,-400.5 252.0302,-399.9509 257.4942,-396.0272 247.0605,-399.4017 247.0605,-399.4017"/>
<text text-anchor="start" x="7.048" y="-410.5" font-family="Arial" font-size="10.00" fill="#000000">FOREIGN KEY (parent_id) REFERENCES parents (id)</text>
</g>
</g>
</svg>
