<?xml version="1.0" encoding="UTF-8" standalone="no"?>
<!DOCTYPE svg PUBLIC "-//W3C//DTD SVG 1.1//EN"
 "http://www.w3.org/Graphics/SVG/1.1/DTD/svg11.dtd">
<!-- Generated by graphviz version 2.40.1 (20161225.0304)
 -->
<!-- Title: parents Pages: 1 -->
<svg width="974pt" height="532pt"
 viewBox="0.00 0.00 973.50 532.00" xmlns="http://www.w3.org/2000/svg" xmlns:xlink="http://www.w3.org/1999/xlink">
<g id="graph0" class="graph" transform="scale(1 1) rotate(0) translate(4 528)">
<title>parents</title>
<polygon fill="#ffffff" stroke="transparent" points="-4,4 -4,-528 969.5,-528 969.5,4 -4,4"/>
<!-- parents -->
<g id="node1" class="node">
<title>parents</title>
<polygon fill="#efefef" stroke="transparent" points="399.5,-165.5 399.5,-200.5 570.5,-200.5 570.5,-165.5 399.5,-165.5"/>
<polygon fill="none" stroke="#000000" points="399.5,-165.5 399.5,-200.5 570.5,-200.5 570.5,-165.5 399.5,-165.5"/>
<text text-anchor="start" x="406.3635" y="-178.3" font-family="Arial Bold" font-size="18.00" fill="#000000">parents</text>
<text text-anchor="start" x="466.3827" y="-178.3" font-family="Arial" font-size="14.00" fill="#000000"> </text>
<text text-anchor="start" x="470.2733" y="-178.3" font-family="Arial" font-size="14.00" fill="#666666">[BASE TABLE]</text>
<polygon fill="none" stroke="#000000" points="399.5,-135.5 399.5,-165.5 570.5,-165.5 570.5,-135.5 399.5,-135.5"/>
<text text-anchor="start" x="406.5" y="-146.9" font-family="Arial" font-size="14.00" fill="#000000">id </text>
<text text-anchor="start" x="421.2798" y="-146.9" font-family="Arial" font-size="14.00" fill="#666666">[bigint]</text>
<polygon fill="none" stroke="#000000" points="399.5,-105.5 399.5,-135.5 570.5,-135.5 570.5,-105.5 399.5,-105.5"/>
<text text-anchor="start" x="406.5" y="-116.9" font-family="Arial" font-size="14.00" fill="#000000">status </text>
<text text-anchor="start" x="447.737" y="-116.9" font-family="Arial" font-size="14.00" fill="#666666">[tinyint unsigned]</text>
<polygon fill="none" stroke="#000000" points="399.5,-75.5 399.5,-105.5 570.5,-105.5 570.5,-75.5 399.5,-75.5"/>
<text text-anchor="start" x="406.5" y="-86.9" font-family="Arial" font-size="14.00" fill="#000000">created_at </text>
<text text-anchor="start" x="476.528" y="-86.9" font-family="Arial" font-size="14.00" fill="#666666">[datetime(6)]</text>
<polygon fill="none" stroke="#000000" points="399.5,-45.5 399.5,-75.5 570.5,-75.5 570.5,-45.5 399.5,-45.5"/>
<text text-anchor="start" x="406.5" y="-56.9" font-family="Arial" font-size="14.00" fill="#000000">updated_at </text>
<text text-anchor="start" x="480.4326" y="-56.9" font-family="Arial" font-size="14.00" fill="#666666">[datetime(6)]</text>
<polygon fill="none" stroke="#000000" stroke-width="3" points="397.5,-44.5 397.5,-202.5 571.5,-202.5 571.5,-44.5 397.5,-44.5"/>
</g>
<!-- cascade_children -->
<g id="node2" class="node">
<title>cascade_children</title>
<polygon fill="#efefef" stroke="transparent" points="43.5,-445.5 43.5,-480.5 294.5,-480.5 294.5,-445.5 43.5,-445.5"/>
<polygon fill="none" stroke="#000000" points="43.5,-445.5 43.5,-480.5 294.5,-480.5 294.5,-445.5 43.5,-445.5"/>
<text text-anchor="start" x="50.3549" y="-458.3" font-family="Arial Bold" font-size="18.00" fill="#000000">cascade_children</text>
<text text-anchor="start" x="190.3913" y="-458.3" font-family="Arial" font-size="14.00" fill="#000000"> </text>
<text text-anchor="start" x="194.2819" y="-458.3" font-family="Arial" font-size="14.00" fill="#666666">[BASE TABLE]</text>
<polygon fill="none" stroke="#000000" points="43.5,-415.5 43.5,-445.5 294.5,-445.5 294.5,-415.5 43.5,-415.5"/>
<text text-anchor="start" x="50.5" y="-426.9" font-family="Arial" font-size="14.00" fill="#000000">id </text>
<text text-anchor="start" x="65.2798" y="-426.9" font-family="Arial" font-size="14.00" fill="#666666">[bigint]</text>
<polygon fill="none" stroke="#000000" points="43.5,-385.5 43.5,-415.5 294.5,-415.5 294.5,-385.5 43.5,-385.5"/>
<text text-anchor="start" x="50.5" y="-396.9" font-family="Arial" font-size="14.00" fill="#000000">parent_id </text>
<text text-anchor="start" x="112.744" y="-396.9" font-family="Arial" font-size="14.00" fill="#666666">[bigint]</text>
<polygon fill="none" stroke="#000000" points="43.5,-355.5 43.5,-385.5 294.5,-385.5 294.5,-355.5 43.5,-355.5"/>
<text text-anchor="start" x="50.5" y="-366.9" font-family="Arial" font-size="14.00" fill="#000000">created_at </text>
<text text-anchor="start" x="120.528" y="-366.9" font-family="Arial" font-size="14.00" fill="#666666">[datetime(6)]</text>
<polygon fill="none" stroke="#000000" points="43.5,-325.5 43.5,-355.5 294.5,-355.5 294.5,-325.5 43.5,-325.5"/>
<text text-anchor="start" x="50.5" y="-336.9" font-family="Arial" font-size="14.00" fill="#000000">updated_at </text>
<text text-anchor="start" x="124.4326" y="-336.9" font-family="Arial" font-size="14.00" fill="#666666">[datetime(6)]</text>
</g>
<!-- cascade_children&#45;&gt;parents -->
<g id="edge1" class="edge">
<title>cascade_children:parent_id&#45;&gt;parents:id</title>
<path fill="none" stroke="#000000" d="M304.3421,-398.0257C353.1988,-372.0614 342.774,-150.5 399.5,-150.5"/>
<polygon fill="#000000" stroke="#000000" points="304.1982,-398.0618 293.4028,-396.1358 299.3491,-399.2809 294.5,-400.5 294.5,-400.5 294.5,-400.5 299.3491,-399.2809 295.5972,-404.8642 304.1982,-398.0618 304.1982,-398.0618"/>
<text text-anchor="start" x="301.548" y="-410.5" font-family="Arial" font-size="10.00" fill="#000000">FOREIGN KEY (parent_id) REFERENCES parents (id)</text>
</g>
<!-- children -->
<g id="node3" class="node">
<title>children</title>
<polygon fill="#efefef" stroke="transparent" points="398.5,-445.5 398.5,-480.5 572.5,-480.5 572.5,-445.5 398.5,-445.5"/>
<polygon fill="none" stroke="#000000" points="398.5,-445.5 398.5,-480.5 572.5,-480.5 572.5,-445.5 398.5,-445.5"/>
<text text-anchor="start" x="405.3704" y="-458.3" font-family="Arial Bold" font-size="18.00" fill="#000000">children</text>
<text text-anchor="start" x="468.3758" y="-458.3" font-family="Arial" font-size="14.00" fill="#000000"> </text>
<text text-anchor="start" x="472.2664" y="-458.3" font-family="Arial" font-size="14.00" fill="#666666">[BASE TABLE]</text>
<polygon fill="none" stroke="#000000" points="398.5,-415.5 398.5,-445.5 572.5,-445.5 572.5,-415.5 398.5,-415.5"/>
<text text-anchor="start" x="405.5" y="-426.9" font-family="Arial" font-size="14.00" fill="#000000">id </text>
<text text-anchor="start" x="420.2798" y="-426.9" font-family="Arial" font-size="14.00" fill="#666666">[bigint]</text>
<polygon fill="none" stroke="#000000" points="398.5,-385.5 398.5,-415.5 572.5,-415.5 572.5,-385.5 398.5,-385.5"/>
<text text-anchor="start" x="405.5" y="-396.9" font-family="Arial" font-size="14.00" fill="#000000">parent_id </text>
<text text-anchor="start" x="467.744" y="-396.9" font-family="Arial" font-size="14.00" fill="#666666">[bigint]</text>
<polygon fill="none" stroke="#000000" points="398.5,-355.5 398.5,-385.5 572.5,-385.5 572.5,-355.5 398.5,-355.5"/>
<text text-anchor="start" x="405.5" y="-366.9" font-family="Arial" font-size="14.00" fill="#000000">created_at </text>
<text text-anchor="start" x="475.528" y="-366.9" font-family="Arial" font-size="14.00" fill="#666666">[datetime(6)]</text>
<polygon fill="none" stroke="#000000" points="398.5,-325.5 398.5,-355.5 572.5,-355.5 572.5,-325.5 398.5,-325.5"/>
<text text-anchor="start" x="405.5" y="-336.9" font-family="Arial" font-size="14.00" fill="#000000">updated_at </text>
<text text-anchor="start" x="479.4326" y="-336.9" font-family="Arial" font-size="14.00" fill="#666666">[datetime(6)]</text>
</g>
<!-- children&#45;&gt;parents -->
<g id="edge2" class="edge">
<title>children:parent_id&#45;&gt;parents:id</title>
<path fill="none" stroke="#000000" d="M388.525,-399.3979C349.0585,-389.8566 367.8875,-320.6831 398.5,-283 447.745,-222.3808 521.255,-307.6192 570.5,-247 597.5427,-213.7112 613.3889,-150.5 570.5,-150.5"/>
<polygon fill="#000000" stroke="#000000" points="388.5605,-399.4017 398.0058,-404.9728 393.5302,-399.9509 398.5,-400.5 398.5,-400.5 398.5,-400.5 393.5302,-399.9509 398.9942,-396.0272 388.5605,-399.4017 388.5605,-399.4017"/>
<text text-anchor="start" x="212.798" y="-384.5" font-family="Arial" font-size="10.00" fill="#000000">FOREIGN KEY (parent_id) REFERENCES parents (id)</text>
</g>
<!-- set_null_children -->
<g id="node4" class="node">
<title>set_null_children</title>
<polygon fill="#efefef" stroke="transparent" points="676.5,-445.5 676.5,-480.5 922.5,-480.5 922.5,-445.5 676.5,-445.5"/>
<polygon fill="none" stroke="#000000" points="676.5,-445.5 676.5,-480.5 922.5,-480.5 922.5,-445.5 676.5,-445.5"/>
<text text-anchor="start" x="683.3596" y="-458.3" font-family="Arial Bold" font-size="18.00" fill="#000000">set_null_children</text>
<text text-anchor="start" x="818.3866" y="-458.3" font-family="Arial" font-size="14.00" fill="#000000"> </text>
<text text-anchor="start" x="822.2772" y="-458.3" font-family="Arial" font-size="14.00" fill="#666666">[BASE TABLE]</text>
<polygon fill="none" stroke="#000000" points="676.5,-415.5 676.5,-445.5 922.5,-445.5 922.5,-415.5 676.5,-415.5"/>
<text text-anchor="start" x="683.5" y="-426.9" font-family="Arial" font-size="14.00" fill="#000000">id </text>
<text text-anchor="start" x="698.2798" y="-426.9" font-family="Arial" font-size="14.00" fill="#666666">[bigint]</text>
<polygon fill="none" stroke="#000000" points="676.5,-385.5 676.5,-415.5 922.5,-415.5 922.5,-385.5 676.5,-385.5"/>
<text text-anchor="start" x="683.5" y="-396.9" font-family="Arial" font-size="14.00" fill="#000000">parent_id </text>
<text text-anchor="start" x="745.744" y="-396.9" font-family="Arial" font-size="14.00" fill="#666666">[bigint]</text>
<polygon fill="none" stroke="#000000" points="676.5,-355.5 676.5,-385.5 922.5,-385.5 922.5,-355.5 676.5,-355.5"/>
<text text-anchor="start" x="683.5" y="-366.9" font-family="Arial" font-size="14.00" fill="#000000">created_at </text>
<text text-anchor="start" x="753.528" y="-366.9" font-family="Arial" font-size="14.00" fill="#666666">[datetime(6)]</text>
<polygon fill="none" stroke="#000000" points="676.5,-325.5 676.5,-355.5 922.5,-355.5 922.5,-325.5 676.5,-325.5"/>
<text text-anchor="start" x="683.5" y="-336.9" font-family="Arial" font-size="14.00" fill="#000000">updated_at </text>
<text text-anchor="start" x="757.4326" y="-336.9" font-family="Arial" font-size="14.00" fill="#666666">[datetime(6)]</text>
</g>
<!-- set_null_children&#45;&gt;parents -->
<g id="edge3" class="edge">
<title>set_null_children:parent_id&#45;&gt;parents:id</title>
<path fill="none" stroke="#000000" d="M666.6354,-398.0257C617.6204,-372.0614 627.3073,-150.5 570.5,-150.5"/>
<polygon fill="#000000" stroke="#000000" points="666.8005,-398.067 675.4051,-404.8648 671.6502,-399.2835 676.5,-400.5 676.5,-400.5 676.5,-400.5 671.6502,-399.2835 677.5949,-396.1352 666.8005,-398.067 666.8005,-398.067"/>
<text text-anchor="start" x="683.548" y="-410.5" font-family="Arial" font-size="10.00" fill="#000000">FOREIGN KEY (parent_id) REFERENCES parents (id)</text>
</g>
</g>
</svg>
