<?xml version="1.0" encoding="UTF-8" standalone="no"?>
<!DOCTYPE svg PUBLIC "-//W3C//DTD SVG 1.1//EN"
 "http://www.w3.org/Graphics/SVG/1.1/DTD/svg11.dtd">
<!-- Generated by graphviz version 2.40.1 (20161225.0304)
 -->
<!-- Title: portfolios Pages: 1 -->
<svg width="478pt" height="682pt"
 viewBox="0.00 0.00 478.00 682.00" xmlns="http://www.w3.org/2000/svg" xmlns:xlink="http://www.w3.org/1999/xlink">
<g id="graph0" class="graph" transform="scale(1 1) rotate(0) translate(4 678)">
<title>portfolios</title>
<polygon fill="#ffffff" stroke="transparent" points="-4,4 -4,-678 474,-678 474,4 -4,4"/>
<!-- portfolios -->
<g id="node1" class="node">
<title>portfolios</title>
<polygon fill="#efefef" stroke="transparent" points="46,-592.5 46,-627.5 230,-627.5 230,-592.5 46,-592.5"/>
<polygon fill="none" stroke="#000000" points="46,-592.5 46,-627.5 230,-627.5 230,-592.5 46,-592.5"/>
<text text-anchor="start" x="52.8682" y="-605.3" font-family="Arial Bold" font-size="18.00" fill="#000000">portfolios</text>
<text text-anchor="start" x="125.878" y="-605.3" font-family="Arial" font-size="14.00" fill="#000000"> </text>
<text text-anchor="start" x="129.7686" y="-605.3" font-family="Arial" font-size="14.00" fill="#666666">[BASE TABLE]</text>
<polygon fill="none" stroke="#000000" points="46,-562.5 46,-592.5 230,-592.5 230,-562.5 46,-562.5"/>
<text text-anchor="start" x="53" y="-573.9" font-family="Arial" font-size="14.00" fill="#000000">id </text>
<text text-anchor="start" x="67.7798" y="-573.9" font-family="Arial" font-size="14.00" fill="#666666">[bigint]</text>
<polygon fill="none" stroke="#000000" points="46,-532.5 46,-562.5 230,-562.5 230,-532.5 46,-532.5"/>
<text text-anchor="start" x="53" y="-543.9" font-family="Arial" font-size="14.00" fill="#000000">user_id </text>
<text text-anchor="start" x="102.7882" y="-543.9" font-family="Arial" font-size="14.00" fill="#666666">[bigint]</text>
<polygon fill="none" stroke="#000000" points="46,-502.5 46,-532.5 230,-532.5 230,-502.5 46,-502.5"/>
<text text-anchor="start" x="53" y="-513.9" font-family="Arial" font-size="14.00" fill="#000000">name </text>
<text text-anchor="start" x="91.899" y="-513.9" font-family="Arial" font-size="14.00" fill="#666666">[varchar(255)]</text>
<polygon fill="none" stroke="#000000" points="46,-472.5 46,-502.5 230,-502.5 230,-472.5 46,-472.5"/>
<text text-anchor="start" x="53" y="-483.9" font-family="Arial" font-size="14.00" fill="#000000">url </text>
<text text-anchor="start" x="72.4404" y="-483.9" font-family="Arial" font-size="14.00" fill="#666666">[varchar(255)]</text>
<polygon fill="none" stroke="#000000" points="46,-442.5 46,-472.5 230,-472.5 230,-442.5 46,-442.5"/>
<text text-anchor="start" x="53" y="-453.9" font-family="Arial" font-size="14.00" fill="#000000">created_at </text>
<text text-anchor="start" x="123.028" y="-453.9" font-family="Arial" font-size="14.00" fill="#666666">[datetime(6)]</text>
<polygon fill="none" stroke="#000000" points="46,-412.5 46,-442.5 230,-442.5 230,-412.5 46,-412.5"/>
<text text-anchor="start" x="53" y="-423.9" font-family="Arial" font-size="14.00" fill="#000000">updated_at </text>
<text text-anchor="start" x="126.9326" y="-423.9" font-family="Arial" font-size="14.00" fill="#666666">[datetime(6)]</text>
<polygon fill="none" stroke="#000000" stroke-width="3" points="44.5,-411.5 44.5,-629.5 231.5,-629.5 231.5,-411.5 44.5,-411.5"/>
</g>
<!-- users -->
<g id="node2" class="node">
<title>users</title>
<polygon fill="#efefef" stroke="transparent" points="55,-252.5 55,-287.5 221,-287.5 221,-252.5 55,-252.5"/>
<polygon fill="none" stroke="#000000" points="55,-252.5 55,-287.5 221,-287.5 221,-252.5 55,-252.5"/>
<text text-anchor="start" x="67.3708" y="-265.3" font-family="Arial Bold" font-size="18.00" fill="#000000">users</text>
<text text-anchor="start" x="111.3754" y="-265.3" font-family="Arial" font-size="14.00" fill="#000000"> </text>
<text text-anchor="start" x="115.266" y="-265.3" font-family="Arial" font-size="14.00" fill="#666666">[BASE TABLE]</text>
<polygon fill="none" stroke="#000000" points="55,-222.5 55,-252.5 221,-252.5 221,-222.5 55,-222.5"/>
<text text-anchor="start" x="62" y="-233.9" font-family="Arial" font-size="14.00" fill="#000000">id </text>
<text text-anchor="start" x="76.7798" y="-233.9" font-family="Arial" font-size="14.00" fill="#666666">[bigint]</text>
<polygon fill="none" stroke="#000000" points="55,-192.5 55,-222.5 221,-222.5 221,-192.5 55,-192.5"/>
<text text-anchor="start" x="62" y="-203.9" font-family="Arial" font-size="14.00" fill="#000000">email </text>
<text text-anchor="start" x="99.3296" y="-203.9" font-family="Arial" font-size="14.00" fill="#666666">[varchar(255)]</text>
<polygon fill="none" stroke="#000000" points="55,-162.5 55,-192.5 221,-192.5 221,-162.5 55,-162.5"/>
<text text-anchor="start" x="62" y="-173.9" font-family="Arial" font-size="14.00" fill="#000000">name </text>
<text text-anchor="start" x="100.899" y="-173.9" font-family="Arial" font-size="14.00" fill="#666666">[varchar(255)]</text>
<polygon fill="none" stroke="#000000" points="55,-132.5 55,-162.5 221,-162.5 221,-132.5 55,-132.5"/>
<text text-anchor="start" x="62" y="-143.9" font-family="Arial" font-size="14.00" fill="#000000">locale </text>
<text text-anchor="start" x="102.4516" y="-143.9" font-family="Arial" font-size="14.00" fill="#666666">[int]</text>
<polygon fill="none" stroke="#000000" points="55,-102.5 55,-132.5 221,-132.5 221,-102.5 55,-102.5"/>
<text text-anchor="start" x="62" y="-113.9" font-family="Arial" font-size="14.00" fill="#000000">nickname </text>
<text text-anchor="start" x="125.7882" y="-113.9" font-family="Arial" font-size="14.00" fill="#666666">[varchar(255)]</text>
<polygon fill="none" stroke="#000000" points="55,-72.5 55,-102.5 221,-102.5 221,-72.5 55,-72.5"/>
<text text-anchor="start" x="62" y="-83.9" font-family="Arial" font-size="14.00" fill="#000000">created_at </text>
<text text-anchor="start" x="132.028" y="-83.9" font-family="Arial" font-size="14.00" fill="#666666">[datetime(6)]</text>
<polygon fill="none" stroke="#000000" points="55,-42.5 55,-72.5 221,-72.5 221,-42.5 55,-42.5"/>
<text text-anchor="start" x="61.7518" y="-53.9" font-family="Arial" font-size="14.00" fill="#000000">updated_at </text>
<text text-anchor="start" x="135.6844" y="-53.9" font-family="Arial" font-size="14.00" fill="#666666">[datetime(6)]</text>
</g>
<!-- portfolios&#45;&gt;users -->
<g id="edge1" class="edge">
<title>portfolios:user_id&#45;&gt;users:id</title>
<path fill="none" stroke="#000000" d="M239.8988,-545.183C297.8493,-516.815 286.4182,-237.5 221,-237.5"/>
<polygon fill="#000000" stroke="#000000" points="239.7368,-545.2208 228.9744,-543.1184 234.8684,-546.3604 230,-547.5 230,-547.5 230,-547.5 234.8684,-546.3604 231.0256,-551.8816 239.7368,-545.2208 239.7368,-545.2208"/>
<text text-anchor="start" x="236.945" y="-557.5" font-family="Arial" font-size="10.00" fill="#000000">FOREIGN KEY (user_id) REFERENCES users (id)</text>
</g>
</g>
</svg>
