<?xml version="1.0" encoding="UTF-8" standalone="no"?>
<!DOCTYPE svg PUBLIC "-//W3C//DTD SVG 1.1//EN"
 "http://www.w3.org/Graphics/SVG/1.1/DTD/svg11.dtd">
<!-- Generated by graphviz version 2.40.1 (20161225.0304)
 -->
<!-- Title: profiles Pages: 1 -->
<svg width="464pt" height="622pt"
 viewBox="0.00 0.00 463.50 622.00" xmlns="http://www.w3.org/2000/svg" xmlns:xlink="http://www.w3.org/1999/xlink">
<g id="graph0" class="graph" transform="scale(1 1) rotate(0) translate(4 618)">
<title>profiles</title>
<polygon fill="#ffffff" stroke="transparent" points="-4,4 -4,-618 459.5,-618 459.5,4 -4,4"/>
<!-- profiles -->
<g id="node1" class="node">
<title>profiles</title>
<polygon fill="#efefef" stroke="transparent" points="46.5,-532.5 46.5,-567.5 215.5,-567.5 215.5,-532.5 46.5,-532.5"/>
<polygon fill="none" stroke="#000000" points="46.5,-532.5 46.5,-567.5 215.5,-567.5 215.5,-532.5 46.5,-532.5"/>
<text text-anchor="start" x="53.3724" y="-545.3" font-family="Arial Bold" font-size="18.00" fill="#000000">profiles</text>
<text text-anchor="start" x="111.3738" y="-545.3" font-family="Arial" font-size="14.00" fill="#000000"> </text>
<text text-anchor="start" x="115.2644" y="-545.3" font-family="Arial" font-size="14.00" fill="#666666">[BASE TABLE]</text>
<polygon fill="none" stroke="#000000" points="46.5,-502.5 46.5,-532.5 215.5,-532.5 215.5,-502.5 46.5,-502.5"/>
<text text-anchor="start" x="53.5" y="-513.9" font-family="Arial" font-size="14.00" fill="#000000">id </text>
<text text-anchor="start" x="68.2798" y="-513.9" font-family="Arial" font-size="14.00" fill="#666666">[bigint]</text>
<polygon fill="none" stroke="#000000" points="46.5,-472.5 46.5,-502.5 215.5,-502.5 215.5,-472.5 46.5,-472.5"/>
<text text-anchor="start" x="53.5" y="-483.9" font-family="Arial" font-size="14.00" fill="#000000">user_id </text>
<text text-anchor="start" x="103.2882" y="-483.9" font-family="Arial" font-size="14.00" fill="#666666">[bigint]</text>
<polygon fill="none" stroke="#000000" points="46.5,-442.5 46.5,-472.5 215.5,-472.5 215.5,-442.5 46.5,-442.5"/>
<text text-anchor="start" x="53.5" y="-453.9" font-family="Arial" font-size="14.00" fill="#000000">address </text>
<text text-anchor="start" x="107.1816" y="-453.9" font-family="Arial" font-size="14.00" fill="#666666">[varchar(255)]</text>
<polygon fill="none" stroke="#000000" points="46.5,-412.5 46.5,-442.5 215.5,-442.5 215.5,-412.5 46.5,-412.5"/>
<text text-anchor="start" x="53.5" y="-423.9" font-family="Arial" font-size="14.00" fill="#000000">created_at </text>
<text text-anchor="start" x="123.528" y="-423.9" font-family="Arial" font-size="14.00" fill="#666666">[datetime(6)]</text>
<polygon fill="none" stroke="#000000" points="46.5,-382.5 46.5,-412.5 215.5,-412.5 215.5,-382.5 46.5,-382.5"/>
<text text-anchor="start" x="53.5" y="-393.9" font-family="Arial" font-size="14.00" fill="#000000">updated_at </text>
<text text-anchor="start" x="127.4326" y="-393.9" font-family="Arial" font-size="14.00" fill="#666666">[datetime(6)]</text>
<polygon fill="none" stroke="#000000" stroke-width="3" points="44.5,-381.5 44.5,-569.5 216.5,-569.5 216.5,-381.5 44.5,-381.5"/>
</g>
<!-- users -->
<g id="node2" class="node">
<title>users</title>
<polygon fill="#efefef" stroke="transparent" points="48.5,-222.5 48.5,-257.5 214.5,-257.5 214.5,-222.5 48.5,-222.5"/>
<polygon fill="none" stroke="#000000" points="48.5,-222.5 48.5,-257.5 214.5,-257.5 214.5,-222.5 48.5,-222.5"/>
<text text-anchor="start" x="60.8708" y="-235.3" font-family="Arial Bold" font-size="18.00" fill="#000000">users</text>
<text text-anchor="start" x="104.8754" y="-235.3" font-family="Arial" font-size="14.00" fill="#000000"> </text>
<text text-anchor="start" x="108.766" y="-235.3" font-family="Arial" font-size="14.00" fill="#666666">[BASE TABLE]</text>
<polygon fill="none" stroke="#000000" points="48.5,-192.5 48.5,-222.5 214.5,-222.5 214.5,-192.5 48.5,-192.5"/>
<text text-anchor="start" x="55.5" y="-203.9" font-family="Arial" font-size="14.00" fill="#000000">id </text>
<text text-anchor="start" x="70.2798" y="-203.9" font-family="Arial" font-size="14.00" fill="#666666">[bigint]</text>
<polygon fill="none" stroke="#000000" points="48.5,-162.5 48.5,-192.5 214.5,-192.5 214.5,-162.5 48.5,-162.5"/>
<text text-anchor="start" x="55.5" y="-173.9" font-family="Arial" font-size="14.00" fill="#000000">name </text>
<text text-anchor="start" x="94.399" y="-173.9" font-family="Arial" font-size="14.00" fill="#666666">[varchar(255)]</text>
<polygon fill="none" stroke="#000000" points="48.5,-132.5 48.5,-162.5 214.5,-162.5 214.5,-132.5 48.5,-132.5"/>
<text text-anchor="start" x="55.5" y="-143.9" font-family="Arial" font-size="14.00" fill="#000000">email </text>
<text text-anchor="start" x="92.8296" y="-143.9" font-family="Arial" font-size="14.00" fill="#666666">[varchar(255)]</text>
<polygon fill="none" stroke="#000000" points="48.5,-102.5 48.5,-132.5 214.5,-132.5 214.5,-102.5 48.5,-102.5"/>
<text text-anchor="start" x="55.5" y="-113.9" font-family="Arial" font-size="14.00" fill="#000000">locale </text>
<text text-anchor="start" x="95.9516" y="-113.9" font-family="Arial" font-size="14.00" fill="#666666">[int]</text>
<polygon fill="none" stroke="#000000" points="48.5,-72.5 48.5,-102.5 214.5,-102.5 214.5,-72.5 48.5,-72.5"/>
<text text-anchor="start" x="55.5" y="-83.9" font-family="Arial" font-size="14.00" fill="#000000">created_at </text>
<text text-anchor="start" x="125.528" y="-83.9" font-family="Arial" font-size="14.00" fill="#666666">[datetime(6)]</text>
<polygon fill="none" stroke="#000000" points="48.5,-42.5 48.5,-72.5 214.5,-72.5 214.5,-42.5 48.5,-42.5"/>
<text text-anchor="start" x="55.2518" y="-53.9" font-family="Arial" font-size="14.00" fill="#000000">updated_at </text>
<text text-anchor="start" x="129.1844" y="-53.9" font-family="Arial" font-size="14.00" fill="#666666">[datetime(6)]</text>
</g>
<!-- profiles&#45;&gt;users -->
<g id="edge1" class="edge">
<title>profiles:user_id&#45;&gt;users:id</title>
<path fill="none" stroke="#000000" d="M225.6629,-486.6403C279.6175,-476.8701 255.2217,-386.1969 215.5,-337 167.8025,-277.9247 96.1975,-360.0753 48.5,-301 22.3948,-268.6676 6.9444,-207.5 48.5,-207.5"/>
<polygon fill="#000000" stroke="#000000" points="225.4644,-486.657 215.1207,-483.016 220.4822,-487.0785 215.5,-487.5 215.5,-487.5 215.5,-487.5 220.4822,-487.0785 215.8793,-491.984 225.4644,-486.657 225.4644,-486.657"/>
<text text-anchor="start" x="222.445" y="-497.5" font-family="Arial" font-size="10.00" fill="#000000">FOREIGN KEY (user_id) REFERENCES users (id)</text>
</g>
</g>
</svg>
