<?xml version="1.0" encoding="UTF-8" standalone="no"?>
<!DOCTYPE svg PUBLIC "-//W3C//DTD SVG 1.1//EN"
 "http://www.w3.org/Graphics/SVG/1.1/DTD/svg11.dtd">
<!-- Generated by graphviz version 2.40.1 (20161225.0304)
 -->
<!-- Title: profiles Pages: 1 -->
<svg width="670pt" height="929pt"
 viewBox="0.00 0.00 670.00 929.00" xmlns="http://www.w3.org/2000/svg" xmlns:xlink="http://www.w3.org/1999/xlink">
<g id="graph0" class="graph" transform="scale(1 1) rotate(0) translate(4 925)">
<title>profiles</title>
<polygon fill="#ffffff" stroke="transparent" points="-4,4 -4,-925 666,-925 666,4 -4,4"/>
<!-- profiles -->
<g id="node1" class="node">
<title>profiles</title>
<polygon fill="#efefef" stroke="transparent" points="253,-532.5 253,-567.5 422,-567.5 422,-532.5 253,-532.5"/>
<polygon fill="none" stroke="#000000" points="253,-532.5 253,-567.5 422,-567.5 422,-532.5 253,-532.5"/>
<text text-anchor="start" x="259.8724" y="-545.3" font-family="Arial Bold" font-size="18.00" fill="#000000">profiles</text>
<text text-anchor="start" x="317.8738" y="-545.3" font-family="Arial" font-size="14.00" fill="#000000"> </text>
<text text-anchor="start" x="321.7644" y="-545.3" font-family="Arial" font-size="14.00" fill="#666666">[BASE TABLE]</text>
<polygon fill="none" stroke="#000000" points="253,-502.5 253,-532.5 422,-532.5 422,-502.5 253,-502.5"/>
<text text-anchor="start" x="260" y="-513.9" font-family="Arial" font-size="14.00" fill="#000000">id </text>
<text text-anchor="start" x="274.7798" y="-513.9" font-family="Arial" font-size="14.00" fill="#666666">[bigint]</text>
<polygon fill="none" stroke="#000000" points="253,-472.5 253,-502.5 422,-502.5 422,-472.5 253,-472.5"/>
<text text-anchor="start" x="260" y="-483.9" font-family="Arial" font-size="14.00" fill="#000000">user_id </text>
<text text-anchor="start" x="309.7882" y="-483.9" font-family="Arial" font-size="14.00" fill="#666666">[bigint]</text>
<polygon fill="none" stroke="#000000" points="253,-442.5 253,-472.5 422,-472.5 422,-442.5 253,-442.5"/>
<text text-anchor="start" x="260" y="-453.9" font-family="Arial" font-size="14.00" fill="#000000">address </text>
<text text-anchor="start" x="313.6816" y="-453.9" font-family="Arial" font-size="14.00" fill="#666666">[varchar(255)]</text>
<polygon fill="none" stroke="#000000" points="253,-412.5 253,-442.5 422,-442.5 422,-412.5 253,-412.5"/>
<text text-anchor="start" x="260" y="-423.9" font-family="Arial" font-size="14.00" fill="#000000">created_at </text>
<text text-anchor="start" x="330.028" y="-423.9" font-family="Arial" font-size="14.00" fill="#666666">[datetime(6)]</text>
<polygon fill="none" stroke="#000000" points="253,-382.5 253,-412.5 422,-412.5 422,-382.5 253,-382.5"/>
<text text-anchor="start" x="260" y="-393.9" font-family="Arial" font-size="14.00" fill="#000000">updated_at </text>
<text text-anchor="start" x="333.9326" y="-393.9" font-family="Arial" font-size="14.00" fill="#666666">[datetime(6)]</text>
<polygon fill="none" stroke="#000000" stroke-width="3" points="251,-381.5 251,-569.5 423,-569.5 423,-381.5 251,-381.5"/>
</g>
<!-- users -->
<g id="node3" class="node">
<title>users</title>
<polygon fill="#efefef" stroke="transparent" points="255,-222.5 255,-257.5 421,-257.5 421,-222.5 255,-222.5"/>
<polygon fill="none" stroke="#000000" points="255,-222.5 255,-257.5 421,-257.5 421,-222.5 255,-222.5"/>
<text text-anchor="start" x="267.3708" y="-235.3" font-family="Arial Bold" font-size="18.00" fill="#000000">users</text>
<text text-anchor="start" x="311.3754" y="-235.3" font-family="Arial" font-size="14.00" fill="#000000"> </text>
<text text-anchor="start" x="315.266" y="-235.3" font-family="Arial" font-size="14.00" fill="#666666">[BASE TABLE]</text>
<polygon fill="none" stroke="#000000" points="255,-192.5 255,-222.5 421,-222.5 421,-192.5 255,-192.5"/>
<text text-anchor="start" x="262" y="-203.9" font-family="Arial" font-size="14.00" fill="#000000">id </text>
<text text-anchor="start" x="276.7798" y="-203.9" font-family="Arial" font-size="14.00" fill="#666666">[bigint]</text>
<polygon fill="none" stroke="#000000" points="255,-162.5 255,-192.5 421,-192.5 421,-162.5 255,-162.5"/>
<text text-anchor="start" x="262" y="-173.9" font-family="Arial" font-size="14.00" fill="#000000">name </text>
<text text-anchor="start" x="300.899" y="-173.9" font-family="Arial" font-size="14.00" fill="#666666">[varchar(255)]</text>
<polygon fill="none" stroke="#000000" points="255,-132.5 255,-162.5 421,-162.5 421,-132.5 255,-132.5"/>
<text text-anchor="start" x="262" y="-143.9" font-family="Arial" font-size="14.00" fill="#000000">email </text>
<text text-anchor="start" x="299.3296" y="-143.9" font-family="Arial" font-size="14.00" fill="#666666">[varchar(255)]</text>
<polygon fill="none" stroke="#000000" points="255,-102.5 255,-132.5 421,-132.5 421,-102.5 255,-102.5"/>
<text text-anchor="start" x="262" y="-113.9" font-family="Arial" font-size="14.00" fill="#000000">locale </text>
<text text-anchor="start" x="302.4516" y="-113.9" font-family="Arial" font-size="14.00" fill="#666666">[int]</text>
<polygon fill="none" stroke="#000000" points="255,-72.5 255,-102.5 421,-102.5 421,-72.5 255,-72.5"/>
<text text-anchor="start" x="262" y="-83.9" font-family="Arial" font-size="14.00" fill="#000000">created_at </text>
<text text-anchor="start" x="332.028" y="-83.9" font-family="Arial" font-size="14.00" fill="#666666">[datetime(6)]</text>
<polygon fill="none" stroke="#000000" points="255,-42.5 255,-72.5 421,-72.5 421,-42.5 255,-42.5"/>
<text text-anchor="start" x="261.7518" y="-53.9" font-family="Arial" font-size="14.00" fill="#000000">updated_at </text>
<text text-anchor="start" x="335.6844" y="-53.9" font-family="Arial" font-size="14.00" fill="#666666">[datetime(6)]</text>
</g>
<!-- profiles&#45;&gt;users -->
<g id="edge2" class="edge">
<title>profiles:user_id&#45;&gt;users:id</title>
<path fill="none" stroke="#000000" d="M432.1629,-486.6403C486.1175,-476.8701 461.7217,-386.1969 422,-337 374.3025,-277.9247 302.6975,-360.0753 255,-301 228.8948,-268.6676 213.4444,-207.5 255,-207.5"/>
<polygon fill="#000000" stroke="#000000" points="431.9644,-486.657 421.6207,-483.016 426.9822,-487.0785 422,-487.5 422,-487.5 422,-487.5 426.9822,-487.0785 422.3793,-491.984 431.9644,-486.657 431.9644,-486.657"/>
<text text-anchor="start" x="428.945" y="-497.5" font-family="Arial" font-size="10.00" fill="#000000">FOREIGN KEY (user_id) REFERENCES users (id)</text>
</g>
<!-- skills -->
<g id="node2" class="node">
<title>skills</title>
<polygon fill="#efefef" stroke="transparent" points="255,-842.5 255,-877.5 421,-877.5 421,-842.5 255,-842.5"/>
<polygon fill="none" stroke="#000000" points="255,-842.5 255,-877.5 421,-877.5 421,-842.5 255,-842.5"/>
<text text-anchor="start" x="269.8818" y="-855.3" font-family="Arial Bold" font-size="18.00" fill="#000000">skills</text>
<text text-anchor="start" x="308.8644" y="-855.3" font-family="Arial" font-size="14.00" fill="#000000"> </text>
<text text-anchor="start" x="312.755" y="-855.3" font-family="Arial" font-size="14.00" fill="#666666">[BASE TABLE]</text>
<polygon fill="none" stroke="#000000" points="255,-812.5 255,-842.5 421,-842.5 421,-812.5 255,-812.5"/>
<text text-anchor="start" x="262" y="-823.9" font-family="Arial" font-size="14.00" fill="#000000">id </text>
<text text-anchor="start" x="276.7798" y="-823.9" font-family="Arial" font-size="14.00" fill="#666666">[bigint]</text>
<polygon fill="none" stroke="#000000" points="255,-782.5 255,-812.5 421,-812.5 421,-782.5 255,-782.5"/>
<text text-anchor="start" x="262" y="-793.9" font-family="Arial" font-size="14.00" fill="#000000">profile_id </text>
<text text-anchor="start" x="322.6746" y="-793.9" font-family="Arial" font-size="14.00" fill="#666666">[bigint]</text>
<polygon fill="none" stroke="#000000" points="255,-752.5 255,-782.5 421,-782.5 421,-752.5 255,-752.5"/>
<text text-anchor="start" x="262" y="-763.9" font-family="Arial" font-size="14.00" fill="#000000">name </text>
<text text-anchor="start" x="300.899" y="-763.9" font-family="Arial" font-size="14.00" fill="#666666">[varchar(255)]</text>
<polygon fill="none" stroke="#000000" points="255,-722.5 255,-752.5 421,-752.5 421,-722.5 255,-722.5"/>
<text text-anchor="start" x="262" y="-733.9" font-family="Arial" font-size="14.00" fill="#000000">created_at </text>
<text text-anchor="start" x="332.028" y="-733.9" font-family="Arial" font-size="14.00" fill="#666666">[datetime(6)]</text>
<polygon fill="none" stroke="#000000" points="255,-692.5 255,-722.5 421,-722.5 421,-692.5 255,-692.5"/>
<text text-anchor="start" x="261.7518" y="-703.9" font-family="Arial" font-size="14.00" fill="#000000">updated_at </text>
<text text-anchor="start" x="335.6844" y="-703.9" font-family="Arial" font-size="14.00" fill="#666666">[datetime(6)]</text>
</g>
<!-- skills&#45;&gt;profiles -->
<g id="edge1" class="edge">
<title>skills:profile_id&#45;&gt;profiles:id</title>
<path fill="none" stroke="#000000" d="M244.7129,-796.5971C192.2594,-786.7149 216.1505,-698.1166 255,-650 302.6975,-590.9247 374.3025,-673.0753 422,-614 448.9428,-580.6302 464.8889,-517.5 422,-517.5"/>
<polygon fill="#000000" stroke="#000000" points="245.0383,-796.6256 254.6065,-801.9828 250.0191,-797.0628 255,-797.5 255,-797.5 255,-797.5 250.0191,-797.0628 255.3935,-793.0172 245.0383,-796.6256 245.0383,-796.6256"/>
<text text-anchor="start" x="7.169" y="-807.5" font-family="Arial" font-size="10.00" fill="#000000">FOREIGN KEY (profile_id) REFERENCES profiles (id)</text>
</g>
</g>
</svg>
