<?xml version="1.0" encoding="UTF-8" standalone="no"?>
<!DOCTYPE svg PUBLIC "-//W3C//DTD SVG 1.1//EN"
 "http://www.w3.org/Graphics/SVG/1.1/DTD/svg11.dtd">
<!-- Generated by graphviz version 2.40.1 (20161225.0304)
 -->
<!-- Title: app_development Pages: 1 -->
<svg width="2523pt" height="736pt"
 viewBox="0.00 0.00 2522.50 736.00" xmlns="http://www.w3.org/2000/svg" xmlns:xlink="http://www.w3.org/1999/xlink">
<g id="graph0" class="graph" transform="scale(1 1) rotate(0) translate(4 732)">
<title>app_development</title>
<polygon fill="#ffffff" stroke="transparent" points="-4,4 -4,-732 2518.5,-732 2518.5,4 -4,4"/>
<!-- active_storage_attachments -->
<g id="node1" class="node">
<title>active_storage_attachments</title>
<polygon fill="#efefef" stroke="transparent" points="43,-649.5 43,-684.5 379,-684.5 379,-649.5 43,-649.5"/>
<polygon fill="none" stroke="#000000" points="43,-649.5 43,-684.5 379,-684.5 379,-649.5 43,-649.5"/>
<text text-anchor="start" x="49.838" y="-662.3" font-family="Arial Bold" font-size="18.00" fill="#000000">active_storage_attachments</text>
<text text-anchor="start" x="274.9082" y="-662.3" font-family="Arial" font-size="14.00" fill="#000000"> </text>
<text text-anchor="start" x="278.7988" y="-662.3" font-family="Arial" font-size="14.00" fill="#666666">[BASE TABLE]</text>
<polygon fill="none" stroke="#000000" points="43,-619.5 43,-649.5 379,-649.5 379,-619.5 43,-619.5"/>
<text text-anchor="start" x="50" y="-630.9" font-family="Arial" font-size="14.00" fill="#000000">id </text>
<text text-anchor="start" x="64.7798" y="-630.9" font-family="Arial" font-size="14.00" fill="#666666">[bigint]</text>
<polygon fill="none" stroke="#000000" points="43,-589.5 43,-619.5 379,-619.5 379,-589.5 43,-589.5"/>
<text text-anchor="start" x="50" y="-600.9" font-family="Arial" font-size="14.00" fill="#000000">name </text>
<text text-anchor="start" x="88.899" y="-600.9" font-family="Arial" font-size="14.00" fill="#666666">[varchar(255)]</text>
<polygon fill="none" stroke="#000000" points="43,-559.5 43,-589.5 379,-589.5 379,-559.5 43,-559.5"/>
<text text-anchor="start" x="50" y="-570.9" font-family="Arial" font-size="14.00" fill="#000000">record_type </text>
<text text-anchor="start" x="127.798" y="-570.9" font-family="Arial" font-size="14.00" fill="#666666">[varchar(255)]</text>
<polygon fill="none" stroke="#000000" points="43,-529.5 43,-559.5 379,-559.5 379,-529.5 43,-529.5"/>
<text text-anchor="start" x="50" y="-540.9" font-family="Arial" font-size="14.00" fill="#000000">record_id </text>
<text text-anchor="start" x="112.2314" y="-540.9" font-family="Arial" font-size="14.00" fill="#666666">[bigint]</text>
<polygon fill="none" stroke="#000000" points="43,-499.5 43,-529.5 379,-529.5 379,-499.5 43,-499.5"/>
<text text-anchor="start" x="50" y="-510.9" font-family="Arial" font-size="14.00" fill="#000000">blob_id </text>
<text text-anchor="start" x="99.0168" y="-510.9" font-family="Arial" font-size="14.00" fill="#666666">[bigint]</text>
<polygon fill="none" stroke="#000000" points="43,-469.5 43,-499.5 379,-499.5 379,-469.5 43,-469.5"/>
<text text-anchor="start" x="50" y="-480.9" font-family="Arial" font-size="14.00" fill="#000000">created_at </text>
<text text-anchor="start" x="120.028" y="-480.9" font-family="Arial" font-size="14.00" fill="#666666">[datetime(6)]</text>
</g>
<!-- active_storage_blobs -->
<g id="node2" class="node">
<title>active_storage_blobs</title>
<polygon fill="#efefef" stroke="transparent" points="297,-312.5 297,-347.5 578,-347.5 578,-312.5 297,-312.5"/>
<polygon fill="none" stroke="#000000" points="297,-312.5 297,-347.5 578,-347.5 578,-312.5 297,-312.5"/>
<text text-anchor="start" x="303.8465" y="-325.3" font-family="Arial Bold" font-size="18.00" fill="#000000">active_storage_blobs</text>
<text text-anchor="start" x="473.8997" y="-325.3" font-family="Arial" font-size="14.00" fill="#000000"> </text>
<text text-anchor="start" x="477.7903" y="-325.3" font-family="Arial" font-size="14.00" fill="#666666">[BASE TABLE]</text>
<polygon fill="none" stroke="#000000" points="297,-282.5 297,-312.5 578,-312.5 578,-282.5 297,-282.5"/>
<text text-anchor="start" x="304" y="-293.9" font-family="Arial" font-size="14.00" fill="#000000">id </text>
<text text-anchor="start" x="318.7798" y="-293.9" font-family="Arial" font-size="14.00" fill="#666666">[bigint]</text>
<polygon fill="none" stroke="#000000" points="297,-252.5 297,-282.5 578,-282.5 578,-252.5 297,-252.5"/>
<text text-anchor="start" x="304" y="-263.9" font-family="Arial" font-size="14.00" fill="#000000">key </text>
<text text-anchor="start" x="329.6732" y="-263.9" font-family="Arial" font-size="14.00" fill="#666666">[varchar(255)]</text>
<polygon fill="none" stroke="#000000" points="297,-222.5 297,-252.5 578,-252.5 578,-222.5 297,-222.5"/>
<text text-anchor="start" x="304" y="-233.9" font-family="Arial" font-size="14.00" fill="#000000">filename </text>
<text text-anchor="start" x="360.7854" y="-233.9" font-family="Arial" font-size="14.00" fill="#666666">[varchar(255)]</text>
<polygon fill="none" stroke="#000000" points="297,-192.5 297,-222.5 578,-222.5 578,-192.5 297,-192.5"/>
<text text-anchor="start" x="304" y="-203.9" font-family="Arial" font-size="14.00" fill="#000000">content_type </text>
<text text-anchor="start" x="388.0406" y="-203.9" font-family="Arial" font-size="14.00" fill="#666666">[varchar(255)]</text>
<polygon fill="none" stroke="#000000" points="297,-162.5 297,-192.5 578,-192.5 578,-162.5 297,-162.5"/>
<text text-anchor="start" x="304" y="-173.9" font-family="Arial" font-size="14.00" fill="#000000">metadata </text>
<text text-anchor="start" x="366.2454" y="-173.9" font-family="Arial" font-size="14.00" fill="#666666">[text]</text>
<polygon fill="none" stroke="#000000" points="297,-132.5 297,-162.5 578,-162.5 578,-132.5 297,-132.5"/>
<text text-anchor="start" x="304" y="-143.9" font-family="Arial" font-size="14.00" fill="#000000">service_name </text>
<text text-anchor="start" x="395.014" y="-143.9" font-family="Arial" font-size="14.00" fill="#666666">[varchar(255)]</text>
<polygon fill="none" stroke="#000000" points="297,-102.5 297,-132.5 578,-132.5 578,-102.5 297,-102.5"/>
<text text-anchor="start" x="304" y="-113.9" font-family="Arial" font-size="14.00" fill="#000000">byte_size </text>
<text text-anchor="start" x="367.0182" y="-113.9" font-family="Arial" font-size="14.00" fill="#666666">[bigint]</text>
<polygon fill="none" stroke="#000000" points="297,-72.5 297,-102.5 578,-102.5 578,-72.5 297,-72.5"/>
<text text-anchor="start" x="304" y="-83.9" font-family="Arial" font-size="14.00" fill="#000000">checksum </text>
<text text-anchor="start" x="370.899" y="-83.9" font-family="Arial" font-size="14.00" fill="#666666">[varchar(255)]</text>
<polygon fill="none" stroke="#000000" points="297,-42.5 297,-72.5 578,-72.5 578,-42.5 297,-42.5"/>
<text text-anchor="start" x="304" y="-53.9" font-family="Arial" font-size="14.00" fill="#000000">created_at </text>
<text text-anchor="start" x="374.028" y="-53.9" font-family="Arial" font-size="14.00" fill="#666666">[datetime(6)]</text>
</g>
<!-- active_storage_attachments&#45;&gt;active_storage_blobs -->
<g id="edge1" class="edge">
<title>active_storage_attachments:blob_id&#45;&gt;active_storage_blobs:id</title>
<path fill="none" stroke="#000000" d="M389.1556,-512.8809C414.2715,-503.5711 398.1052,-456.253 379,-427 357.2357,-393.6756 318.7643,-424.3244 297,-391 274.2769,-356.2074 255.4444,-297.5 297,-297.5"/>
<polygon fill="#000000" stroke="#000000" points="388.8753,-512.9255 378.2915,-510.0561 383.9376,-513.7127 379,-514.5 379,-514.5 379,-514.5 383.9376,-513.7127 379.7085,-518.9439 388.8753,-512.9255 388.8753,-512.9255"/>
<text text-anchor="start" x="231.707" y="-498.5" font-family="Arial" font-size="10.00" fill="#000000">FOREIGN KEY (blob_id) REFERENCES active_storage_blobs (id)</text>
</g>
<!-- active_storage_variant_records -->
<g id="node3" class="node">
<title>active_storage_variant_records</title>
<polygon fill="#efefef" stroke="transparent" points="483,-604.5 483,-639.5 845,-639.5 845,-604.5 483,-604.5"/>
<polygon fill="none" stroke="#000000" points="483,-604.5 483,-639.5 845,-639.5 845,-604.5 483,-604.5"/>
<text text-anchor="start" x="489.8447" y="-617.3" font-family="Arial Bold" font-size="18.00" fill="#000000">active_storage_variant_records</text>
<text text-anchor="start" x="740.9015" y="-617.3" font-family="Arial" font-size="14.00" fill="#000000"> </text>
<text text-anchor="start" x="744.7921" y="-617.3" font-family="Arial" font-size="14.00" fill="#666666">[BASE TABLE]</text>
<polygon fill="none" stroke="#000000" points="483,-574.5 483,-604.5 845,-604.5 845,-574.5 483,-574.5"/>
<text text-anchor="start" x="490" y="-585.9" font-family="Arial" font-size="14.00" fill="#000000">id </text>
<text text-anchor="start" x="504.7798" y="-585.9" font-family="Arial" font-size="14.00" fill="#666666">[bigint]</text>
<polygon fill="none" stroke="#000000" points="483,-544.5 483,-574.5 845,-574.5 845,-544.5 483,-544.5"/>
<text text-anchor="start" x="490" y="-555.9" font-family="Arial" font-size="14.00" fill="#000000">blob_id </text>
<text text-anchor="start" x="539.0168" y="-555.9" font-family="Arial" font-size="14.00" fill="#666666">[bigint]</text>
<polygon fill="none" stroke="#000000" points="483,-514.5 483,-544.5 845,-544.5 845,-514.5 483,-514.5"/>
<text text-anchor="start" x="490" y="-525.9" font-family="Arial" font-size="14.00" fill="#000000">variation_digest </text>
<text text-anchor="start" x="591.913" y="-525.9" font-family="Arial" font-size="14.00" fill="#666666">[varchar(255)]</text>
</g>
<!-- active_storage_variant_records&#45;&gt;active_storage_blobs -->
<g id="edge2" class="edge">
<title>active_storage_variant_records:blob_id&#45;&gt;active_storage_blobs:id</title>
<path fill="none" stroke="#000000" d="M472.9826,-557.9573C448.6353,-549.073 468.359,-503.7237 483,-472 506.251,-421.6203 554.749,-441.3797 578,-391 595.4135,-353.2689 619.5556,-297.5 578,-297.5"/>
<polygon fill="#000000" stroke="#000000" points="473.1165,-557.9779 482.315,-563.9476 478.0583,-558.7389 483,-559.5 483,-559.5 483,-559.5 478.0583,-558.7389 483.685,-555.0524 473.1165,-557.9779 473.1165,-557.9779"/>
<text text-anchor="start" x="181.207" y="-569.5" font-family="Arial" font-size="10.00" fill="#000000">FOREIGN KEY (blob_id) REFERENCES active_storage_blobs (id)</text>
</g>
<!-- ar_internal_metadata -->
<g id="node4" class="node">
<title>ar_internal_metadata</title>
<polygon fill="#efefef" stroke="transparent" points="950,-619.5 950,-654.5 1231,-654.5 1231,-619.5 950,-619.5"/>
<polygon fill="none" stroke="#000000" points="950,-619.5 950,-654.5 1231,-654.5 1231,-619.5 950,-619.5"/>
<text text-anchor="start" x="956.8501" y="-632.3" font-family="Arial Bold" font-size="18.00" fill="#000000">ar_internal_metadata</text>
<text text-anchor="start" x="1126.8961" y="-632.3" font-family="Arial" font-size="14.00" fill="#000000"> </text>
<text text-anchor="start" x="1130.7867" y="-632.3" font-family="Arial" font-size="14.00" fill="#666666">[BASE TABLE]</text>
<polygon fill="none" stroke="#000000" points="950,-589.5 950,-619.5 1231,-619.5 1231,-589.5 950,-589.5"/>
<text text-anchor="start" x="957" y="-600.9" font-family="Arial" font-size="14.00" fill="#000000">key </text>
<text text-anchor="start" x="982.6732" y="-600.9" font-family="Arial" font-size="14.00" fill="#666666">[varchar(255)]</text>
<polygon fill="none" stroke="#000000" points="950,-559.5 950,-589.5 1231,-589.5 1231,-559.5 950,-559.5"/>
<text text-anchor="start" x="957" y="-570.9" font-family="Arial" font-size="14.00" fill="#000000">value </text>
<text text-anchor="start" x="994.345" y="-570.9" font-family="Arial" font-size="14.00" fill="#666666">[varchar(255)]</text>
<polygon fill="none" stroke="#000000" points="950,-529.5 950,-559.5 1231,-559.5 1231,-529.5 950,-529.5"/>
<text text-anchor="start" x="957" y="-540.9" font-family="Arial" font-size="14.00" fill="#000000">created_at </text>
<text text-anchor="start" x="1027.028" y="-540.9" font-family="Arial" font-size="14.00" fill="#666666">[datetime(6)]</text>
<polygon fill="none" stroke="#000000" points="950,-499.5 950,-529.5 1231,-529.5 1231,-499.5 950,-499.5"/>
<text text-anchor="start" x="957" y="-510.9" font-family="Arial" font-size="14.00" fill="#000000">updated_at </text>
<text text-anchor="start" x="1030.9326" y="-510.9" font-family="Arial" font-size="14.00" fill="#666666">[datetime(6)]</text>
</g>
<!-- books -->
<g id="node5" class="node">
<title>books</title>
<polygon fill="#efefef" stroke="transparent" points="1354,-237.5 1354,-272.5 1520,-272.5 1520,-237.5 1354,-237.5"/>
<polygon fill="none" stroke="#000000" points="1354,-237.5 1354,-272.5 1520,-272.5 1520,-237.5 1354,-237.5"/>
<text text-anchor="start" x="1364.3638" y="-250.3" font-family="Arial Bold" font-size="18.00" fill="#000000">books</text>
<text text-anchor="start" x="1412.3824" y="-250.3" font-family="Arial" font-size="14.00" fill="#000000"> </text>
<text text-anchor="start" x="1416.273" y="-250.3" font-family="Arial" font-size="14.00" fill="#666666">[BASE TABLE]</text>
<polygon fill="none" stroke="#000000" points="1354,-207.5 1354,-237.5 1520,-237.5 1520,-207.5 1354,-207.5"/>
<text text-anchor="start" x="1361" y="-218.9" font-family="Arial" font-size="14.00" fill="#000000">id </text>
<text text-anchor="start" x="1375.7798" y="-218.9" font-family="Arial" font-size="14.00" fill="#666666">[bigint]</text>
<polygon fill="none" stroke="#000000" points="1354,-177.5 1354,-207.5 1520,-207.5 1520,-177.5 1354,-177.5"/>
<text text-anchor="start" x="1361" y="-188.9" font-family="Arial" font-size="14.00" fill="#000000">title </text>
<text text-anchor="start" x="1386.6676" y="-188.9" font-family="Arial" font-size="14.00" fill="#666666">[varchar(255)]</text>
<polygon fill="none" stroke="#000000" points="1354,-147.5 1354,-177.5 1520,-177.5 1520,-147.5 1354,-147.5"/>
<text text-anchor="start" x="1361" y="-158.9" font-family="Arial" font-size="14.00" fill="#000000">created_at </text>
<text text-anchor="start" x="1431.028" y="-158.9" font-family="Arial" font-size="14.00" fill="#666666">[datetime(6)]</text>
<polygon fill="none" stroke="#000000" points="1354,-117.5 1354,-147.5 1520,-147.5 1520,-117.5 1354,-117.5"/>
<text text-anchor="start" x="1360.7518" y="-128.9" font-family="Arial" font-size="14.00" fill="#000000">updated_at </text>
<text text-anchor="start" x="1434.6844" y="-128.9" font-family="Arial" font-size="14.00" fill="#666666">[datetime(6)]</text>
</g>
<!-- portfolios -->
<g id="node6" class="node">
<title>portfolios</title>
<polygon fill="#efefef" stroke="transparent" points="1643,-649.5 1643,-684.5 1827,-684.5 1827,-649.5 1643,-649.5"/>
<polygon fill="none" stroke="#000000" points="1643,-649.5 1643,-684.5 1827,-684.5 1827,-649.5 1643,-649.5"/>
<text text-anchor="start" x="1649.8682" y="-662.3" font-family="Arial Bold" font-size="18.00" fill="#000000">portfolios</text>
<text text-anchor="start" x="1722.878" y="-662.3" font-family="Arial" font-size="14.00" fill="#000000"> </text>
<text text-anchor="start" x="1726.7686" y="-662.3" font-family="Arial" font-size="14.00" fill="#666666">[BASE TABLE]</text>
<polygon fill="none" stroke="#000000" points="1643,-619.5 1643,-649.5 1827,-649.5 1827,-619.5 1643,-619.5"/>
<text text-anchor="start" x="1650" y="-630.9" font-family="Arial" font-size="14.00" fill="#000000">id </text>
<text text-anchor="start" x="1664.7798" y="-630.9" font-family="Arial" font-size="14.00" fill="#666666">[bigint]</text>
<polygon fill="none" stroke="#000000" points="1643,-589.5 1643,-619.5 1827,-619.5 1827,-589.5 1643,-589.5"/>
<text text-anchor="start" x="1650" y="-600.9" font-family="Arial" font-size="14.00" fill="#000000">user_id </text>
<text text-anchor="start" x="1699.7882" y="-600.9" font-family="Arial" font-size="14.00" fill="#666666">[bigint]</text>
<polygon fill="none" stroke="#000000" points="1643,-559.5 1643,-589.5 1827,-589.5 1827,-559.5 1643,-559.5"/>
<text text-anchor="start" x="1650" y="-570.9" font-family="Arial" font-size="14.00" fill="#000000">name </text>
<text text-anchor="start" x="1688.899" y="-570.9" font-family="Arial" font-size="14.00" fill="#666666">[varchar(255)]</text>
<polygon fill="none" stroke="#000000" points="1643,-529.5 1643,-559.5 1827,-559.5 1827,-529.5 1643,-529.5"/>
<text text-anchor="start" x="1650" y="-540.9" font-family="Arial" font-size="14.00" fill="#000000">url </text>
<text text-anchor="start" x="1669.4404" y="-540.9" font-family="Arial" font-size="14.00" fill="#666666">[varchar(255)]</text>
<polygon fill="none" stroke="#000000" points="1643,-499.5 1643,-529.5 1827,-529.5 1827,-499.5 1643,-499.5"/>
<text text-anchor="start" x="1650" y="-510.9" font-family="Arial" font-size="14.00" fill="#000000">created_at </text>
<text text-anchor="start" x="1720.028" y="-510.9" font-family="Arial" font-size="14.00" fill="#666666">[datetime(6)]</text>
<polygon fill="none" stroke="#000000" points="1643,-469.5 1643,-499.5 1827,-499.5 1827,-469.5 1643,-469.5"/>
<text text-anchor="start" x="1650" y="-480.9" font-family="Arial" font-size="14.00" fill="#000000">updated_at </text>
<text text-anchor="start" x="1723.9326" y="-480.9" font-family="Arial" font-size="14.00" fill="#666666">[datetime(6)]</text>
</g>
<!-- users -->
<g id="node10" class="node">
<title>users</title>
<polygon fill="#efefef" stroke="transparent" points="1652,-267.5 1652,-302.5 1818,-302.5 1818,-267.5 1652,-267.5"/>
<polygon fill="none" stroke="#000000" points="1652,-267.5 1652,-302.5 1818,-302.5 1818,-267.5 1652,-267.5"/>
<text text-anchor="start" x="1664.3708" y="-280.3" font-family="Arial Bold" font-size="18.00" fill="#000000">users</text>
<text text-anchor="start" x="1708.3754" y="-280.3" font-family="Arial" font-size="14.00" fill="#000000"> </text>
<text text-anchor="start" x="1712.266" y="-280.3" font-family="Arial" font-size="14.00" fill="#666666">[BASE TABLE]</text>
<polygon fill="none" stroke="#000000" points="1652,-237.5 1652,-267.5 1818,-267.5 1818,-237.5 1652,-237.5"/>
<text text-anchor="start" x="1659" y="-248.9" font-family="Arial" font-size="14.00" fill="#000000">id </text>
<text text-anchor="start" x="1673.7798" y="-248.9" font-family="Arial" font-size="14.00" fill="#666666">[bigint]</text>
<polygon fill="none" stroke="#000000" points="1652,-207.5 1652,-237.5 1818,-237.5 1818,-207.5 1652,-207.5"/>
<text text-anchor="start" x="1659" y="-218.9" font-family="Arial" font-size="14.00" fill="#000000">name </text>
<text text-anchor="start" x="1697.899" y="-218.9" font-family="Arial" font-size="14.00" fill="#666666">[varchar(255)]</text>
<polygon fill="none" stroke="#000000" points="1652,-177.5 1652,-207.5 1818,-207.5 1818,-177.5 1652,-177.5"/>
<text text-anchor="start" x="1659" y="-188.9" font-family="Arial" font-size="14.00" fill="#000000">email </text>
<text text-anchor="start" x="1696.3296" y="-188.9" font-family="Arial" font-size="14.00" fill="#666666">[varchar(255)]</text>
<polygon fill="none" stroke="#000000" points="1652,-147.5 1652,-177.5 1818,-177.5 1818,-147.5 1652,-147.5"/>
<text text-anchor="start" x="1659" y="-158.9" font-family="Arial" font-size="14.00" fill="#000000">locale </text>
<text text-anchor="start" x="1699.4516" y="-158.9" font-family="Arial" font-size="14.00" fill="#666666">[int]</text>
<polygon fill="none" stroke="#000000" points="1652,-117.5 1652,-147.5 1818,-147.5 1818,-117.5 1652,-117.5"/>
<text text-anchor="start" x="1659" y="-128.9" font-family="Arial" font-size="14.00" fill="#000000">created_at </text>
<text text-anchor="start" x="1729.028" y="-128.9" font-family="Arial" font-size="14.00" fill="#666666">[datetime(6)]</text>
<polygon fill="none" stroke="#000000" points="1652,-87.5 1652,-117.5 1818,-117.5 1818,-87.5 1652,-87.5"/>
<text text-anchor="start" x="1658.7518" y="-98.9" font-family="Arial" font-size="14.00" fill="#000000">updated_at </text>
<text text-anchor="start" x="1732.6844" y="-98.9" font-family="Arial" font-size="14.00" fill="#666666">[datetime(6)]</text>
</g>
<!-- portfolios&#45;&gt;users -->
<g id="edge3" class="edge">
<title>portfolios:user_id&#45;&gt;users:id</title>
<path fill="none" stroke="#000000" d="M1835.2971,-598.3904C1864.5338,-551.6484 1854.0673,-252.5 1818,-252.5"/>
<polygon fill="#000000" stroke="#000000" points="1835.0524,-598.5705 1824.3317,-600.8764 1831.0262,-601.5352 1827,-604.5 1827,-604.5 1827,-604.5 1831.0262,-601.5352 1829.6683,-608.1236 1835.0524,-598.5705 1835.0524,-598.5705"/>
<text text-anchor="start" x="1713.945" y="-588.5" font-family="Arial" font-size="10.00" fill="#000000">FOREIGN KEY (user_id) REFERENCES users (id)</text>
</g>
<!-- profiles -->
<g id="node7" class="node">
<title>profiles</title>
<polygon fill="#efefef" stroke="transparent" points="1932,-634.5 1932,-669.5 2101,-669.5 2101,-634.5 1932,-634.5"/>
<polygon fill="none" stroke="#000000" points="1932,-634.5 1932,-669.5 2101,-669.5 2101,-634.5 1932,-634.5"/>
<text text-anchor="start" x="1938.8724" y="-647.3" font-family="Arial Bold" font-size="18.00" fill="#000000">profiles</text>
<text text-anchor="start" x="1996.8738" y="-647.3" font-family="Arial" font-size="14.00" fill="#000000"> </text>
<text text-anchor="start" x="2000.7644" y="-647.3" font-family="Arial" font-size="14.00" fill="#666666">[BASE TABLE]</text>
<polygon fill="none" stroke="#000000" points="1932,-604.5 1932,-634.5 2101,-634.5 2101,-604.5 1932,-604.5"/>
<text text-anchor="start" x="1939" y="-615.9" font-family="Arial" font-size="14.00" fill="#000000">id </text>
<text text-anchor="start" x="1953.7798" y="-615.9" font-family="Arial" font-size="14.00" fill="#666666">[bigint]</text>
<polygon fill="none" stroke="#000000" points="1932,-574.5 1932,-604.5 2101,-604.5 2101,-574.5 1932,-574.5"/>
<text text-anchor="start" x="1939" y="-585.9" font-family="Arial" font-size="14.00" fill="#000000">user_id </text>
<text text-anchor="start" x="1988.7882" y="-585.9" font-family="Arial" font-size="14.00" fill="#666666">[bigint]</text>
<polygon fill="none" stroke="#000000" points="1932,-544.5 1932,-574.5 2101,-574.5 2101,-544.5 1932,-544.5"/>
<text text-anchor="start" x="1939" y="-555.9" font-family="Arial" font-size="14.00" fill="#000000">address </text>
<text text-anchor="start" x="1992.6816" y="-555.9" font-family="Arial" font-size="14.00" fill="#666666">[varchar(255)]</text>
<polygon fill="none" stroke="#000000" points="1932,-514.5 1932,-544.5 2101,-544.5 2101,-514.5 1932,-514.5"/>
<text text-anchor="start" x="1939" y="-525.9" font-family="Arial" font-size="14.00" fill="#000000">created_at </text>
<text text-anchor="start" x="2009.028" y="-525.9" font-family="Arial" font-size="14.00" fill="#666666">[datetime(6)]</text>
<polygon fill="none" stroke="#000000" points="1932,-484.5 1932,-514.5 2101,-514.5 2101,-484.5 1932,-484.5"/>
<text text-anchor="start" x="1939" y="-495.9" font-family="Arial" font-size="14.00" fill="#000000">updated_at </text>
<text text-anchor="start" x="2012.9326" y="-495.9" font-family="Arial" font-size="14.00" fill="#666666">[datetime(6)]</text>
</g>
<!-- profiles&#45;&gt;users -->
<g id="edge4" class="edge">
<title>profiles:user_id&#45;&gt;users:id</title>
<path fill="none" stroke="#000000" d="M1921.7309,-588.8652C1860.4799,-580.7035 1902.126,-495.4565 1879,-427 1852.7054,-349.1638 1900.1576,-252.5 1818,-252.5"/>
<polygon fill="#000000" stroke="#000000" points="1922.0191,-588.8829 1931.7223,-593.9914 1927.0095,-589.1915 1932,-589.5 1932,-589.5 1932,-589.5 1927.0095,-589.1915 1932.2777,-585.0086 1922.0191,-588.8829 1922.0191,-588.8829"/>
<text text-anchor="start" x="1758.945" y="-573.5" font-family="Arial" font-size="10.00" fill="#000000">FOREIGN KEY (user_id) REFERENCES users (id)</text>
</g>
<!-- schema_migrations -->
<g id="node8" class="node">
<title>schema_migrations</title>
<polygon fill="#efefef" stroke="transparent" points="2205,-574.5 2205,-609.5 2472,-609.5 2472,-574.5 2205,-574.5"/>
<polygon fill="none" stroke="#000000" points="2205,-574.5 2205,-609.5 2472,-609.5 2472,-574.5 2205,-574.5"/>
<text text-anchor="start" x="2211.8647" y="-587.3" font-family="Arial Bold" font-size="18.00" fill="#000000">schema_migrations</text>
<text text-anchor="start" x="2367.8815" y="-587.3" font-family="Arial" font-size="14.00" fill="#000000"> </text>
<text text-anchor="start" x="2371.7721" y="-587.3" font-family="Arial" font-size="14.00" fill="#666666">[BASE TABLE]</text>
<polygon fill="none" stroke="#000000" points="2205,-544.5 2205,-574.5 2472,-574.5 2472,-544.5 2205,-544.5"/>
<text text-anchor="start" x="2212" y="-555.9" font-family="Arial" font-size="14.00" fill="#000000">version </text>
<text text-anchor="start" x="2261.0056" y="-555.9" font-family="Arial" font-size="14.00" fill="#666666">[varchar(255)]</text>
</g>
<!-- user_books -->
<g id="node9" class="node">
<title>user_books</title>
<polygon fill="#efefef" stroke="transparent" points="1335,-634.5 1335,-669.5 1539,-669.5 1539,-634.5 1335,-634.5"/>
<polygon fill="none" stroke="#000000" points="1335,-634.5 1335,-669.5 1539,-669.5 1539,-634.5 1335,-634.5"/>
<text text-anchor="start" x="1341.8584" y="-647.3" font-family="Arial Bold" font-size="18.00" fill="#000000">user_books</text>
<text text-anchor="start" x="1434.8878" y="-647.3" font-family="Arial" font-size="14.00" fill="#000000"> </text>
<text text-anchor="start" x="1438.7784" y="-647.3" font-family="Arial" font-size="14.00" fill="#666666">[BASE TABLE]</text>
<polygon fill="none" stroke="#000000" points="1335,-604.5 1335,-634.5 1539,-634.5 1539,-604.5 1335,-604.5"/>
<text text-anchor="start" x="1342" y="-615.9" font-family="Arial" font-size="14.00" fill="#000000">id </text>
<text text-anchor="start" x="1356.7798" y="-615.9" font-family="Arial" font-size="14.00" fill="#666666">[bigint]</text>
<polygon fill="none" stroke="#000000" points="1335,-574.5 1335,-604.5 1539,-604.5 1539,-574.5 1335,-574.5"/>
<text text-anchor="start" x="1342" y="-585.9" font-family="Arial" font-size="14.00" fill="#000000">user_id </text>
<text text-anchor="start" x="1391.7882" y="-585.9" font-family="Arial" font-size="14.00" fill="#666666">[bigint]</text>
<polygon fill="none" stroke="#000000" points="1335,-544.5 1335,-574.5 1539,-574.5 1539,-544.5 1335,-544.5"/>
<text text-anchor="start" x="1342" y="-555.9" font-family="Arial" font-size="14.00" fill="#000000">book_id </text>
<text text-anchor="start" x="1394.9102" y="-555.9" font-family="Arial" font-size="14.00" fill="#666666">[bigint]</text>
<polygon fill="none" stroke="#000000" points="1335,-514.5 1335,-544.5 1539,-544.5 1539,-514.5 1335,-514.5"/>
<text text-anchor="start" x="1342" y="-525.9" font-family="Arial" font-size="14.00" fill="#000000">created_at </text>
<text text-anchor="start" x="1412.028" y="-525.9" font-family="Arial" font-size="14.00" fill="#666666">[datetime(6)]</text>
<polygon fill="none" stroke="#000000" points="1335,-484.5 1335,-514.5 1539,-514.5 1539,-484.5 1335,-484.5"/>
<text text-anchor="start" x="1342" y="-495.9" font-family="Arial" font-size="14.00" fill="#000000">updated_at </text>
<text text-anchor="start" x="1415.9326" y="-495.9" font-family="Arial" font-size="14.00" fill="#666666">[datetime(6)]</text>
</g>
<!-- user_books&#45;&gt;books -->
<g id="edge5" class="edge">
<title>user_books:book_id&#45;&gt;books:id</title>
<path fill="none" stroke="#000000" d="M1548.9322,-557.348C1612.1035,-528.6467 1591.4918,-222.5 1520,-222.5"/>
<polygon fill="#000000" stroke="#000000" points="1548.7732,-557.3824 1538.0471,-555.102 1543.8866,-558.4412 1539,-559.5 1539,-559.5 1539,-559.5 1543.8866,-558.4412 1539.9529,-563.898 1548.7732,-557.3824 1548.7732,-557.3824"/>
<text text-anchor="start" x="1362.715" y="-543.5" font-family="Arial" font-size="10.00" fill="#000000">FOREIGN KEY (book_id) REFERENCES books (id)</text>
</g>
<!-- user_books&#45;&gt;users -->
<g id="edge6" class="edge">
<title>user_books:user_id&#45;&gt;users:id</title>
<path fill="none" stroke="#000000" d="M1549.2457,-588.8648C1610.3238,-580.6977 1568.1061,-495.3974 1591,-427 1617.0777,-349.0909 1569.8424,-252.5 1652,-252.5"/>
<polygon fill="#000000" stroke="#000000" points="1548.9808,-588.8811 1538.7215,-585.0086 1543.9904,-589.1905 1539,-589.5 1539,-589.5 1539,-589.5 1543.9904,-589.1905 1539.2785,-593.9914 1548.9808,-588.8811 1548.9808,-588.8811"/>
<text text-anchor="start" x="1365.945" y="-573.5" font-family="Arial" font-size="10.00" fill="#000000">FOREIGN KEY (user_id) REFERENCES users (id)</text>
</g>
</g>
</svg>
