<?xml version="1.0" encoding="UTF-8" standalone="no"?>
<!DOCTYPE svg PUBLIC "-//W3C//DTD SVG 1.1//EN"
 "http://www.w3.org/Graphics/SVG/1.1/DTD/svg11.dtd">
<!-- Generated by graphviz version 2.40.1 (20161225.0304)
 -->
<!-- Title: app_development Pages: 1 -->
<svg width="2191pt" height="1073pt"
 viewBox="0.00 0.00 2190.50 1073.00" xmlns="http://www.w3.org/2000/svg" xmlns:xlink="http://www.w3.org/1999/xlink">
<g id="graph0" class="graph" transform="scale(1 1) rotate(0) translate(4 1069)">
<title>app_development</title>
<polygon fill="#ffffff" stroke="transparent" points="-4,4 -4,-1069 2186.5,-1069 2186.5,4 -4,4"/>
<!-- active_storage_attachments -->
<g id="node1" class="node">
<title>active_storage_attachments</title>
<polygon fill="#efefef" stroke="transparent" points="43,-986.5 43,-1021.5 379,-1021.5 379,-986.5 43,-986.5"/>
<polygon fill="none" stroke="#000000" points="43,-986.5 43,-1021.5 379,-1021.5 379,-986.5 43,-986.5"/>
<text text-anchor="start" x="49.838" y="-999.3" font-family="Arial Bold" font-size="18.00" fill="#000000">active_storage_attachments</text>
<text text-anchor="start" x="274.9082" y="-999.3" font-family="Arial" font-size="14.00" fill="#000000"> </text>
<text text-anchor="start" x="278.7988" y="-999.3" font-family="Arial" font-size="14.00" fill="#666666">[BASE TABLE]</text>
<polygon fill="none" stroke="#000000" points="43,-956.5 43,-986.5 379,-986.5 379,-956.5 43,-956.5"/>
<text text-anchor="start" x="50" y="-967.9" font-family="Arial" font-size="14.00" fill="#000000">id </text>
<text text-anchor="start" x="64.7798" y="-967.9" font-family="Arial" font-size="14.00" fill="#666666">[bigint]</text>
<polygon fill="none" stroke="#000000" points="43,-926.5 43,-956.5 379,-956.5 379,-926.5 43,-926.5"/>
<text text-anchor="start" x="50" y="-937.9" font-family="Arial" font-size="14.00" fill="#000000">name </text>
<text text-anchor="start" x="88.899" y="-937.9" font-family="Arial" font-size="14.00" fill="#666666">[varchar(255)]</text>
<polygon fill="none" stroke="#000000" points="43,-896.5 43,-926.5 379,-926.5 379,-896.5 43,-896.5"/>
<text text-anchor="start" x="50" y="-907.9" font-family="Arial" font-size="14.00" fill="#000000">record_type </text>
<text text-anchor="start" x="127.798" y="-907.9" font-family="Arial" font-size="14.00" fill="#666666">[varchar(255)]</text>
<polygon fill="none" stroke="#000000" points="43,-866.5 43,-896.5 379,-896.5 379,-866.5 43,-866.5"/>
<text text-anchor="start" x="50" y="-877.9" font-family="Arial" font-size="14.00" fill="#000000">record_id </text>
<text text-anchor="start" x="112.2314" y="-877.9" font-family="Arial" font-size="14.00" fill="#666666">[bigint]</text>
<polygon fill="none" stroke="#000000" points="43,-836.5 43,-866.5 379,-866.5 379,-836.5 43,-836.5"/>
<text text-anchor="start" x="50" y="-847.9" font-family="Arial" font-size="14.00" fill="#000000">blob_id </text>
<text text-anchor="start" x="99.0168" y="-847.9" font-family="Arial" font-size="14.00" fill="#666666">[bigint]</text>
<polygon fill="none" stroke="#000000" points="43,-806.5 43,-836.5 379,-836.5 379,-806.5 43,-806.5"/>
<text text-anchor="start" x="50" y="-817.9" font-family="Arial" font-size="14.00" fill="#000000">created_at </text>
<text text-anchor="start" x="120.028" y="-817.9" font-family="Arial" font-size="14.00" fill="#666666">[datetime(6)]</text>
</g>
<!-- active_storage_blobs -->
<g id="node2" class="node">
<title>active_storage_blobs</title>
<polygon fill="#efefef" stroke="transparent" points="296,-649.5 296,-684.5 577,-684.5 577,-649.5 296,-649.5"/>
<polygon fill="none" stroke="#000000" points="296,-649.5 296,-684.5 577,-684.5 577,-649.5 296,-649.5"/>
<text text-anchor="start" x="302.8465" y="-662.3" font-family="Arial Bold" font-size="18.00" fill="#000000">active_storage_blobs</text>
<text text-anchor="start" x="472.8997" y="-662.3" font-family="Arial" font-size="14.00" fill="#000000"> </text>
<text text-anchor="start" x="476.7903" y="-662.3" font-family="Arial" font-size="14.00" fill="#666666">[BASE TABLE]</text>
<polygon fill="none" stroke="#000000" points="296,-619.5 296,-649.5 577,-649.5 577,-619.5 296,-619.5"/>
<text text-anchor="start" x="303" y="-630.9" font-family="Arial" font-size="14.00" fill="#000000">id </text>
<text text-anchor="start" x="317.7798" y="-630.9" font-family="Arial" font-size="14.00" fill="#666666">[bigint]</text>
<polygon fill="none" stroke="#000000" points="296,-589.5 296,-619.5 577,-619.5 577,-589.5 296,-589.5"/>
<text text-anchor="start" x="303" y="-600.9" font-family="Arial" font-size="14.00" fill="#000000">key </text>
<text text-anchor="start" x="328.6732" y="-600.9" font-family="Arial" font-size="14.00" fill="#666666">[varchar(255)]</text>
<polygon fill="none" stroke="#000000" points="296,-559.5 296,-589.5 577,-589.5 577,-559.5 296,-559.5"/>
<text text-anchor="start" x="303" y="-570.9" font-family="Arial" font-size="14.00" fill="#000000">filename </text>
<text text-anchor="start" x="359.7854" y="-570.9" font-family="Arial" font-size="14.00" fill="#666666">[varchar(255)]</text>
<polygon fill="none" stroke="#000000" points="296,-529.5 296,-559.5 577,-559.5 577,-529.5 296,-529.5"/>
<text text-anchor="start" x="303" y="-540.9" font-family="Arial" font-size="14.00" fill="#000000">content_type </text>
<text text-anchor="start" x="387.0406" y="-540.9" font-family="Arial" font-size="14.00" fill="#666666">[varchar(255)]</text>
<polygon fill="none" stroke="#000000" points="296,-499.5 296,-529.5 577,-529.5 577,-499.5 296,-499.5"/>
<text text-anchor="start" x="303" y="-510.9" font-family="Arial" font-size="14.00" fill="#000000">metadata </text>
<text text-anchor="start" x="365.2454" y="-510.9" font-family="Arial" font-size="14.00" fill="#666666">[text]</text>
<polygon fill="none" stroke="#000000" points="296,-469.5 296,-499.5 577,-499.5 577,-469.5 296,-469.5"/>
<text text-anchor="start" x="303" y="-480.9" font-family="Arial" font-size="14.00" fill="#000000">service_name </text>
<text text-anchor="start" x="394.014" y="-480.9" font-family="Arial" font-size="14.00" fill="#666666">[varchar(255)]</text>
<polygon fill="none" stroke="#000000" points="296,-439.5 296,-469.5 577,-469.5 577,-439.5 296,-439.5"/>
<text text-anchor="start" x="303" y="-450.9" font-family="Arial" font-size="14.00" fill="#000000">byte_size </text>
<text text-anchor="start" x="366.0182" y="-450.9" font-family="Arial" font-size="14.00" fill="#666666">[bigint]</text>
<polygon fill="none" stroke="#000000" points="296,-409.5 296,-439.5 577,-439.5 577,-409.5 296,-409.5"/>
<text text-anchor="start" x="303" y="-420.9" font-family="Arial" font-size="14.00" fill="#000000">checksum </text>
<text text-anchor="start" x="369.899" y="-420.9" font-family="Arial" font-size="14.00" fill="#666666">[varchar(255)]</text>
<polygon fill="none" stroke="#000000" points="296,-379.5 296,-409.5 577,-409.5 577,-379.5 296,-379.5"/>
<text text-anchor="start" x="303" y="-390.9" font-family="Arial" font-size="14.00" fill="#000000">created_at </text>
<text text-anchor="start" x="373.028" y="-390.9" font-family="Arial" font-size="14.00" fill="#666666">[datetime(6)]</text>
</g>
<!-- active_storage_attachments&#45;&gt;active_storage_blobs -->
<g id="edge1" class="edge">
<title>active_storage_attachments:blob_id&#45;&gt;active_storage_blobs:id</title>
<path fill="none" stroke="#000000" d="M389.1576,-849.8796C414.2847,-840.5625 398.1702,-793.2105 379,-764 356.9383,-730.3835 318.0617,-761.6165 296,-728 273.1996,-693.258 254.4444,-634.5 296,-634.5"/>
<polygon fill="#000000" stroke="#000000" points="388.8751,-849.9246 378.291,-847.0562 383.9376,-850.7123 379,-851.5 379,-851.5 379,-851.5 383.9376,-850.7123 379.709,-855.9438 388.8751,-849.9246 388.8751,-849.9246"/>
<text text-anchor="start" x="386.207" y="-861.5" font-family="Arial" font-size="10.00" fill="#000000">FOREIGN KEY (blob_id) REFERENCES active_storage_blobs (id)</text>
</g>
<!-- active_storage_variant_records -->
<g id="node3" class="node">
<title>active_storage_variant_records</title>
<polygon fill="#efefef" stroke="transparent" points="483,-941.5 483,-976.5 845,-976.5 845,-941.5 483,-941.5"/>
<polygon fill="none" stroke="#000000" points="483,-941.5 483,-976.5 845,-976.5 845,-941.5 483,-941.5"/>
<text text-anchor="start" x="489.8447" y="-954.3" font-family="Arial Bold" font-size="18.00" fill="#000000">active_storage_variant_records</text>
<text text-anchor="start" x="740.9015" y="-954.3" font-family="Arial" font-size="14.00" fill="#000000"> </text>
<text text-anchor="start" x="744.7921" y="-954.3" font-family="Arial" font-size="14.00" fill="#666666">[BASE TABLE]</text>
<polygon fill="none" stroke="#000000" points="483,-911.5 483,-941.5 845,-941.5 845,-911.5 483,-911.5"/>
<text text-anchor="start" x="490" y="-922.9" font-family="Arial" font-size="14.00" fill="#000000">id </text>
<text text-anchor="start" x="504.7798" y="-922.9" font-family="Arial" font-size="14.00" fill="#666666">[bigint]</text>
<polygon fill="none" stroke="#000000" points="483,-881.5 483,-911.5 845,-911.5 845,-881.5 483,-881.5"/>
<text text-anchor="start" x="490" y="-892.9" font-family="Arial" font-size="14.00" fill="#000000">blob_id </text>
<text text-anchor="start" x="539.0168" y="-892.9" font-family="Arial" font-size="14.00" fill="#666666">[bigint]</text>
<polygon fill="none" stroke="#000000" points="483,-851.5 483,-881.5 845,-881.5 845,-851.5 483,-851.5"/>
<text text-anchor="start" x="490" y="-862.9" font-family="Arial" font-size="14.00" fill="#000000">variation_digest </text>
<text text-anchor="start" x="591.913" y="-862.9" font-family="Arial" font-size="14.00" fill="#666666">[varchar(255)]</text>
</g>
<!-- active_storage_variant_records&#45;&gt;active_storage_blobs -->
<g id="edge2" class="edge">
<title>active_storage_variant_records:blob_id&#45;&gt;active_storage_blobs:id</title>
<path fill="none" stroke="#000000" d="M472.9851,-894.9585C448.6522,-886.0807 468.442,-840.7619 483,-809 505.9786,-758.8665 554.0214,-778.1335 577,-728 594.3148,-690.2235 618.5556,-634.5 577,-634.5"/>
<polygon fill="#000000" stroke="#000000" points="473.1164,-894.9786 482.3154,-900.9476 478.0582,-895.7393 483,-896.5 483,-896.5 483,-896.5 478.0582,-895.7393 483.6846,-892.0524 473.1164,-894.9786 473.1164,-894.9786"/>
<text text-anchor="start" x="490.207" y="-906.5" font-family="Arial" font-size="10.00" fill="#000000">FOREIGN KEY (blob_id) REFERENCES active_storage_blobs (id)</text>
</g>
<!-- ar_internal_metadata -->
<g id="node4" class="node">
<title>ar_internal_metadata</title>
<polygon fill="#efefef" stroke="transparent" points="1084,-956.5 1084,-991.5 1365,-991.5 1365,-956.5 1084,-956.5"/>
<polygon fill="none" stroke="#000000" points="1084,-956.5 1084,-991.5 1365,-991.5 1365,-956.5 1084,-956.5"/>
<text text-anchor="start" x="1090.8501" y="-969.3" font-family="Arial Bold" font-size="18.00" fill="#000000">ar_internal_metadata</text>
<text text-anchor="start" x="1260.8961" y="-969.3" font-family="Arial" font-size="14.00" fill="#000000"> </text>
<text text-anchor="start" x="1264.7867" y="-969.3" font-family="Arial" font-size="14.00" fill="#666666">[BASE TABLE]</text>
<polygon fill="none" stroke="#000000" points="1084,-926.5 1084,-956.5 1365,-956.5 1365,-926.5 1084,-926.5"/>
<text text-anchor="start" x="1091" y="-937.9" font-family="Arial" font-size="14.00" fill="#000000">key </text>
<text text-anchor="start" x="1116.6732" y="-937.9" font-family="Arial" font-size="14.00" fill="#666666">[varchar(255)]</text>
<polygon fill="none" stroke="#000000" points="1084,-896.5 1084,-926.5 1365,-926.5 1365,-896.5 1084,-896.5"/>
<text text-anchor="start" x="1091" y="-907.9" font-family="Arial" font-size="14.00" fill="#000000">value </text>
<text text-anchor="start" x="1128.345" y="-907.9" font-family="Arial" font-size="14.00" fill="#666666">[varchar(255)]</text>
<polygon fill="none" stroke="#000000" points="1084,-866.5 1084,-896.5 1365,-896.5 1365,-866.5 1084,-866.5"/>
<text text-anchor="start" x="1091" y="-877.9" font-family="Arial" font-size="14.00" fill="#000000">created_at </text>
<text text-anchor="start" x="1161.028" y="-877.9" font-family="Arial" font-size="14.00" fill="#666666">[datetime(6)]</text>
<polygon fill="none" stroke="#000000" points="1084,-836.5 1084,-866.5 1365,-866.5 1365,-836.5 1084,-836.5"/>
<text text-anchor="start" x="1091" y="-847.9" font-family="Arial" font-size="14.00" fill="#000000">updated_at </text>
<text text-anchor="start" x="1164.9326" y="-847.9" font-family="Arial" font-size="14.00" fill="#666666">[datetime(6)]</text>
</g>
<!-- book_images -->
<g id="node5" class="node">
<title>book_images</title>
<polygon fill="#efefef" stroke="transparent" points="681,-574.5 681,-609.5 899,-609.5 899,-574.5 681,-574.5"/>
<polygon fill="none" stroke="#000000" points="681,-574.5 681,-609.5 899,-609.5 899,-574.5 681,-574.5"/>
<text text-anchor="start" x="687.8582" y="-587.3" font-family="Arial Bold" font-size="18.00" fill="#000000">book_images</text>
<text text-anchor="start" x="794.888" y="-587.3" font-family="Arial" font-size="14.00" fill="#000000"> </text>
<text text-anchor="start" x="798.7786" y="-587.3" font-family="Arial" font-size="14.00" fill="#666666">[BASE TABLE]</text>
<polygon fill="none" stroke="#000000" points="681,-544.5 681,-574.5 899,-574.5 899,-544.5 681,-544.5"/>
<text text-anchor="start" x="688" y="-555.9" font-family="Arial" font-size="14.00" fill="#000000">id </text>
<text text-anchor="start" x="702.7798" y="-555.9" font-family="Arial" font-size="14.00" fill="#666666">[bigint]</text>
<polygon fill="none" stroke="#000000" points="681,-514.5 681,-544.5 899,-544.5 899,-514.5 681,-514.5"/>
<text text-anchor="start" x="688" y="-525.9" font-family="Arial" font-size="14.00" fill="#000000">book_id </text>
<text text-anchor="start" x="740.9102" y="-525.9" font-family="Arial" font-size="14.00" fill="#666666">[bigint]</text>
<polygon fill="none" stroke="#000000" points="681,-484.5 681,-514.5 899,-514.5 899,-484.5 681,-484.5"/>
<text text-anchor="start" x="688" y="-495.9" font-family="Arial" font-size="14.00" fill="#000000">created_at </text>
<text text-anchor="start" x="758.028" y="-495.9" font-family="Arial" font-size="14.00" fill="#666666">[datetime(6)]</text>
<polygon fill="none" stroke="#000000" points="681,-454.5 681,-484.5 899,-484.5 899,-454.5 681,-454.5"/>
<text text-anchor="start" x="688" y="-465.9" font-family="Arial" font-size="14.00" fill="#000000">updated_at </text>
<text text-anchor="start" x="761.9326" y="-465.9" font-family="Arial" font-size="14.00" fill="#666666">[datetime(6)]</text>
</g>
<!-- books -->
<g id="node6" class="node">
<title>books</title>
<polygon fill="#efefef" stroke="transparent" points="865,-192.5 865,-227.5 1031,-227.5 1031,-192.5 865,-192.5"/>
<polygon fill="none" stroke="#000000" points="865,-192.5 865,-227.5 1031,-227.5 1031,-192.5 865,-192.5"/>
<text text-anchor="start" x="875.3638" y="-205.3" font-family="Arial Bold" font-size="18.00" fill="#000000">books</text>
<text text-anchor="start" x="923.3824" y="-205.3" font-family="Arial" font-size="14.00" fill="#000000"> </text>
<text text-anchor="start" x="927.273" y="-205.3" font-family="Arial" font-size="14.00" fill="#666666">[BASE TABLE]</text>
<polygon fill="none" stroke="#000000" points="865,-162.5 865,-192.5 1031,-192.5 1031,-162.5 865,-162.5"/>
<text text-anchor="start" x="872" y="-173.9" font-family="Arial" font-size="14.00" fill="#000000">id </text>
<text text-anchor="start" x="886.7798" y="-173.9" font-family="Arial" font-size="14.00" fill="#666666">[bigint]</text>
<polygon fill="none" stroke="#000000" points="865,-132.5 865,-162.5 1031,-162.5 1031,-132.5 865,-132.5"/>
<text text-anchor="start" x="872" y="-143.9" font-family="Arial" font-size="14.00" fill="#000000">title </text>
<text text-anchor="start" x="897.6676" y="-143.9" font-family="Arial" font-size="14.00" fill="#666666">[varchar(255)]</text>
<polygon fill="none" stroke="#000000" points="865,-102.5 865,-132.5 1031,-132.5 1031,-102.5 865,-102.5"/>
<text text-anchor="start" x="872" y="-113.9" font-family="Arial" font-size="14.00" fill="#000000">created_at </text>
<text text-anchor="start" x="942.028" y="-113.9" font-family="Arial" font-size="14.00" fill="#666666">[datetime(6)]</text>
<polygon fill="none" stroke="#000000" points="865,-72.5 865,-102.5 1031,-102.5 1031,-72.5 865,-72.5"/>
<text text-anchor="start" x="871.7518" y="-83.9" font-family="Arial" font-size="14.00" fill="#000000">updated_at </text>
<text text-anchor="start" x="945.6844" y="-83.9" font-family="Arial" font-size="14.00" fill="#666666">[datetime(6)]</text>
</g>
<!-- book_images&#45;&gt;books -->
<g id="edge3" class="edge">
<title>book_images:book_id&#45;&gt;books:id</title>
<path fill="none" stroke="#000000" d="M909.2311,-528.929C1040.1216,-513.1934 711.5112,-177.5 865,-177.5"/>
<polygon fill="#000000" stroke="#000000" points="908.9845,-528.9427 898.7492,-525.007 903.9922,-529.2213 899,-529.5 899,-529.5 899,-529.5 903.9922,-529.2213 899.2508,-533.993 908.9845,-528.9427 908.9845,-528.9427"/>
<text text-anchor="start" x="905.715" y="-539.5" font-family="Arial" font-size="10.00" fill="#000000">FOREIGN KEY (book_id) REFERENCES books (id)</text>
</g>
<!-- portfolios -->
<g id="node7" class="node">
<title>portfolios</title>
<polygon fill="#efefef" stroke="transparent" points="1311,-604.5 1311,-639.5 1495,-639.5 1495,-604.5 1311,-604.5"/>
<polygon fill="none" stroke="#000000" points="1311,-604.5 1311,-639.5 1495,-639.5 1495,-604.5 1311,-604.5"/>
<text text-anchor="start" x="1317.8682" y="-617.3" font-family="Arial Bold" font-size="18.00" fill="#000000">portfolios</text>
<text text-anchor="start" x="1390.878" y="-617.3" font-family="Arial" font-size="14.00" fill="#000000"> </text>
<text text-anchor="start" x="1394.7686" y="-617.3" font-family="Arial" font-size="14.00" fill="#666666">[BASE TABLE]</text>
<polygon fill="none" stroke="#000000" points="1311,-574.5 1311,-604.5 1495,-604.5 1495,-574.5 1311,-574.5"/>
<text text-anchor="start" x="1318" y="-585.9" font-family="Arial" font-size="14.00" fill="#000000">id </text>
<text text-anchor="start" x="1332.7798" y="-585.9" font-family="Arial" font-size="14.00" fill="#666666">[bigint]</text>
<polygon fill="none" stroke="#000000" points="1311,-544.5 1311,-574.5 1495,-574.5 1495,-544.5 1311,-544.5"/>
<text text-anchor="start" x="1318" y="-555.9" font-family="Arial" font-size="14.00" fill="#000000">user_id </text>
<text text-anchor="start" x="1367.7882" y="-555.9" font-family="Arial" font-size="14.00" fill="#666666">[bigint]</text>
<polygon fill="none" stroke="#000000" points="1311,-514.5 1311,-544.5 1495,-544.5 1495,-514.5 1311,-514.5"/>
<text text-anchor="start" x="1318" y="-525.9" font-family="Arial" font-size="14.00" fill="#000000">name </text>
<text text-anchor="start" x="1356.899" y="-525.9" font-family="Arial" font-size="14.00" fill="#666666">[varchar(255)]</text>
<polygon fill="none" stroke="#000000" points="1311,-484.5 1311,-514.5 1495,-514.5 1495,-484.5 1311,-484.5"/>
<text text-anchor="start" x="1318" y="-495.9" font-family="Arial" font-size="14.00" fill="#000000">url </text>
<text text-anchor="start" x="1337.4404" y="-495.9" font-family="Arial" font-size="14.00" fill="#666666">[varchar(255)]</text>
<polygon fill="none" stroke="#000000" points="1311,-454.5 1311,-484.5 1495,-484.5 1495,-454.5 1311,-454.5"/>
<text text-anchor="start" x="1318" y="-465.9" font-family="Arial" font-size="14.00" fill="#000000">created_at </text>
<text text-anchor="start" x="1388.028" y="-465.9" font-family="Arial" font-size="14.00" fill="#666666">[datetime(6)]</text>
<polygon fill="none" stroke="#000000" points="1311,-424.5 1311,-454.5 1495,-454.5 1495,-424.5 1311,-424.5"/>
<text text-anchor="start" x="1318" y="-435.9" font-family="Arial" font-size="14.00" fill="#000000">updated_at </text>
<text text-anchor="start" x="1391.9326" y="-435.9" font-family="Arial" font-size="14.00" fill="#666666">[datetime(6)]</text>
</g>
<!-- users -->
<g id="node12" class="node">
<title>users</title>
<polygon fill="#efefef" stroke="transparent" points="1320,-222.5 1320,-257.5 1486,-257.5 1486,-222.5 1320,-222.5"/>
<polygon fill="none" stroke="#000000" points="1320,-222.5 1320,-257.5 1486,-257.5 1486,-222.5 1320,-222.5"/>
<text text-anchor="start" x="1332.3708" y="-235.3" font-family="Arial Bold" font-size="18.00" fill="#000000">users</text>
<text text-anchor="start" x="1376.3754" y="-235.3" font-family="Arial" font-size="14.00" fill="#000000"> </text>
<text text-anchor="start" x="1380.266" y="-235.3" font-family="Arial" font-size="14.00" fill="#666666">[BASE TABLE]</text>
<polygon fill="none" stroke="#000000" points="1320,-192.5 1320,-222.5 1486,-222.5 1486,-192.5 1320,-192.5"/>
<text text-anchor="start" x="1327" y="-203.9" font-family="Arial" font-size="14.00" fill="#000000">id </text>
<text text-anchor="start" x="1341.7798" y="-203.9" font-family="Arial" font-size="14.00" fill="#666666">[bigint]</text>
<polygon fill="none" stroke="#000000" points="1320,-162.5 1320,-192.5 1486,-192.5 1486,-162.5 1320,-162.5"/>
<text text-anchor="start" x="1327" y="-173.9" font-family="Arial" font-size="14.00" fill="#000000">name </text>
<text text-anchor="start" x="1365.899" y="-173.9" font-family="Arial" font-size="14.00" fill="#666666">[varchar(255)]</text>
<polygon fill="none" stroke="#000000" points="1320,-132.5 1320,-162.5 1486,-162.5 1486,-132.5 1320,-132.5"/>
<text text-anchor="start" x="1327" y="-143.9" font-family="Arial" font-size="14.00" fill="#000000">email </text>
<text text-anchor="start" x="1364.3296" y="-143.9" font-family="Arial" font-size="14.00" fill="#666666">[varchar(255)]</text>
<polygon fill="none" stroke="#000000" points="1320,-102.5 1320,-132.5 1486,-132.5 1486,-102.5 1320,-102.5"/>
<text text-anchor="start" x="1327" y="-113.9" font-family="Arial" font-size="14.00" fill="#000000">locale </text>
<text text-anchor="start" x="1367.4516" y="-113.9" font-family="Arial" font-size="14.00" fill="#666666">[int]</text>
<polygon fill="none" stroke="#000000" points="1320,-72.5 1320,-102.5 1486,-102.5 1486,-72.5 1320,-72.5"/>
<text text-anchor="start" x="1327" y="-83.9" font-family="Arial" font-size="14.00" fill="#000000">created_at </text>
<text text-anchor="start" x="1397.028" y="-83.9" font-family="Arial" font-size="14.00" fill="#666666">[datetime(6)]</text>
<polygon fill="none" stroke="#000000" points="1320,-42.5 1320,-72.5 1486,-72.5 1486,-42.5 1320,-42.5"/>
<text text-anchor="start" x="1326.7518" y="-53.9" font-family="Arial" font-size="14.00" fill="#000000">updated_at </text>
<text text-anchor="start" x="1400.6844" y="-53.9" font-family="Arial" font-size="14.00" fill="#666666">[datetime(6)]</text>
</g>
<!-- portfolios&#45;&gt;users -->
<g id="edge4" class="edge">
<title>portfolios:user_id&#45;&gt;users:id</title>
<path fill="none" stroke="#000000" d="M1503.2971,-553.3904C1532.5338,-506.6484 1522.0673,-207.5 1486,-207.5"/>
<polygon fill="#000000" stroke="#000000" points="1503.0524,-553.5705 1492.3317,-555.8764 1499.0262,-556.5352 1495,-559.5 1495,-559.5 1495,-559.5 1499.0262,-556.5352 1497.6683,-563.1236 1503.0524,-553.5705 1503.0524,-553.5705"/>
<text text-anchor="start" x="1501.945" y="-569.5" font-family="Arial" font-size="10.00" fill="#000000">FOREIGN KEY (user_id) REFERENCES users (id)</text>
</g>
<!-- profiles -->
<g id="node8" class="node">
<title>profiles</title>
<polygon fill="#efefef" stroke="transparent" points="1600,-589.5 1600,-624.5 1769,-624.5 1769,-589.5 1600,-589.5"/>
<polygon fill="none" stroke="#000000" points="1600,-589.5 1600,-624.5 1769,-624.5 1769,-589.5 1600,-589.5"/>
<text text-anchor="start" x="1606.8724" y="-602.3" font-family="Arial Bold" font-size="18.00" fill="#000000">profiles</text>
<text text-anchor="start" x="1664.8738" y="-602.3" font-family="Arial" font-size="14.00" fill="#000000"> </text>
<text text-anchor="start" x="1668.7644" y="-602.3" font-family="Arial" font-size="14.00" fill="#666666">[BASE TABLE]</text>
<polygon fill="none" stroke="#000000" points="1600,-559.5 1600,-589.5 1769,-589.5 1769,-559.5 1600,-559.5"/>
<text text-anchor="start" x="1607" y="-570.9" font-family="Arial" font-size="14.00" fill="#000000">id </text>
<text text-anchor="start" x="1621.7798" y="-570.9" font-family="Arial" font-size="14.00" fill="#666666">[bigint]</text>
<polygon fill="none" stroke="#000000" points="1600,-529.5 1600,-559.5 1769,-559.5 1769,-529.5 1600,-529.5"/>
<text text-anchor="start" x="1607" y="-540.9" font-family="Arial" font-size="14.00" fill="#000000">user_id </text>
<text text-anchor="start" x="1656.7882" y="-540.9" font-family="Arial" font-size="14.00" fill="#666666">[bigint]</text>
<polygon fill="none" stroke="#000000" points="1600,-499.5 1600,-529.5 1769,-529.5 1769,-499.5 1600,-499.5"/>
<text text-anchor="start" x="1607" y="-510.9" font-family="Arial" font-size="14.00" fill="#000000">address </text>
<text text-anchor="start" x="1660.6816" y="-510.9" font-family="Arial" font-size="14.00" fill="#666666">[varchar(255)]</text>
<polygon fill="none" stroke="#000000" points="1600,-469.5 1600,-499.5 1769,-499.5 1769,-469.5 1600,-469.5"/>
<text text-anchor="start" x="1607" y="-480.9" font-family="Arial" font-size="14.00" fill="#000000">created_at </text>
<text text-anchor="start" x="1677.028" y="-480.9" font-family="Arial" font-size="14.00" fill="#666666">[datetime(6)]</text>
<polygon fill="none" stroke="#000000" points="1600,-439.5 1600,-469.5 1769,-469.5 1769,-439.5 1600,-439.5"/>
<text text-anchor="start" x="1607" y="-450.9" font-family="Arial" font-size="14.00" fill="#000000">updated_at </text>
<text text-anchor="start" x="1680.9326" y="-450.9" font-family="Arial" font-size="14.00" fill="#666666">[datetime(6)]</text>
</g>
<!-- profiles&#45;&gt;users -->
<g id="edge5" class="edge">
<title>profiles:user_id&#45;&gt;users:id</title>
<path fill="none" stroke="#000000" d="M1589.6055,-543.9689C1510.4658,-535.33 1577.9456,-423.0709 1547,-337 1525.4749,-277.1308 1549.6212,-207.5 1486,-207.5"/>
<polygon fill="#000000" stroke="#000000" points="1590.013,-543.9896 1599.7703,-548.9941 1595.0065,-544.2448 1600,-544.5 1600,-544.5 1600,-544.5 1595.0065,-544.2448 1600.2297,-540.0059 1590.013,-543.9896 1590.013,-543.9896"/>
<text text-anchor="start" x="1606.945" y="-528.5" font-family="Arial" font-size="10.00" fill="#000000">FOREIGN KEY (user_id) REFERENCES users (id)</text>
</g>
<!-- schema_migrations -->
<g id="node9" class="node">
<title>schema_migrations</title>
<polygon fill="#efefef" stroke="transparent" points="1873,-911.5 1873,-946.5 2140,-946.5 2140,-911.5 1873,-911.5"/>
<polygon fill="none" stroke="#000000" points="1873,-911.5 1873,-946.5 2140,-946.5 2140,-911.5 1873,-911.5"/>
<text text-anchor="start" x="1879.8647" y="-924.3" font-family="Arial Bold" font-size="18.00" fill="#000000">schema_migrations</text>
<text text-anchor="start" x="2035.8815" y="-924.3" font-family="Arial" font-size="14.00" fill="#000000"> </text>
<text text-anchor="start" x="2039.7721" y="-924.3" font-family="Arial" font-size="14.00" fill="#666666">[BASE TABLE]</text>
<polygon fill="none" stroke="#000000" points="1873,-881.5 1873,-911.5 2140,-911.5 2140,-881.5 1873,-881.5"/>
<text text-anchor="start" x="1880" y="-892.9" font-family="Arial" font-size="14.00" fill="#000000">version </text>
<text text-anchor="start" x="1929.0056" y="-892.9" font-family="Arial" font-size="14.00" fill="#666666">[varchar(255)]</text>
</g>
<!-- skills -->
<g id="node10" class="node">
<title>skills</title>
<polygon fill="#efefef" stroke="transparent" points="1602,-971.5 1602,-1006.5 1768,-1006.5 1768,-971.5 1602,-971.5"/>
<polygon fill="none" stroke="#000000" points="1602,-971.5 1602,-1006.5 1768,-1006.5 1768,-971.5 1602,-971.5"/>
<text text-anchor="start" x="1616.8818" y="-984.3" font-family="Arial Bold" font-size="18.00" fill="#000000">skills</text>
<text text-anchor="start" x="1655.8644" y="-984.3" font-family="Arial" font-size="14.00" fill="#000000"> </text>
<text text-anchor="start" x="1659.755" y="-984.3" font-family="Arial" font-size="14.00" fill="#666666">[BASE TABLE]</text>
<polygon fill="none" stroke="#000000" points="1602,-941.5 1602,-971.5 1768,-971.5 1768,-941.5 1602,-941.5"/>
<text text-anchor="start" x="1609" y="-952.9" font-family="Arial" font-size="14.00" fill="#000000">id </text>
<text text-anchor="start" x="1623.7798" y="-952.9" font-family="Arial" font-size="14.00" fill="#666666">[bigint]</text>
<polygon fill="none" stroke="#000000" points="1602,-911.5 1602,-941.5 1768,-941.5 1768,-911.5 1602,-911.5"/>
<text text-anchor="start" x="1609" y="-922.9" font-family="Arial" font-size="14.00" fill="#000000">profile_id </text>
<text text-anchor="start" x="1669.6746" y="-922.9" font-family="Arial" font-size="14.00" fill="#666666">[bigint]</text>
<polygon fill="none" stroke="#000000" points="1602,-881.5 1602,-911.5 1768,-911.5 1768,-881.5 1602,-881.5"/>
<text text-anchor="start" x="1609" y="-892.9" font-family="Arial" font-size="14.00" fill="#000000">name </text>
<text text-anchor="start" x="1647.899" y="-892.9" font-family="Arial" font-size="14.00" fill="#666666">[varchar(255)]</text>
<polygon fill="none" stroke="#000000" points="1602,-851.5 1602,-881.5 1768,-881.5 1768,-851.5 1602,-851.5"/>
<text text-anchor="start" x="1609" y="-862.9" font-family="Arial" font-size="14.00" fill="#000000">created_at </text>
<text text-anchor="start" x="1679.028" y="-862.9" font-family="Arial" font-size="14.00" fill="#666666">[datetime(6)]</text>
<polygon fill="none" stroke="#000000" points="1602,-821.5 1602,-851.5 1768,-851.5 1768,-821.5 1602,-821.5"/>
<text text-anchor="start" x="1608.7518" y="-832.9" font-family="Arial" font-size="14.00" fill="#000000">updated_at </text>
<text text-anchor="start" x="1682.6844" y="-832.9" font-family="Arial" font-size="14.00" fill="#666666">[datetime(6)]</text>
</g>
<!-- skills&#45;&gt;profiles -->
<g id="edge6" class="edge">
<title>skills:profile_id&#45;&gt;profiles:id</title>
<path fill="none" stroke="#000000" d="M1591.8056,-925.6586C1540.3504,-916.4386 1572.7815,-833.5047 1602,-779 1644.1072,-700.4526 1726.8928,-746.5474 1769,-668 1788.6337,-631.3751 1810.5556,-574.5 1769,-574.5"/>
<polygon fill="#000000" stroke="#000000" points="1592.0339,-925.6773 1601.6298,-930.9847 1597.0169,-926.0887 1602,-926.5 1602,-926.5 1602,-926.5 1597.0169,-926.0887 1602.3702,-922.0153 1592.0339,-925.6773 1592.0339,-925.6773"/>
<text text-anchor="start" x="1417.919" y="-910.5" font-family="Arial" font-size="10.00" fill="#000000">FOREIGN KEY (profile_id) REFERENCES profiles (id)</text>
</g>
<!-- user_books -->
<g id="node11" class="node">
<title>user_books</title>
<polygon fill="#efefef" stroke="transparent" points="1003,-589.5 1003,-624.5 1207,-624.5 1207,-589.5 1003,-589.5"/>
<polygon fill="none" stroke="#000000" points="1003,-589.5 1003,-624.5 1207,-624.5 1207,-589.5 1003,-589.5"/>
<text text-anchor="start" x="1009.8584" y="-602.3" font-family="Arial Bold" font-size="18.00" fill="#000000">user_books</text>
<text text-anchor="start" x="1102.8878" y="-602.3" font-family="Arial" font-size="14.00" fill="#000000"> </text>
<text text-anchor="start" x="1106.7784" y="-602.3" font-family="Arial" font-size="14.00" fill="#666666">[BASE TABLE]</text>
<polygon fill="none" stroke="#000000" points="1003,-559.5 1003,-589.5 1207,-589.5 1207,-559.5 1003,-559.5"/>
<text text-anchor="start" x="1010" y="-570.9" font-family="Arial" font-size="14.00" fill="#000000">id </text>
<text text-anchor="start" x="1024.7798" y="-570.9" font-family="Arial" font-size="14.00" fill="#666666">[bigint]</text>
<polygon fill="none" stroke="#000000" points="1003,-529.5 1003,-559.5 1207,-559.5 1207,-529.5 1003,-529.5"/>
<text text-anchor="start" x="1010" y="-540.9" font-family="Arial" font-size="14.00" fill="#000000">user_id </text>
<text text-anchor="start" x="1059.7882" y="-540.9" font-family="Arial" font-size="14.00" fill="#666666">[bigint]</text>
<polygon fill="none" stroke="#000000" points="1003,-499.5 1003,-529.5 1207,-529.5 1207,-499.5 1003,-499.5"/>
<text text-anchor="start" x="1010" y="-510.9" font-family="Arial" font-size="14.00" fill="#000000">book_id </text>
<text text-anchor="start" x="1062.9102" y="-510.9" font-family="Arial" font-size="14.00" fill="#666666">[bigint]</text>
<polygon fill="none" stroke="#000000" points="1003,-469.5 1003,-499.5 1207,-499.5 1207,-469.5 1003,-469.5"/>
<text text-anchor="start" x="1010" y="-480.9" font-family="Arial" font-size="14.00" fill="#000000">created_at </text>
<text text-anchor="start" x="1080.028" y="-480.9" font-family="Arial" font-size="14.00" fill="#666666">[datetime(6)]</text>
<polygon fill="none" stroke="#000000" points="1003,-439.5 1003,-469.5 1207,-469.5 1207,-439.5 1003,-439.5"/>
<text text-anchor="start" x="1010" y="-450.9" font-family="Arial" font-size="14.00" fill="#000000">updated_at </text>
<text text-anchor="start" x="1083.9326" y="-450.9" font-family="Arial" font-size="14.00" fill="#666666">[datetime(6)]</text>
</g>
<!-- user_books&#45;&gt;books -->
<g id="edge7" class="edge">
<title>user_books:book_id&#45;&gt;books:id</title>
<path fill="none" stroke="#000000" d="M992.8345,-513.9072C868.465,-498.2458 1177.6246,-177.5 1031,-177.5"/>
<polygon fill="#000000" stroke="#000000" points="993.017,-513.9178 1002.738,-518.9924 998.0085,-514.2089 1003,-514.5 1003,-514.5 1003,-514.5 998.0085,-514.2089 1003.262,-510.0076 993.017,-513.9178 993.017,-513.9178"/>
<text text-anchor="start" x="948.715" y="-498.5" font-family="Arial" font-size="10.00" fill="#000000">FOREIGN KEY (book_id) REFERENCES books (id)</text>
</g>
<!-- user_books&#45;&gt;users -->
<g id="edge8" class="edge">
<title>user_books:user_id&#45;&gt;users:id</title>
<path fill="none" stroke="#000000" d="M1217.3793,-543.9687C1296.3749,-535.3277 1228.2846,-423.0421 1259,-337 1280.3895,-277.0822 1256.3788,-207.5 1320,-207.5"/>
<polygon fill="#000000" stroke="#000000" points="1216.9869,-543.9887 1206.7699,-540.0059 1211.9935,-544.2444 1207,-544.5 1207,-544.5 1207,-544.5 1211.9935,-544.2444 1207.2301,-548.9941 1216.9869,-543.9887 1216.9869,-543.9887"/>
<text text-anchor="start" x="1213.945" y="-554.5" font-family="Arial" font-size="10.00" fill="#000000">FOREIGN KEY (user_id) REFERENCES users (id)</text>
</g>
</g>
</svg>
