<?xml version="1.0" encoding="UTF-8" standalone="no"?>
<!DOCTYPE svg PUBLIC "-//W3C//DTD SVG 1.1//EN"
 "http://www.w3.org/Graphics/SVG/1.1/DTD/svg11.dtd">
<!-- Generated by graphviz version 2.40.1 (20161225.0304)
 -->
<!-- Title: app_development Pages: 1 -->
<svg width="1017pt" height="279pt"
 viewBox="0.00 0.00 1016.50 279.00" xmlns="http://www.w3.org/2000/svg" xmlns:xlink="http://www.w3.org/1999/xlink">
<g id="graph0" class="graph" transform="scale(1 1) rotate(0) translate(4 275)">
<title>app_development</title>
<polygon fill="#ffffff" stroke="transparent" points="-4,4 -4,-275 1012.5,-275 1012.5,4 -4,4"/>
<!-- ar_internal_metadata -->
<g id="node1" class="node">
<title>ar_internal_metadata</title>
<polygon fill="#efefef" stroke="transparent" points="43.5,-177.5 43.5,-212.5 324.5,-212.5 324.5,-177.5 43.5,-177.5"/>
<polygon fill="none" stroke="#000000" points="43.5,-177.5 43.5,-212.5 324.5,-212.5 324.5,-177.5 43.5,-177.5"/>
<text text-anchor="start" x="50.3501" y="-190.3" font-family="Arial Bold" font-size="18.00" fill="#000000">ar_internal_metadata</text>
<text text-anchor="start" x="220.3961" y="-190.3" font-family="Arial" font-size="14.00" fill="#000000"> </text>
<text text-anchor="start" x="224.2867" y="-190.3" font-family="Arial" font-size="14.00" fill="#666666">[BASE TABLE]</text>
<polygon fill="none" stroke="#000000" points="43.5,-147.5 43.5,-177.5 324.5,-177.5 324.5,-147.5 43.5,-147.5"/>
<text text-anchor="start" x="50.5" y="-158.9" font-family="Arial" font-size="14.00" fill="#000000">key </text>
<text text-anchor="start" x="76.1732" y="-158.9" font-family="Arial" font-size="14.00" fill="#666666">[varchar(255)]</text>
<polygon fill="none" stroke="#000000" points="43.5,-117.5 43.5,-147.5 324.5,-147.5 324.5,-117.5 43.5,-117.5"/>
<text text-anchor="start" x="50.5" y="-128.9" font-family="Arial" font-size="14.00" fill="#000000">value </text>
<text text-anchor="start" x="87.845" y="-128.9" font-family="Arial" font-size="14.00" fill="#666666">[varchar(255)]</text>
<polygon fill="none" stroke="#000000" points="43.5,-87.5 43.5,-117.5 324.5,-117.5 324.5,-87.5 43.5,-87.5"/>
<text text-anchor="start" x="50.5" y="-98.9" font-family="Arial" font-size="14.00" fill="#000000">created_at </text>
<text text-anchor="start" x="120.528" y="-98.9" font-family="Arial" font-size="14.00" fill="#666666">[datetime(6)]</text>
<polygon fill="none" stroke="#000000" points="43.5,-57.5 43.5,-87.5 324.5,-87.5 324.5,-57.5 43.5,-57.5"/>
<text text-anchor="start" x="50.5" y="-68.9" font-family="Arial" font-size="14.00" fill="#000000">updated_at </text>
<text text-anchor="start" x="124.4326" y="-68.9" font-family="Arial" font-size="14.00" fill="#666666">[datetime(6)]</text>
</g>
<!-- schema_migrations -->
<g id="node2" class="node">
<title>schema_migrations</title>
<polygon fill="#efefef" stroke="transparent" points="428.5,-132.5 428.5,-167.5 695.5,-167.5 695.5,-132.5 428.5,-132.5"/>
<polygon fill="none" stroke="#000000" points="428.5,-132.5 428.5,-167.5 695.5,-167.5 695.5,-132.5 428.5,-132.5"/>
<text text-anchor="start" x="435.3647" y="-145.3" font-family="Arial Bold" font-size="18.00" fill="#000000">schema_migrations</text>
<text text-anchor="start" x="591.3815" y="-145.3" font-family="Arial" font-size="14.00" fill="#000000"> </text>
<text text-anchor="start" x="595.2721" y="-145.3" font-family="Arial" font-size="14.00" fill="#666666">[BASE TABLE]</text>
<polygon fill="none" stroke="#000000" points="428.5,-102.5 428.5,-132.5 695.5,-132.5 695.5,-102.5 428.5,-102.5"/>
<text text-anchor="start" x="435.5" y="-113.9" font-family="Arial" font-size="14.00" fill="#000000">version </text>
<text text-anchor="start" x="484.5056" y="-113.9" font-family="Arial" font-size="14.00" fill="#666666">[varchar(255)]</text>
</g>
<!-- users -->
<g id="node3" class="node">
<title>users</title>
<polygon fill="#efefef" stroke="transparent" points="799.5,-192.5 799.5,-227.5 965.5,-227.5 965.5,-192.5 799.5,-192.5"/>
<polygon fill="none" stroke="#000000" points="799.5,-192.5 799.5,-227.5 965.5,-227.5 965.5,-192.5 799.5,-192.5"/>
<text text-anchor="start" x="811.8708" y="-205.3" font-family="Arial Bold" font-size="18.00" fill="#000000">users</text>
<text text-anchor="start" x="855.8754" y="-205.3" font-family="Arial" font-size="14.00" fill="#000000"> </text>
<text text-anchor="start" x="859.766" y="-205.3" font-family="Arial" font-size="14.00" fill="#666666">[BASE TABLE]</text>
<polygon fill="none" stroke="#000000" points="799.5,-162.5 799.5,-192.5 965.5,-192.5 965.5,-162.5 799.5,-162.5"/>
<text text-anchor="start" x="806.5" y="-173.9" font-family="Arial" font-size="14.00" fill="#000000">id </text>
<text text-anchor="start" x="821.2798" y="-173.9" font-family="Arial" font-size="14.00" fill="#666666">[bigint]</text>
<polygon fill="none" stroke="#000000" points="799.5,-132.5 799.5,-162.5 965.5,-162.5 965.5,-132.5 799.5,-132.5"/>
<text text-anchor="start" x="806.5" y="-143.9" font-family="Arial" font-size="14.00" fill="#000000">name </text>
<text text-anchor="start" x="845.399" y="-143.9" font-family="Arial" font-size="14.00" fill="#666666">[varchar(255)]</text>
<polygon fill="none" stroke="#000000" points="799.5,-102.5 799.5,-132.5 965.5,-132.5 965.5,-102.5 799.5,-102.5"/>
<text text-anchor="start" x="806.5" y="-113.9" font-family="Arial" font-size="14.00" fill="#000000">locale </text>
<text text-anchor="start" x="846.9516" y="-113.9" font-family="Arial" font-size="14.00" fill="#666666">[int]</text>
<polygon fill="none" stroke="#000000" points="799.5,-72.5 799.5,-102.5 965.5,-102.5 965.5,-72.5 799.5,-72.5"/>
<text text-anchor="start" x="806.5" y="-83.9" font-family="Arial" font-size="14.00" fill="#000000">created_at </text>
<text text-anchor="start" x="876.528" y="-83.9" font-family="Arial" font-size="14.00" fill="#666666">[datetime(6)]</text>
<polygon fill="none" stroke="#000000" points="799.5,-42.5 799.5,-72.5 965.5,-72.5 965.5,-42.5 799.5,-42.5"/>
<text text-anchor="start" x="806.2518" y="-53.9" font-family="Arial" font-size="14.00" fill="#000000">updated_at </text>
<text text-anchor="start" x="880.1844" y="-53.9" font-family="Arial" font-size="14.00" fill="#666666">[datetime(6)]</text>
</g>
</g>
</svg>
