<?xml version="1.0" encoding="UTF-8" standalone="no"?>
<!DOCTYPE svg PUBLIC "-//W3C//DTD SVG 1.1//EN"
 "http://www.w3.org/Graphics/SVG/1.1/DTD/svg11.dtd">
<!-- Generated by graphviz version 2.40.1 (20161225.0304)
 -->
<!-- Title: app_development Pages: 1 -->
<svg width="1923pt" height="736pt"
 viewBox="0.00 0.00 1923.00 736.00" xmlns="http://www.w3.org/2000/svg" xmlns:xlink="http://www.w3.org/1999/xlink">
<g id="graph0" class="graph" transform="scale(1 1) rotate(0) translate(4 732)">
<title>app_development</title>
<polygon fill="#ffffff" stroke="transparent" points="-4,4 -4,-732 1919,-732 1919,4 -4,4"/>
<!-- active_storage_attachments -->
<g id="node1" class="node">
<title>active_storage_attachments</title>
<polygon fill="#efefef" stroke="transparent" points="43,-649.5 43,-684.5 379,-684.5 379,-649.5 43,-649.5"/>
<polygon fill="none" stroke="#000000" points="43,-649.5 43,-684.5 379,-684.5 379,-649.5 43,-649.5"/>
<text text-anchor="start" x="49.838" y="-662.3" font-family="Arial Bold" font-size="18.00" fill="#000000">active_storage_attachments</text>
<text text-anchor="start" x="274.9082" y="-662.3" font-family="Arial" font-size="14.00" fill="#000000"> </text>
<text text-anchor="start" x="278.7988" y="-662.3" font-family="Arial" font-size="14.00" fill="#666666">[BASE TABLE]</text>
<polygon fill="none" stroke="#000000" points="43,-619.5 43,-649.5 379,-649.5 379,-619.5 43,-619.5"/>
<text text-anchor="start" x="50" y="-630.9" font-family="Arial" font-size="14.00" fill="#000000">id </text>
<text text-anchor="start" x="64.7798" y="-630.9" font-family="Arial" font-size="14.00" fill="#666666">[bigint]</text>
<polygon fill="none" stroke="#000000" points="43,-589.5 43,-619.5 379,-619.5 379,-589.5 43,-589.5"/>
<text text-anchor="start" x="50" y="-600.9" font-family="Arial" font-size="14.00" fill="#000000">name </text>
<text text-anchor="start" x="88.899" y="-600.9" font-family="Arial" font-size="14.00" fill="#666666">[varchar(255)]</text>
<polygon fill="none" stroke="#000000" points="43,-559.5 43,-589.5 379,-589.5 379,-559.5 43,-559.5"/>
<text text-anchor="start" x="50" y="-570.9" font-family="Arial" font-size="14.00" fill="#000000">record_type </text>
<text text-anchor="start" x="127.798" y="-570.9" font-family="Arial" font-size="14.00" fill="#666666">[varchar(255)]</text>
<polygon fill="none" stroke="#000000" points="43,-529.5 43,-559.5 379,-559.5 379,-529.5 43,-529.5"/>
<text text-anchor="start" x="50" y="-540.9" font-family="Arial" font-size="14.00" fill="#000000">record_id </text>
<text text-anchor="start" x="112.2314" y="-540.9" font-family="Arial" font-size="14.00" fill="#666666">[bigint]</text>
<polygon fill="none" stroke="#000000" points="43,-499.5 43,-529.5 379,-529.5 379,-499.5 43,-499.5"/>
<text text-anchor="start" x="50" y="-510.9" font-family="Arial" font-size="14.00" fill="#000000">blob_id </text>
<text text-anchor="start" x="99.0168" y="-510.9" font-family="Arial" font-size="14.00" fill="#666666">[bigint]</text>
<polygon fill="none" stroke="#000000" points="43,-469.5 43,-499.5 379,-499.5 379,-469.5 43,-469.5"/>
<text text-anchor="start" x="50" y="-480.9" font-family="Arial" font-size="14.00" fill="#000000">created_at </text>
<text text-anchor="start" x="120.028" y="-480.9" font-family="Arial" font-size="14.00" fill="#666666">[datetime]</text>
</g>
<!-- active_storage_blobs -->
<g id="node2" class="node">
<title>active_storage_blobs</title>
<polygon fill="#efefef" stroke="transparent" points="296,-312.5 296,-347.5 577,-347.5 577,-312.5 296,-312.5"/>
<polygon fill="none" stroke="#000000" points="296,-312.5 296,-347.5 577,-347.5 577,-312.5 296,-312.5"/>
<text text-anchor="start" x="302.8465" y="-325.3" font-family="Arial Bold" font-size="18.00" fill="#000000">active_storage_blobs</text>
<text text-anchor="start" x="472.8997" y="-325.3" font-family="Arial" font-size="14.00" fill="#000000"> </text>
<text text-anchor="start" x="476.7903" y="-325.3" font-family="Arial" font-size="14.00" fill="#666666">[BASE TABLE]</text>
<polygon fill="none" stroke="#000000" points="296,-282.5 296,-312.5 577,-312.5 577,-282.5 296,-282.5"/>
<text text-anchor="start" x="303" y="-293.9" font-family="Arial" font-size="14.00" fill="#000000">id </text>
<text text-anchor="start" x="317.7798" y="-293.9" font-family="Arial" font-size="14.00" fill="#666666">[bigint]</text>
<polygon fill="none" stroke="#000000" points="296,-252.5 296,-282.5 577,-282.5 577,-252.5 296,-252.5"/>
<text text-anchor="start" x="303" y="-263.9" font-family="Arial" font-size="14.00" fill="#000000">key </text>
<text text-anchor="start" x="328.6732" y="-263.9" font-family="Arial" font-size="14.00" fill="#666666">[varchar(255)]</text>
<polygon fill="none" stroke="#000000" points="296,-222.5 296,-252.5 577,-252.5 577,-222.5 296,-222.5"/>
<text text-anchor="start" x="303" y="-233.9" font-family="Arial" font-size="14.00" fill="#000000">filename </text>
<text text-anchor="start" x="359.7854" y="-233.9" font-family="Arial" font-size="14.00" fill="#666666">[varchar(255)]</text>
<polygon fill="none" stroke="#000000" points="296,-192.5 296,-222.5 577,-222.5 577,-192.5 296,-192.5"/>
<text text-anchor="start" x="303" y="-203.9" font-family="Arial" font-size="14.00" fill="#000000">content_type </text>
<text text-anchor="start" x="387.0406" y="-203.9" font-family="Arial" font-size="14.00" fill="#666666">[varchar(255)]</text>
<polygon fill="none" stroke="#000000" points="296,-162.5 296,-192.5 577,-192.5 577,-162.5 296,-162.5"/>
<text text-anchor="start" x="303" y="-173.9" font-family="Arial" font-size="14.00" fill="#000000">metadata </text>
<text text-anchor="start" x="365.2454" y="-173.9" font-family="Arial" font-size="14.00" fill="#666666">[text]</text>
<polygon fill="none" stroke="#000000" points="296,-132.5 296,-162.5 577,-162.5 577,-132.5 296,-132.5"/>
<text text-anchor="start" x="303" y="-143.9" font-family="Arial" font-size="14.00" fill="#000000">service_name </text>
<text text-anchor="start" x="394.014" y="-143.9" font-family="Arial" font-size="14.00" fill="#666666">[varchar(255)]</text>
<polygon fill="none" stroke="#000000" points="296,-102.5 296,-132.5 577,-132.5 577,-102.5 296,-102.5"/>
<text text-anchor="start" x="303" y="-113.9" font-family="Arial" font-size="14.00" fill="#000000">byte_size </text>
<text text-anchor="start" x="366.0182" y="-113.9" font-family="Arial" font-size="14.00" fill="#666666">[bigint]</text>
<polygon fill="none" stroke="#000000" points="296,-72.5 296,-102.5 577,-102.5 577,-72.5 296,-72.5"/>
<text text-anchor="start" x="303" y="-83.9" font-family="Arial" font-size="14.00" fill="#000000">checksum </text>
<text text-anchor="start" x="369.899" y="-83.9" font-family="Arial" font-size="14.00" fill="#666666">[varchar(255)]</text>
<polygon fill="none" stroke="#000000" points="296,-42.5 296,-72.5 577,-72.5 577,-42.5 296,-42.5"/>
<text text-anchor="start" x="303" y="-53.9" font-family="Arial" font-size="14.00" fill="#000000">created_at </text>
<text text-anchor="start" x="373.028" y="-53.9" font-family="Arial" font-size="14.00" fill="#666666">[datetime]</text>
</g>
<!-- active_storage_attachments&#45;&gt;active_storage_blobs -->
<g id="edge1" class="edge">
<title>active_storage_attachments:blob_id&#45;&gt;active_storage_blobs:id</title>
<path fill="none" stroke="#000000" d="M389.1576,-512.8796C414.2847,-503.5625 398.1702,-456.2105 379,-427 356.9383,-393.3835 318.0617,-424.6165 296,-391 273.1996,-356.258 254.4444,-297.5 296,-297.5"/>
<polygon fill="#000000" stroke="#000000" points="388.8751,-512.9246 378.291,-510.0562 383.9376,-513.7123 379,-514.5 379,-514.5 379,-514.5 383.9376,-513.7123 379.709,-518.9438 388.8751,-512.9246 388.8751,-512.9246"/>
<text text-anchor="start" x="386.207" y="-524.5" font-family="Arial" font-size="10.00" fill="#000000">FOREIGN KEY (blob_id) REFERENCES active_storage_blobs (id)</text>
</g>
<!-- active_storage_variant_records -->
<g id="node3" class="node">
<title>active_storage_variant_records</title>
<polygon fill="#efefef" stroke="transparent" points="483,-604.5 483,-639.5 845,-639.5 845,-604.5 483,-604.5"/>
<polygon fill="none" stroke="#000000" points="483,-604.5 483,-639.5 845,-639.5 845,-604.5 483,-604.5"/>
<text text-anchor="start" x="489.8447" y="-617.3" font-family="Arial Bold" font-size="18.00" fill="#000000">active_storage_variant_records</text>
<text text-anchor="start" x="740.9015" y="-617.3" font-family="Arial" font-size="14.00" fill="#000000"> </text>
<text text-anchor="start" x="744.7921" y="-617.3" font-family="Arial" font-size="14.00" fill="#666666">[BASE TABLE]</text>
<polygon fill="none" stroke="#000000" points="483,-574.5 483,-604.5 845,-604.5 845,-574.5 483,-574.5"/>
<text text-anchor="start" x="490" y="-585.9" font-family="Arial" font-size="14.00" fill="#000000">id </text>
<text text-anchor="start" x="504.7798" y="-585.9" font-family="Arial" font-size="14.00" fill="#666666">[bigint]</text>
<polygon fill="none" stroke="#000000" points="483,-544.5 483,-574.5 845,-574.5 845,-544.5 483,-544.5"/>
<text text-anchor="start" x="490" y="-555.9" font-family="Arial" font-size="14.00" fill="#000000">blob_id </text>
<text text-anchor="start" x="539.0168" y="-555.9" font-family="Arial" font-size="14.00" fill="#666666">[bigint]</text>
<polygon fill="none" stroke="#000000" points="483,-514.5 483,-544.5 845,-544.5 845,-514.5 483,-514.5"/>
<text text-anchor="start" x="490" y="-525.9" font-family="Arial" font-size="14.00" fill="#000000">variation_digest </text>
<text text-anchor="start" x="591.913" y="-525.9" font-family="Arial" font-size="14.00" fill="#666666">[varchar(255)]</text>
</g>
<!-- active_storage_variant_records&#45;&gt;active_storage_blobs -->
<g id="edge2" class="edge">
<title>active_storage_variant_records:blob_id&#45;&gt;active_storage_blobs:id</title>
<path fill="none" stroke="#000000" d="M472.9851,-557.9585C448.6522,-549.0807 468.442,-503.7619 483,-472 505.9786,-421.8665 554.0214,-441.1335 577,-391 594.3148,-353.2235 618.5556,-297.5 577,-297.5"/>
<polygon fill="#000000" stroke="#000000" points="473.1164,-557.9786 482.3154,-563.9476 478.0582,-558.7393 483,-559.5 483,-559.5 483,-559.5 478.0582,-558.7393 483.6846,-555.0524 473.1164,-557.9786 473.1164,-557.9786"/>
<text text-anchor="start" x="490.207" y="-569.5" font-family="Arial" font-size="10.00" fill="#000000">FOREIGN KEY (blob_id) REFERENCES active_storage_blobs (id)</text>
</g>
<!-- ar_internal_metadata -->
<g id="node4" class="node">
<title>ar_internal_metadata</title>
<polygon fill="#efefef" stroke="transparent" points="950,-619.5 950,-654.5 1231,-654.5 1231,-619.5 950,-619.5"/>
<polygon fill="none" stroke="#000000" points="950,-619.5 950,-654.5 1231,-654.5 1231,-619.5 950,-619.5"/>
<text text-anchor="start" x="956.8501" y="-632.3" font-family="Arial Bold" font-size="18.00" fill="#000000">ar_internal_metadata</text>
<text text-anchor="start" x="1126.8961" y="-632.3" font-family="Arial" font-size="14.00" fill="#000000"> </text>
<text text-anchor="start" x="1130.7867" y="-632.3" font-family="Arial" font-size="14.00" fill="#666666">[BASE TABLE]</text>
<polygon fill="none" stroke="#000000" points="950,-589.5 950,-619.5 1231,-619.5 1231,-589.5 950,-589.5"/>
<text text-anchor="start" x="957" y="-600.9" font-family="Arial" font-size="14.00" fill="#000000">key </text>
<text text-anchor="start" x="982.6732" y="-600.9" font-family="Arial" font-size="14.00" fill="#666666">[varchar(255)]</text>
<polygon fill="none" stroke="#000000" points="950,-559.5 950,-589.5 1231,-589.5 1231,-559.5 950,-559.5"/>
<text text-anchor="start" x="957" y="-570.9" font-family="Arial" font-size="14.00" fill="#000000">value </text>
<text text-anchor="start" x="994.345" y="-570.9" font-family="Arial" font-size="14.00" fill="#666666">[varchar(255)]</text>
<polygon fill="none" stroke="#000000" points="950,-529.5 950,-559.5 1231,-559.5 1231,-529.5 950,-529.5"/>
<text text-anchor="start" x="957" y="-540.9" font-family="Arial" font-size="14.00" fill="#000000">created_at </text>
<text text-anchor="start" x="1027.028" y="-540.9" font-family="Arial" font-size="14.00" fill="#666666">[datetime(6)]</text>
<polygon fill="none" stroke="#000000" points="950,-499.5 950,-529.5 1231,-529.5 1231,-499.5 950,-499.5"/>
<text text-anchor="start" x="957" y="-510.9" font-family="Arial" font-size="14.00" fill="#000000">updated_at </text>
<text text-anchor="start" x="1030.9326" y="-510.9" font-family="Arial" font-size="14.00" fill="#666666">[datetime(6)]</text>
</g>
<!-- schema_migrations -->
<g id="node5" class="node">
<title>schema_migrations</title>
<polygon fill="#efefef" stroke="transparent" points="1335,-574.5 1335,-609.5 1602,-609.5 1602,-574.5 1335,-574.5"/>
<polygon fill="none" stroke="#000000" points="1335,-574.5 1335,-609.5 1602,-609.5 1602,-574.5 1335,-574.5"/>
<text text-anchor="start" x="1341.8647" y="-587.3" font-family="Arial Bold" font-size="18.00" fill="#000000">schema_migrations</text>
<text text-anchor="start" x="1497.8815" y="-587.3" font-family="Arial" font-size="14.00" fill="#000000"> </text>
<text text-anchor="start" x="1501.7721" y="-587.3" font-family="Arial" font-size="14.00" fill="#666666">[BASE TABLE]</text>
<polygon fill="none" stroke="#000000" points="1335,-544.5 1335,-574.5 1602,-574.5 1602,-544.5 1335,-544.5"/>
<text text-anchor="start" x="1342" y="-555.9" font-family="Arial" font-size="14.00" fill="#000000">version </text>
<text text-anchor="start" x="1391.0056" y="-555.9" font-family="Arial" font-size="14.00" fill="#666666">[varchar(255)]</text>
</g>
<!-- users -->
<g id="node6" class="node">
<title>users</title>
<polygon fill="#efefef" stroke="transparent" points="1706,-649.5 1706,-684.5 1872,-684.5 1872,-649.5 1706,-649.5"/>
<polygon fill="none" stroke="#000000" points="1706,-649.5 1706,-684.5 1872,-684.5 1872,-649.5 1706,-649.5"/>
<text text-anchor="start" x="1718.3708" y="-662.3" font-family="Arial Bold" font-size="18.00" fill="#000000">users</text>
<text text-anchor="start" x="1762.3754" y="-662.3" font-family="Arial" font-size="14.00" fill="#000000"> </text>
<text text-anchor="start" x="1766.266" y="-662.3" font-family="Arial" font-size="14.00" fill="#666666">[BASE TABLE]</text>
<polygon fill="none" stroke="#000000" points="1706,-619.5 1706,-649.5 1872,-649.5 1872,-619.5 1706,-619.5"/>
<text text-anchor="start" x="1713" y="-630.9" font-family="Arial" font-size="14.00" fill="#000000">id </text>
<text text-anchor="start" x="1727.7798" y="-630.9" font-family="Arial" font-size="14.00" fill="#666666">[bigint]</text>
<polygon fill="none" stroke="#000000" points="1706,-589.5 1706,-619.5 1872,-619.5 1872,-589.5 1706,-589.5"/>
<text text-anchor="start" x="1713" y="-600.9" font-family="Arial" font-size="14.00" fill="#000000">name </text>
<text text-anchor="start" x="1751.899" y="-600.9" font-family="Arial" font-size="14.00" fill="#666666">[varchar(255)]</text>
<polygon fill="none" stroke="#000000" points="1706,-559.5 1706,-589.5 1872,-589.5 1872,-559.5 1706,-559.5"/>
<text text-anchor="start" x="1713" y="-570.9" font-family="Arial" font-size="14.00" fill="#000000">email </text>
<text text-anchor="start" x="1750.3296" y="-570.9" font-family="Arial" font-size="14.00" fill="#666666">[varchar(255)]</text>
<polygon fill="none" stroke="#000000" points="1706,-529.5 1706,-559.5 1872,-559.5 1872,-529.5 1706,-529.5"/>
<text text-anchor="start" x="1713" y="-540.9" font-family="Arial" font-size="14.00" fill="#000000">locale </text>
<text text-anchor="start" x="1753.4516" y="-540.9" font-family="Arial" font-size="14.00" fill="#666666">[int]</text>
<polygon fill="none" stroke="#000000" points="1706,-499.5 1706,-529.5 1872,-529.5 1872,-499.5 1706,-499.5"/>
<text text-anchor="start" x="1713" y="-510.9" font-family="Arial" font-size="14.00" fill="#000000">created_at </text>
<text text-anchor="start" x="1783.028" y="-510.9" font-family="Arial" font-size="14.00" fill="#666666">[datetime(6)]</text>
<polygon fill="none" stroke="#000000" points="1706,-469.5 1706,-499.5 1872,-499.5 1872,-469.5 1706,-469.5"/>
<text text-anchor="start" x="1712.7518" y="-480.9" font-family="Arial" font-size="14.00" fill="#000000">updated_at </text>
<text text-anchor="start" x="1786.6844" y="-480.9" font-family="Arial" font-size="14.00" fill="#666666">[datetime(6)]</text>
</g>
</g>
</svg>
