<?xml version="1.0" encoding="UTF-8" standalone="no"?>
<!DOCTYPE svg PUBLIC "-//W3C//DTD SVG 1.1//EN"
 "http://www.w3.org/Graphics/SVG/1.1/DTD/svg11.dtd">
<!-- Generated by graphviz version 2.40.1 (20161225.0304)
 -->
<!-- Title: app_development Pages: 1 -->
<svg width="1962pt" height="736pt"
 viewBox="0.00 0.00 1961.50 736.00" xmlns="http://www.w3.org/2000/svg" xmlns:xlink="http://www.w3.org/1999/xlink">
<g id="graph0" class="graph" transform="scale(1 1) rotate(0) translate(4 732)">
<title>app_development</title>
<polygon fill="#ffffff" stroke="transparent" points="-4,4 -4,-732 1957.5,-732 1957.5,4 -4,4"/>
<!-- active_storage_attachments -->
<g id="node1" class="node">
<title>active_storage_attachments</title>
<polygon fill="#efefef" stroke="transparent" points="43,-649.5 43,-684.5 379,-684.5 379,-649.5 43,-649.5"/>
<polygon fill="none" stroke="#000000" points="43,-649.5 43,-684.5 379,-684.5 379,-649.5 43,-649.5"/>
<text text-anchor="start" x="49.838" y="-662.3" font-family="Arial Bold" font-size="18.00" fill="#000000">active_storage_attachments</text>
<text text-anchor="start" x="274.9082" y="-662.3" font-family="Arial" font-size="14.00" fill="#000000"> </text>
<text text-anchor="start" x="278.7988" y="-662.3" font-family="Arial" font-size="14.00" fill="#666666">[BASE TABLE]</text>
<polygon fill="none" stroke="#000000" points="43,-619.5 43,-649.5 379,-649.5 379,-619.5 43,-619.5"/>
<text text-anchor="start" x="50" y="-630.9" font-family="Arial" font-size="14.00" fill="#000000">id </text>
<text text-anchor="start" x="64.7798" y="-630.9" font-family="Arial" font-size="14.00" fill="#666666">[bigint]</text>
<polygon fill="none" stroke="#000000" points="43,-589.5 43,-619.5 379,-619.5 379,-589.5 43,-589.5"/>
<text text-anchor="start" x="50" y="-600.9" font-family="Arial" font-size="14.00" fill="#000000">name </text>
<text text-anchor="start" x="88.899" y="-600.9" font-family="Arial" font-size="14.00" fill="#666666">[varchar(255)]</text>
<polygon fill="none" stroke="#000000" points="43,-559.5 43,-589.5 379,-589.5 379,-559.5 43,-559.5"/>
<text text-anchor="start" x="50" y="-570.9" font-family="Arial" font-size="14.00" fill="#000000">record_type </text>
<text text-anchor="start" x="127.798" y="-570.9" font-family="Arial" font-size="14.00" fill="#666666">[varchar(255)]</text>
<polygon fill="none" stroke="#000000" points="43,-529.5 43,-559.5 379,-559.5 379,-529.5 43,-529.5"/>
<text text-anchor="start" x="50" y="-540.9" font-family="Arial" font-size="14.00" fill="#000000">record_id </text>
<text text-anchor="start" x="112.2314" y="-540.9" font-family="Arial" font-size="14.00" fill="#666666">[bigint]</text>
<polygon fill="none" stroke="#000000" points="43,-499.5 43,-529.5 379,-529.5 379,-499.5 43,-499.5"/>
<text text-anchor="start" x="50" y="-510.9" font-family="Arial" font-size="14.00" fill="#000000">blob_id </text>
<text text-anchor="start" x="99.0168" y="-510.9" font-family="Arial" font-size="14.00" fill="#666666">[bigint]</text>
<polygon fill="none" stroke="#000000" points="43,-469.5 43,-499.5 379,-499.5 379,-469.5 43,-469.5"/>
<text text-anchor="start" x="50" y="-480.9" font-family="Arial" font-size="14.00" fill="#000000">created_at </text>
<text text-anchor="start" x="120.028" y="-480.9" font-family="Arial" font-size="14.00" fill="#666666">[datetime(6)]</text>
</g>
<!-- active_storage_blobs -->
<g id="node2" class="node">
<title>active_storage_blobs</title>
<polygon fill="#efefef" stroke="transparent" points="297,-312.5 297,-347.5 578,-347.5 578,-312.5 297,-312.5"/>
<polygon fill="none" stroke="#000000" points="297,-312.5 297,-347.5 578,-347.5 578,-312.5 297,-312.5"/>
<text text-anchor="start" x="303.8465" y="-325.3" font-family="Arial Bold" font-size="18.00" fill="#000000">active_storage_blobs</text>
<text text-anchor="start" x="473.8997" y="-325.3" font-family="Arial" font-size="14.00" fill="#000000"> </text>
<text text-anchor="start" x="477.7903" y="-325.3" font-family="Arial" font-size="14.00" fill="#666666">[BASE TABLE]</text>
<polygon fill="none" stroke="#000000" points="297,-282.5 297,-312.5 578,-312.5 578,-282.5 297,-282.5"/>
<text text-anchor="start" x="304" y="-293.9" font-family="Arial" font-size="14.00" fill="#000000">id </text>
<text text-anchor="start" x="318.7798" y="-293.9" font-family="Arial" font-size="14.00" fill="#666666">[bigint]</text>
<polygon fill="none" stroke="#000000" points="297,-252.5 297,-282.5 578,-282.5 578,-252.5 297,-252.5"/>
<text text-anchor="start" x="304" y="-263.9" font-family="Arial" font-size="14.00" fill="#000000">key </text>
<text text-anchor="start" x="329.6732" y="-263.9" font-family="Arial" font-size="14.00" fill="#666666">[varchar(255)]</text>
<polygon fill="none" stroke="#000000" points="297,-222.5 297,-252.5 578,-252.5 578,-222.5 297,-222.5"/>
<text text-anchor="start" x="304" y="-233.9" font-family="Arial" font-size="14.00" fill="#000000">filename </text>
<text text-anchor="start" x="360.7854" y="-233.9" font-family="Arial" font-size="14.00" fill="#666666">[varchar(255)]</text>
<polygon fill="none" stroke="#000000" points="297,-192.5 297,-222.5 578,-222.5 578,-192.5 297,-192.5"/>
<text text-anchor="start" x="304" y="-203.9" font-family="Arial" font-size="14.00" fill="#000000">content_type </text>
<text text-anchor="start" x="388.0406" y="-203.9" font-family="Arial" font-size="14.00" fill="#666666">[varchar(255)]</text>
<polygon fill="none" stroke="#000000" points="297,-162.5 297,-192.5 578,-192.5 578,-162.5 297,-162.5"/>
<text text-anchor="start" x="304" y="-173.9" font-family="Arial" font-size="14.00" fill="#000000">metadata </text>
<text text-anchor="start" x="366.2454" y="-173.9" font-family="Arial" font-size="14.00" fill="#666666">[text]</text>
<polygon fill="none" stroke="#000000" points="297,-132.5 297,-162.5 578,-162.5 578,-132.5 297,-132.5"/>
<text text-anchor="start" x="304" y="-143.9" font-family="Arial" font-size="14.00" fill="#000000">service_name </text>
<text text-anchor="start" x="395.014" y="-143.9" font-family="Arial" font-size="14.00" fill="#666666">[varchar(255)]</text>
<polygon fill="none" stroke="#000000" points="297,-102.5 297,-132.5 578,-132.5 578,-102.5 297,-102.5"/>
<text text-anchor="start" x="304" y="-113.9" font-family="Arial" font-size="14.00" fill="#000000">byte_size </text>
<text text-anchor="start" x="367.0182" y="-113.9" font-family="Arial" font-size="14.00" fill="#666666">[bigint]</text>
<polygon fill="none" stroke="#000000" points="297,-72.5 297,-102.5 578,-102.5 578,-72.5 297,-72.5"/>
<text text-anchor="start" x="304" y="-83.9" font-family="Arial" font-size="14.00" fill="#000000">checksum </text>
<text text-anchor="start" x="370.899" y="-83.9" font-family="Arial" font-size="14.00" fill="#666666">[varchar(255)]</text>
<polygon fill="none" stroke="#000000" points="297,-42.5 297,-72.5 578,-72.5 578,-42.5 297,-42.5"/>
<text text-anchor="start" x="304" y="-53.9" font-family="Arial" font-size="14.00" fill="#000000">created_at </text>
<text text-anchor="start" x="374.028" y="-53.9" font-family="Arial" font-size="14.00" fill="#666666">[datetime(6)]</text>
</g>
<!-- active_storage_attachments&#45;&gt;active_storage_blobs -->
<g id="edge1" class="edge">
<title>active_storage_attachments:blob_id&#45;&gt;active_storage_blobs:id</title>
<path fill="none" stroke="#000000" d="M389.1556,-512.8809C414.2715,-503.5711 398.1052,-456.253 379,-427 357.2357,-393.6756 318.7643,-424.3244 297,-391 274.2769,-356.2074 255.4444,-297.5 297,-297.5"/>
<polygon fill="#000000" stroke="#000000" points="388.8753,-512.9255 378.2915,-510.0561 383.9376,-513.7127 379,-514.5 379,-514.5 379,-514.5 383.9376,-513.7127 379.7085,-518.9439 388.8753,-512.9255 388.8753,-512.9255"/>
<text text-anchor="start" x="231.707" y="-498.5" font-family="Arial" font-size="10.00" fill="#000000">FOREIGN KEY (blob_id) REFERENCES active_storage_blobs (id)</text>
</g>
<!-- active_storage_variant_records -->
<g id="node3" class="node">
<title>active_storage_variant_records</title>
<polygon fill="#efefef" stroke="transparent" points="483,-604.5 483,-639.5 845,-639.5 845,-604.5 483,-604.5"/>
<polygon fill="none" stroke="#000000" points="483,-604.5 483,-639.5 845,-639.5 845,-604.5 483,-604.5"/>
<text text-anchor="start" x="489.8447" y="-617.3" font-family="Arial Bold" font-size="18.00" fill="#000000">active_storage_variant_records</text>
<text text-anchor="start" x="740.9015" y="-617.3" font-family="Arial" font-size="14.00" fill="#000000"> </text>
<text text-anchor="start" x="744.7921" y="-617.3" font-family="Arial" font-size="14.00" fill="#666666">[BASE TABLE]</text>
<polygon fill="none" stroke="#000000" points="483,-574.5 483,-604.5 845,-604.5 845,-574.5 483,-574.5"/>
<text text-anchor="start" x="490" y="-585.9" font-family="Arial" font-size="14.00" fill="#000000">id </text>
<text text-anchor="start" x="504.7798" y="-585.9" font-family="Arial" font-size="14.00" fill="#666666">[bigint]</text>
<polygon fill="none" stroke="#000000" points="483,-544.5 483,-574.5 845,-574.5 845,-544.5 483,-544.5"/>
<text text-anchor="start" x="490" y="-555.9" font-family="Arial" font-size="14.00" fill="#000000">blob_id </text>
<text text-anchor="start" x="539.0168" y="-555.9" font-family="Arial" font-size="14.00" fill="#666666">[bigint]</text>
<polygon fill="none" stroke="#000000" points="483,-514.5 483,-544.5 845,-544.5 845,-514.5 483,-514.5"/>
<text text-anchor="start" x="490" y="-525.9" font-family="Arial" font-size="14.00" fill="#000000">variation_digest </text>
<text text-anchor="start" x="591.913" y="-525.9" font-family="Arial" font-size="14.00" fill="#666666">[varchar(255)]</text>
</g>
<!-- active_storage_variant_records&#45;&gt;active_storage_blobs -->
<g id="edge2" class="edge">
<title>active_storage_variant_records:blob_id&#45;&gt;active_storage_blobs:id</title>
<path fill="none" stroke="#000000" d="M472.9826,-557.9573C448.6353,-549.073 468.359,-503.7237 483,-472 506.251,-421.6203 554.749,-441.3797 578,-391 595.4135,-353.2689 619.5556,-297.5 578,-297.5"/>
<polygon fill="#000000" stroke="#000000" points="473.1165,-557.9779 482.315,-563.9476 478.0583,-558.7389 483,-559.5 483,-559.5 483,-559.5 478.0583,-558.7389 483.685,-555.0524 473.1165,-557.9779 473.1165,-557.9779"/>
<text text-anchor="start" x="181.207" y="-569.5" font-family="Arial" font-size="10.00" fill="#000000">FOREIGN KEY (blob_id) REFERENCES active_storage_blobs (id)</text>
</g>
<!-- ar_internal_metadata -->
<g id="node4" class="node">
<title>ar_internal_metadata</title>
<polygon fill="#efefef" stroke="transparent" points="950,-619.5 950,-654.5 1231,-654.5 1231,-619.5 950,-619.5"/>
<polygon fill="none" stroke="#000000" points="950,-619.5 950,-654.5 1231,-654.5 1231,-619.5 950,-619.5"/>
<text text-anchor="start" x="956.8501" y="-632.3" font-family="Arial Bold" font-size="18.00" fill="#000000">ar_internal_metadata</text>
<text text-anchor="start" x="1126.8961" y="-632.3" font-family="Arial" font-size="14.00" fill="#000000"> </text>
<text text-anchor="start" x="1130.7867" y="-632.3" font-family="Arial" font-size="14.00" fill="#666666">[BASE TABLE]</text>
<polygon fill="none" stroke="#000000" points="950,-589.5 950,-619.5 1231,-619.5 1231,-589.5 950,-589.5"/>
<text text-anchor="start" x="957" y="-600.9" font-family="Arial" font-size="14.00" fill="#000000">key </text>
<text text-anchor="start" x="982.6732" y="-600.9" font-family="Arial" font-size="14.00" fill="#666666">[varchar(255)]</text>
<polygon fill="none" stroke="#000000" points="950,-559.5 950,-589.5 1231,-589.5 1231,-559.5 950,-559.5"/>
<text text-anchor="start" x="957" y="-570.9" font-family="Arial" font-size="14.00" fill="#000000">value </text>
<text text-anchor="start" x="994.345" y="-570.9" font-family="Arial" font-size="14.00" fill="#666666">[varchar(255)]</text>
<polygon fill="none" stroke="#000000" points="950,-529.5 950,-559.5 1231,-559.5 1231,-529.5 950,-529.5"/>
<text text-anchor="start" x="957" y="-540.9" font-family="Arial" font-size="14.00" fill="#000000">created_at </text>
<text text-anchor="start" x="1027.028" y="-540.9" font-family="Arial" font-size="14.00" fill="#666666">[datetime(6)]</text>
<polygon fill="none" stroke="#000000" points="950,-499.5 950,-529.5 1231,-529.5 1231,-499.5 950,-499.5"/>
<text text-anchor="start" x="957" y="-510.9" font-family="Arial" font-size="14.00" fill="#000000">updated_at </text>
<text text-anchor="start" x="1030.9326" y="-510.9" font-family="Arial" font-size="14.00" fill="#666666">[datetime(6)]</text>
</g>
<!-- books -->
<g id="node5" class="node">
<title>books</title>
<polygon fill="#efefef" stroke="transparent" points="1219,-237.5 1219,-272.5 1385,-272.5 1385,-237.5 1219,-237.5"/>
<polygon fill="none" stroke="#000000" points="1219,-237.5 1219,-272.5 1385,-272.5 1385,-237.5 1219,-237.5"/>
<text text-anchor="start" x="1229.3638" y="-250.3" font-family="Arial Bold" font-size="18.00" fill="#000000">books</text>
<text text-anchor="start" x="1277.3824" y="-250.3" font-family="Arial" font-size="14.00" fill="#000000"> </text>
<text text-anchor="start" x="1281.273" y="-250.3" font-family="Arial" font-size="14.00" fill="#666666">[BASE TABLE]</text>
<polygon fill="none" stroke="#000000" points="1219,-207.5 1219,-237.5 1385,-237.5 1385,-207.5 1219,-207.5"/>
<text text-anchor="start" x="1226" y="-218.9" font-family="Arial" font-size="14.00" fill="#000000">id </text>
<text text-anchor="start" x="1240.7798" y="-218.9" font-family="Arial" font-size="14.00" fill="#666666">[bigint]</text>
<polygon fill="none" stroke="#000000" points="1219,-177.5 1219,-207.5 1385,-207.5 1385,-177.5 1219,-177.5"/>
<text text-anchor="start" x="1226" y="-188.9" font-family="Arial" font-size="14.00" fill="#000000">title </text>
<text text-anchor="start" x="1251.6676" y="-188.9" font-family="Arial" font-size="14.00" fill="#666666">[varchar(255)]</text>
<polygon fill="none" stroke="#000000" points="1219,-147.5 1219,-177.5 1385,-177.5 1385,-147.5 1219,-147.5"/>
<text text-anchor="start" x="1226" y="-158.9" font-family="Arial" font-size="14.00" fill="#000000">created_at </text>
<text text-anchor="start" x="1296.028" y="-158.9" font-family="Arial" font-size="14.00" fill="#666666">[datetime(6)]</text>
<polygon fill="none" stroke="#000000" points="1219,-117.5 1219,-147.5 1385,-147.5 1385,-117.5 1219,-117.5"/>
<text text-anchor="start" x="1225.7518" y="-128.9" font-family="Arial" font-size="14.00" fill="#000000">updated_at </text>
<text text-anchor="start" x="1299.6844" y="-128.9" font-family="Arial" font-size="14.00" fill="#666666">[datetime(6)]</text>
</g>
<!-- schema_migrations -->
<g id="node6" class="node">
<title>schema_migrations</title>
<polygon fill="#efefef" stroke="transparent" points="1644,-574.5 1644,-609.5 1911,-609.5 1911,-574.5 1644,-574.5"/>
<polygon fill="none" stroke="#000000" points="1644,-574.5 1644,-609.5 1911,-609.5 1911,-574.5 1644,-574.5"/>
<text text-anchor="start" x="1650.8647" y="-587.3" font-family="Arial Bold" font-size="18.00" fill="#000000">schema_migrations</text>
<text text-anchor="start" x="1806.8815" y="-587.3" font-family="Arial" font-size="14.00" fill="#000000"> </text>
<text text-anchor="start" x="1810.7721" y="-587.3" font-family="Arial" font-size="14.00" fill="#666666">[BASE TABLE]</text>
<polygon fill="none" stroke="#000000" points="1644,-544.5 1644,-574.5 1911,-574.5 1911,-544.5 1644,-544.5"/>
<text text-anchor="start" x="1651" y="-555.9" font-family="Arial" font-size="14.00" fill="#000000">version </text>
<text text-anchor="start" x="1700.0056" y="-555.9" font-family="Arial" font-size="14.00" fill="#666666">[varchar(255)]</text>
</g>
<!-- user_books -->
<g id="node7" class="node">
<title>user_books</title>
<polygon fill="#efefef" stroke="transparent" points="1335,-634.5 1335,-669.5 1539,-669.5 1539,-634.5 1335,-634.5"/>
<polygon fill="none" stroke="#000000" points="1335,-634.5 1335,-669.5 1539,-669.5 1539,-634.5 1335,-634.5"/>
<text text-anchor="start" x="1341.8584" y="-647.3" font-family="Arial Bold" font-size="18.00" fill="#000000">user_books</text>
<text text-anchor="start" x="1434.8878" y="-647.3" font-family="Arial" font-size="14.00" fill="#000000"> </text>
<text text-anchor="start" x="1438.7784" y="-647.3" font-family="Arial" font-size="14.00" fill="#666666">[BASE TABLE]</text>
<polygon fill="none" stroke="#000000" points="1335,-604.5 1335,-634.5 1539,-634.5 1539,-604.5 1335,-604.5"/>
<text text-anchor="start" x="1342" y="-615.9" font-family="Arial" font-size="14.00" fill="#000000">id </text>
<text text-anchor="start" x="1356.7798" y="-615.9" font-family="Arial" font-size="14.00" fill="#666666">[bigint]</text>
<polygon fill="none" stroke="#000000" points="1335,-574.5 1335,-604.5 1539,-604.5 1539,-574.5 1335,-574.5"/>
<text text-anchor="start" x="1342" y="-585.9" font-family="Arial" font-size="14.00" fill="#000000">user_id </text>
<text text-anchor="start" x="1391.7882" y="-585.9" font-family="Arial" font-size="14.00" fill="#666666">[bigint]</text>
<polygon fill="none" stroke="#000000" points="1335,-544.5 1335,-574.5 1539,-574.5 1539,-544.5 1335,-544.5"/>
<text text-anchor="start" x="1342" y="-555.9" font-family="Arial" font-size="14.00" fill="#000000">book_id </text>
<text text-anchor="start" x="1394.9102" y="-555.9" font-family="Arial" font-size="14.00" fill="#666666">[bigint]</text>
<polygon fill="none" stroke="#000000" points="1335,-514.5 1335,-544.5 1539,-544.5 1539,-514.5 1335,-514.5"/>
<text text-anchor="start" x="1342" y="-525.9" font-family="Arial" font-size="14.00" fill="#000000">created_at </text>
<text text-anchor="start" x="1412.028" y="-525.9" font-family="Arial" font-size="14.00" fill="#666666">[datetime(6)]</text>
<polygon fill="none" stroke="#000000" points="1335,-484.5 1335,-514.5 1539,-514.5 1539,-484.5 1335,-484.5"/>
<text text-anchor="start" x="1342" y="-495.9" font-family="Arial" font-size="14.00" fill="#000000">updated_at </text>
<text text-anchor="start" x="1415.9326" y="-495.9" font-family="Arial" font-size="14.00" fill="#666666">[datetime(6)]</text>
</g>
<!-- user_books&#45;&gt;books -->
<g id="edge3" class="edge">
<title>user_books:book_id&#45;&gt;books:id</title>
<path fill="none" stroke="#000000" d="M1324.7969,-558.9072C1200.5104,-543.2458 1532.7206,-222.5 1385,-222.5"/>
<polygon fill="#000000" stroke="#000000" points="1325.0168,-558.9199 1334.739,-563.9924 1330.0084,-559.2099 1335,-559.5 1335,-559.5 1335,-559.5 1330.0084,-559.2099 1335.261,-555.0076 1325.0168,-558.9199 1325.0168,-558.9199"/>
<text text-anchor="start" x="1280.715" y="-543.5" font-family="Arial" font-size="10.00" fill="#000000">FOREIGN KEY (book_id) REFERENCES books (id)</text>
</g>
<!-- users -->
<g id="node8" class="node">
<title>users</title>
<polygon fill="#efefef" stroke="transparent" points="1489,-267.5 1489,-302.5 1655,-302.5 1655,-267.5 1489,-267.5"/>
<polygon fill="none" stroke="#000000" points="1489,-267.5 1489,-302.5 1655,-302.5 1655,-267.5 1489,-267.5"/>
<text text-anchor="start" x="1501.3708" y="-280.3" font-family="Arial Bold" font-size="18.00" fill="#000000">users</text>
<text text-anchor="start" x="1545.3754" y="-280.3" font-family="Arial" font-size="14.00" fill="#000000"> </text>
<text text-anchor="start" x="1549.266" y="-280.3" font-family="Arial" font-size="14.00" fill="#666666">[BASE TABLE]</text>
<polygon fill="none" stroke="#000000" points="1489,-237.5 1489,-267.5 1655,-267.5 1655,-237.5 1489,-237.5"/>
<text text-anchor="start" x="1496" y="-248.9" font-family="Arial" font-size="14.00" fill="#000000">id </text>
<text text-anchor="start" x="1510.7798" y="-248.9" font-family="Arial" font-size="14.00" fill="#666666">[bigint]</text>
<polygon fill="none" stroke="#000000" points="1489,-207.5 1489,-237.5 1655,-237.5 1655,-207.5 1489,-207.5"/>
<text text-anchor="start" x="1496" y="-218.9" font-family="Arial" font-size="14.00" fill="#000000">name </text>
<text text-anchor="start" x="1534.899" y="-218.9" font-family="Arial" font-size="14.00" fill="#666666">[varchar(255)]</text>
<polygon fill="none" stroke="#000000" points="1489,-177.5 1489,-207.5 1655,-207.5 1655,-177.5 1489,-177.5"/>
<text text-anchor="start" x="1496" y="-188.9" font-family="Arial" font-size="14.00" fill="#000000">email </text>
<text text-anchor="start" x="1533.3296" y="-188.9" font-family="Arial" font-size="14.00" fill="#666666">[varchar(255)]</text>
<polygon fill="none" stroke="#000000" points="1489,-147.5 1489,-177.5 1655,-177.5 1655,-147.5 1489,-147.5"/>
<text text-anchor="start" x="1496" y="-158.9" font-family="Arial" font-size="14.00" fill="#000000">locale </text>
<text text-anchor="start" x="1536.4516" y="-158.9" font-family="Arial" font-size="14.00" fill="#666666">[int]</text>
<polygon fill="none" stroke="#000000" points="1489,-117.5 1489,-147.5 1655,-147.5 1655,-117.5 1489,-117.5"/>
<text text-anchor="start" x="1496" y="-128.9" font-family="Arial" font-size="14.00" fill="#000000">created_at </text>
<text text-anchor="start" x="1566.028" y="-128.9" font-family="Arial" font-size="14.00" fill="#666666">[datetime(6)]</text>
<polygon fill="none" stroke="#000000" points="1489,-87.5 1489,-117.5 1655,-117.5 1655,-87.5 1489,-87.5"/>
<text text-anchor="start" x="1495.7518" y="-98.9" font-family="Arial" font-size="14.00" fill="#000000">updated_at </text>
<text text-anchor="start" x="1569.6844" y="-98.9" font-family="Arial" font-size="14.00" fill="#666666">[datetime(6)]</text>
</g>
<!-- user_books&#45;&gt;users -->
<g id="edge4" class="edge">
<title>user_books:user_id&#45;&gt;users:id</title>
<path fill="none" stroke="#000000" d="M1549.0547,-588.7121C1599.0055,-580.0689 1553.7054,-502.0686 1539,-442 1527.5608,-395.273 1500.4392,-392.727 1489,-346 1479.1186,-305.6364 1447.4444,-252.5 1489,-252.5"/>
<polygon fill="#000000" stroke="#000000" points="1548.9694,-588.7187 1538.6484,-585.0138 1543.9847,-589.1094 1539,-589.5 1539,-589.5 1539,-589.5 1543.9847,-589.1094 1539.3516,-593.9862 1548.9694,-588.7187 1548.9694,-588.7187"/>
<text text-anchor="start" x="1425.945" y="-573.5" font-family="Arial" font-size="10.00" fill="#000000">FOREIGN KEY (user_id) REFERENCES users (id)</text>
</g>
</g>
</svg>
