<?xml version="1.0" encoding="UTF-8" standalone="no"?>
<!DOCTYPE svg PUBLIC "-//W3C//DTD SVG 1.1//EN"
 "http://www.w3.org/Graphics/SVG/1.1/DTD/svg11.dtd">
<!-- Generated by graphviz version 2.40.1 (20161225.0304)
 -->
<!-- Title: app_development Pages: 1 -->
<svg width="2053pt" height="1073pt"
 viewBox="0.00 0.00 2052.50 1073.00" xmlns="http://www.w3.org/2000/svg" xmlns:xlink="http://www.w3.org/1999/xlink">
<g id="graph0" class="graph" transform="scale(1 1) rotate(0) translate(4 1069)">
<title>app_development</title>
<polygon fill="#ffffff" stroke="transparent" points="-4,4 -4,-1069 2048.5,-1069 2048.5,4 -4,4"/>
<!-- active_storage_attachments -->
<g id="node1" class="node">
<title>active_storage_attachments</title>
<polygon fill="#efefef" stroke="transparent" points="43,-986.5 43,-1021.5 379,-1021.5 379,-986.5 43,-986.5"/>
<polygon fill="none" stroke="#000000" points="43,-986.5 43,-1021.5 379,-1021.5 379,-986.5 43,-986.5"/>
<text text-anchor="start" x="49.838" y="-999.3" font-family="Arial Bold" font-size="18.00" fill="#000000">active_storage_attachments</text>
<text text-anchor="start" x="274.9082" y="-999.3" font-family="Arial" font-size="14.00" fill="#000000"> </text>
<text text-anchor="start" x="278.7988" y="-999.3" font-family="Arial" font-size="14.00" fill="#666666">[BASE TABLE]</text>
<polygon fill="none" stroke="#000000" points="43,-956.5 43,-986.5 379,-986.5 379,-956.5 43,-956.5"/>
<text text-anchor="start" x="50" y="-967.9" font-family="Arial" font-size="14.00" fill="#000000">id </text>
<text text-anchor="start" x="64.7798" y="-967.9" font-family="Arial" font-size="14.00" fill="#666666">[bigint]</text>
<polygon fill="none" stroke="#000000" points="43,-926.5 43,-956.5 379,-956.5 379,-926.5 43,-926.5"/>
<text text-anchor="start" x="50" y="-937.9" font-family="Arial" font-size="14.00" fill="#000000">name </text>
<text text-anchor="start" x="88.899" y="-937.9" font-family="Arial" font-size="14.00" fill="#666666">[varchar(255)]</text>
<polygon fill="none" stroke="#000000" points="43,-896.5 43,-926.5 379,-926.5 379,-896.5 43,-896.5"/>
<text text-anchor="start" x="50" y="-907.9" font-family="Arial" font-size="14.00" fill="#000000">record_type </text>
<text text-anchor="start" x="127.798" y="-907.9" font-family="Arial" font-size="14.00" fill="#666666">[varchar(255)]</text>
<polygon fill="none" stroke="#000000" points="43,-866.5 43,-896.5 379,-896.5 379,-866.5 43,-866.5"/>
<text text-anchor="start" x="50" y="-877.9" font-family="Arial" font-size="14.00" fill="#000000">record_id </text>
<text text-anchor="start" x="112.2314" y="-877.9" font-family="Arial" font-size="14.00" fill="#666666">[bigint]</text>
<polygon fill="none" stroke="#000000" points="43,-836.5 43,-866.5 379,-866.5 379,-836.5 43,-836.5"/>
<text text-anchor="start" x="50" y="-847.9" font-family="Arial" font-size="14.00" fill="#000000">blob_id </text>
<text text-anchor="start" x="99.0168" y="-847.9" font-family="Arial" font-size="14.00" fill="#666666">[bigint]</text>
<polygon fill="none" stroke="#000000" points="43,-806.5 43,-836.5 379,-836.5 379,-806.5 43,-806.5"/>
<text text-anchor="start" x="50" y="-817.9" font-family="Arial" font-size="14.00" fill="#000000">created_at </text>
<text text-anchor="start" x="120.028" y="-817.9" font-family="Arial" font-size="14.00" fill="#666666">[datetime(6)]</text>
</g>
<!-- active_storage_blobs -->
<g id="node2" class="node">
<title>active_storage_blobs</title>
<polygon fill="#efefef" stroke="transparent" points="275,-649.5 275,-684.5 556,-684.5 556,-649.5 275,-649.5"/>
<polygon fill="none" stroke="#000000" points="275,-649.5 275,-684.5 556,-684.5 556,-649.5 275,-649.5"/>
<text text-anchor="start" x="281.8465" y="-662.3" font-family="Arial Bold" font-size="18.00" fill="#000000">active_storage_blobs</text>
<text text-anchor="start" x="451.8997" y="-662.3" font-family="Arial" font-size="14.00" fill="#000000"> </text>
<text text-anchor="start" x="455.7903" y="-662.3" font-family="Arial" font-size="14.00" fill="#666666">[BASE TABLE]</text>
<polygon fill="none" stroke="#000000" points="275,-619.5 275,-649.5 556,-649.5 556,-619.5 275,-619.5"/>
<text text-anchor="start" x="282" y="-630.9" font-family="Arial" font-size="14.00" fill="#000000">id </text>
<text text-anchor="start" x="296.7798" y="-630.9" font-family="Arial" font-size="14.00" fill="#666666">[bigint]</text>
<polygon fill="none" stroke="#000000" points="275,-589.5 275,-619.5 556,-619.5 556,-589.5 275,-589.5"/>
<text text-anchor="start" x="282" y="-600.9" font-family="Arial" font-size="14.00" fill="#000000">key </text>
<text text-anchor="start" x="307.6732" y="-600.9" font-family="Arial" font-size="14.00" fill="#666666">[varchar(255)]</text>
<polygon fill="none" stroke="#000000" points="275,-559.5 275,-589.5 556,-589.5 556,-559.5 275,-559.5"/>
<text text-anchor="start" x="282" y="-570.9" font-family="Arial" font-size="14.00" fill="#000000">filename </text>
<text text-anchor="start" x="338.7854" y="-570.9" font-family="Arial" font-size="14.00" fill="#666666">[varchar(255)]</text>
<polygon fill="none" stroke="#000000" points="275,-529.5 275,-559.5 556,-559.5 556,-529.5 275,-529.5"/>
<text text-anchor="start" x="282" y="-540.9" font-family="Arial" font-size="14.00" fill="#000000">content_type </text>
<text text-anchor="start" x="366.0406" y="-540.9" font-family="Arial" font-size="14.00" fill="#666666">[varchar(255)]</text>
<polygon fill="none" stroke="#000000" points="275,-499.5 275,-529.5 556,-529.5 556,-499.5 275,-499.5"/>
<text text-anchor="start" x="282" y="-510.9" font-family="Arial" font-size="14.00" fill="#000000">metadata </text>
<text text-anchor="start" x="344.2454" y="-510.9" font-family="Arial" font-size="14.00" fill="#666666">[text]</text>
<polygon fill="none" stroke="#000000" points="275,-469.5 275,-499.5 556,-499.5 556,-469.5 275,-469.5"/>
<text text-anchor="start" x="282" y="-480.9" font-family="Arial" font-size="14.00" fill="#000000">service_name </text>
<text text-anchor="start" x="373.014" y="-480.9" font-family="Arial" font-size="14.00" fill="#666666">[varchar(255)]</text>
<polygon fill="none" stroke="#000000" points="275,-439.5 275,-469.5 556,-469.5 556,-439.5 275,-439.5"/>
<text text-anchor="start" x="282" y="-450.9" font-family="Arial" font-size="14.00" fill="#000000">byte_size </text>
<text text-anchor="start" x="345.0182" y="-450.9" font-family="Arial" font-size="14.00" fill="#666666">[bigint]</text>
<polygon fill="none" stroke="#000000" points="275,-409.5 275,-439.5 556,-439.5 556,-409.5 275,-409.5"/>
<text text-anchor="start" x="282" y="-420.9" font-family="Arial" font-size="14.00" fill="#000000">checksum </text>
<text text-anchor="start" x="348.899" y="-420.9" font-family="Arial" font-size="14.00" fill="#666666">[varchar(255)]</text>
<polygon fill="none" stroke="#000000" points="275,-379.5 275,-409.5 556,-409.5 556,-379.5 275,-379.5"/>
<text text-anchor="start" x="282" y="-390.9" font-family="Arial" font-size="14.00" fill="#000000">created_at </text>
<text text-anchor="start" x="352.028" y="-390.9" font-family="Arial" font-size="14.00" fill="#666666">[datetime(6)]</text>
</g>
<!-- active_storage_attachments&#45;&gt;active_storage_blobs -->
<g id="edge1" class="edge">
<title>active_storage_attachments:blob_id&#45;&gt;active_storage_blobs:id</title>
<path fill="none" stroke="#000000" d="M389.1915,-849.8564C414.5073,-840.4103 399.2661,-792.4611 379,-764 350.6285,-724.1559 303.3715,-767.8441 275,-728 250.8962,-694.1493 233.4444,-634.5 275,-634.5"/>
<polygon fill="#000000" stroke="#000000" points="388.8724,-849.9078 378.2835,-847.0574 383.9362,-850.7039 379,-851.5 379,-851.5 379,-851.5 383.9362,-850.7039 379.7165,-855.9426 388.8724,-849.9078 388.8724,-849.9078"/>
<text text-anchor="start" x="386.207" y="-861.5" font-family="Arial" font-size="10.00" fill="#000000">FOREIGN KEY (blob_id) REFERENCES active_storage_blobs (id)</text>
</g>
<!-- active_storage_variant_records -->
<g id="node3" class="node">
<title>active_storage_variant_records</title>
<polygon fill="#efefef" stroke="transparent" points="483,-941.5 483,-976.5 845,-976.5 845,-941.5 483,-941.5"/>
<polygon fill="none" stroke="#000000" points="483,-941.5 483,-976.5 845,-976.5 845,-941.5 483,-941.5"/>
<text text-anchor="start" x="489.8447" y="-954.3" font-family="Arial Bold" font-size="18.00" fill="#000000">active_storage_variant_records</text>
<text text-anchor="start" x="740.9015" y="-954.3" font-family="Arial" font-size="14.00" fill="#000000"> </text>
<text text-anchor="start" x="744.7921" y="-954.3" font-family="Arial" font-size="14.00" fill="#666666">[BASE TABLE]</text>
<polygon fill="none" stroke="#000000" points="483,-911.5 483,-941.5 845,-941.5 845,-911.5 483,-911.5"/>
<text text-anchor="start" x="490" y="-922.9" font-family="Arial" font-size="14.00" fill="#000000">id </text>
<text text-anchor="start" x="504.7798" y="-922.9" font-family="Arial" font-size="14.00" fill="#666666">[bigint]</text>
<polygon fill="none" stroke="#000000" points="483,-881.5 483,-911.5 845,-911.5 845,-881.5 483,-881.5"/>
<text text-anchor="start" x="490" y="-892.9" font-family="Arial" font-size="14.00" fill="#000000">blob_id </text>
<text text-anchor="start" x="539.0168" y="-892.9" font-family="Arial" font-size="14.00" fill="#666666">[bigint]</text>
<polygon fill="none" stroke="#000000" points="483,-851.5 483,-881.5 845,-881.5 845,-851.5 483,-851.5"/>
<text text-anchor="start" x="490" y="-862.9" font-family="Arial" font-size="14.00" fill="#000000">variation_digest </text>
<text text-anchor="start" x="591.913" y="-862.9" font-family="Arial" font-size="14.00" fill="#666666">[varchar(255)]</text>
</g>
<!-- active_storage_variant_records&#45;&gt;active_storage_blobs -->
<g id="edge2" class="edge">
<title>active_storage_variant_records:blob_id&#45;&gt;active_storage_blobs:id</title>
<path fill="none" stroke="#000000" d="M473.0479,-894.9849C449.0644,-886.2542 470.4714,-841.6157 483,-809 500.3779,-763.7601 538.6221,-773.2399 556,-728 570.9011,-689.208 597.5556,-634.5 556,-634.5"/>
<polygon fill="#000000" stroke="#000000" points="473.1139,-894.9949 482.3227,-900.9487 478.057,-895.7475 483,-896.5 483,-896.5 483,-896.5 478.057,-895.7475 483.6773,-892.0513 473.1139,-894.9949 473.1139,-894.9949"/>
<text text-anchor="start" x="490.207" y="-906.5" font-family="Arial" font-size="10.00" fill="#000000">FOREIGN KEY (blob_id) REFERENCES active_storage_blobs (id)</text>
</g>
<!-- ar_internal_metadata -->
<g id="node4" class="node">
<title>ar_internal_metadata</title>
<polygon fill="#efefef" stroke="transparent" points="1036,-956.5 1036,-991.5 1317,-991.5 1317,-956.5 1036,-956.5"/>
<polygon fill="none" stroke="#000000" points="1036,-956.5 1036,-991.5 1317,-991.5 1317,-956.5 1036,-956.5"/>
<text text-anchor="start" x="1042.8501" y="-969.3" font-family="Arial Bold" font-size="18.00" fill="#000000">ar_internal_metadata</text>
<text text-anchor="start" x="1212.8961" y="-969.3" font-family="Arial" font-size="14.00" fill="#000000"> </text>
<text text-anchor="start" x="1216.7867" y="-969.3" font-family="Arial" font-size="14.00" fill="#666666">[BASE TABLE]</text>
<polygon fill="none" stroke="#000000" points="1036,-926.5 1036,-956.5 1317,-956.5 1317,-926.5 1036,-926.5"/>
<text text-anchor="start" x="1043" y="-937.9" font-family="Arial" font-size="14.00" fill="#000000">key </text>
<text text-anchor="start" x="1068.6732" y="-937.9" font-family="Arial" font-size="14.00" fill="#666666">[varchar(255)]</text>
<polygon fill="none" stroke="#000000" points="1036,-896.5 1036,-926.5 1317,-926.5 1317,-896.5 1036,-896.5"/>
<text text-anchor="start" x="1043" y="-907.9" font-family="Arial" font-size="14.00" fill="#000000">value </text>
<text text-anchor="start" x="1080.345" y="-907.9" font-family="Arial" font-size="14.00" fill="#666666">[varchar(255)]</text>
<polygon fill="none" stroke="#000000" points="1036,-866.5 1036,-896.5 1317,-896.5 1317,-866.5 1036,-866.5"/>
<text text-anchor="start" x="1043" y="-877.9" font-family="Arial" font-size="14.00" fill="#000000">created_at </text>
<text text-anchor="start" x="1113.028" y="-877.9" font-family="Arial" font-size="14.00" fill="#666666">[datetime(6)]</text>
<polygon fill="none" stroke="#000000" points="1036,-836.5 1036,-866.5 1317,-866.5 1317,-836.5 1036,-836.5"/>
<text text-anchor="start" x="1043" y="-847.9" font-family="Arial" font-size="14.00" fill="#000000">updated_at </text>
<text text-anchor="start" x="1116.9326" y="-847.9" font-family="Arial" font-size="14.00" fill="#666666">[datetime(6)]</text>
</g>
<!-- books -->
<g id="node5" class="node">
<title>books</title>
<polygon fill="#efefef" stroke="transparent" points="884,-192.5 884,-227.5 1050,-227.5 1050,-192.5 884,-192.5"/>
<polygon fill="none" stroke="#000000" points="884,-192.5 884,-227.5 1050,-227.5 1050,-192.5 884,-192.5"/>
<text text-anchor="start" x="894.3638" y="-205.3" font-family="Arial Bold" font-size="18.00" fill="#000000">books</text>
<text text-anchor="start" x="942.3824" y="-205.3" font-family="Arial" font-size="14.00" fill="#000000"> </text>
<text text-anchor="start" x="946.273" y="-205.3" font-family="Arial" font-size="14.00" fill="#666666">[BASE TABLE]</text>
<polygon fill="none" stroke="#000000" points="884,-162.5 884,-192.5 1050,-192.5 1050,-162.5 884,-162.5"/>
<text text-anchor="start" x="891" y="-173.9" font-family="Arial" font-size="14.00" fill="#000000">id </text>
<text text-anchor="start" x="905.7798" y="-173.9" font-family="Arial" font-size="14.00" fill="#666666">[bigint]</text>
<polygon fill="none" stroke="#000000" points="884,-132.5 884,-162.5 1050,-162.5 1050,-132.5 884,-132.5"/>
<text text-anchor="start" x="891" y="-143.9" font-family="Arial" font-size="14.00" fill="#000000">title </text>
<text text-anchor="start" x="916.6676" y="-143.9" font-family="Arial" font-size="14.00" fill="#666666">[varchar(255)]</text>
<polygon fill="none" stroke="#000000" points="884,-102.5 884,-132.5 1050,-132.5 1050,-102.5 884,-102.5"/>
<text text-anchor="start" x="891" y="-113.9" font-family="Arial" font-size="14.00" fill="#000000">created_at </text>
<text text-anchor="start" x="961.028" y="-113.9" font-family="Arial" font-size="14.00" fill="#666666">[datetime(6)]</text>
<polygon fill="none" stroke="#000000" points="884,-72.5 884,-102.5 1050,-102.5 1050,-72.5 884,-72.5"/>
<text text-anchor="start" x="890.7518" y="-83.9" font-family="Arial" font-size="14.00" fill="#000000">updated_at </text>
<text text-anchor="start" x="964.6844" y="-83.9" font-family="Arial" font-size="14.00" fill="#666666">[datetime(6)]</text>
</g>
<!-- portfolios -->
<g id="node6" class="node">
<title>portfolios</title>
<polygon fill="#efefef" stroke="transparent" points="1173,-604.5 1173,-639.5 1357,-639.5 1357,-604.5 1173,-604.5"/>
<polygon fill="none" stroke="#000000" points="1173,-604.5 1173,-639.5 1357,-639.5 1357,-604.5 1173,-604.5"/>
<text text-anchor="start" x="1179.8682" y="-617.3" font-family="Arial Bold" font-size="18.00" fill="#000000">portfolios</text>
<text text-anchor="start" x="1252.878" y="-617.3" font-family="Arial" font-size="14.00" fill="#000000"> </text>
<text text-anchor="start" x="1256.7686" y="-617.3" font-family="Arial" font-size="14.00" fill="#666666">[BASE TABLE]</text>
<polygon fill="none" stroke="#000000" points="1173,-574.5 1173,-604.5 1357,-604.5 1357,-574.5 1173,-574.5"/>
<text text-anchor="start" x="1180" y="-585.9" font-family="Arial" font-size="14.00" fill="#000000">id </text>
<text text-anchor="start" x="1194.7798" y="-585.9" font-family="Arial" font-size="14.00" fill="#666666">[bigint]</text>
<polygon fill="none" stroke="#000000" points="1173,-544.5 1173,-574.5 1357,-574.5 1357,-544.5 1173,-544.5"/>
<text text-anchor="start" x="1180" y="-555.9" font-family="Arial" font-size="14.00" fill="#000000">user_id </text>
<text text-anchor="start" x="1229.7882" y="-555.9" font-family="Arial" font-size="14.00" fill="#666666">[bigint]</text>
<polygon fill="none" stroke="#000000" points="1173,-514.5 1173,-544.5 1357,-544.5 1357,-514.5 1173,-514.5"/>
<text text-anchor="start" x="1180" y="-525.9" font-family="Arial" font-size="14.00" fill="#000000">name </text>
<text text-anchor="start" x="1218.899" y="-525.9" font-family="Arial" font-size="14.00" fill="#666666">[varchar(255)]</text>
<polygon fill="none" stroke="#000000" points="1173,-484.5 1173,-514.5 1357,-514.5 1357,-484.5 1173,-484.5"/>
<text text-anchor="start" x="1180" y="-495.9" font-family="Arial" font-size="14.00" fill="#000000">url </text>
<text text-anchor="start" x="1199.4404" y="-495.9" font-family="Arial" font-size="14.00" fill="#666666">[varchar(255)]</text>
<polygon fill="none" stroke="#000000" points="1173,-454.5 1173,-484.5 1357,-484.5 1357,-454.5 1173,-454.5"/>
<text text-anchor="start" x="1180" y="-465.9" font-family="Arial" font-size="14.00" fill="#000000">created_at </text>
<text text-anchor="start" x="1250.028" y="-465.9" font-family="Arial" font-size="14.00" fill="#666666">[datetime(6)]</text>
<polygon fill="none" stroke="#000000" points="1173,-424.5 1173,-454.5 1357,-454.5 1357,-424.5 1173,-424.5"/>
<text text-anchor="start" x="1180" y="-435.9" font-family="Arial" font-size="14.00" fill="#000000">updated_at </text>
<text text-anchor="start" x="1253.9326" y="-435.9" font-family="Arial" font-size="14.00" fill="#666666">[datetime(6)]</text>
</g>
<!-- users -->
<g id="node11" class="node">
<title>users</title>
<polygon fill="#efefef" stroke="transparent" points="1182,-222.5 1182,-257.5 1348,-257.5 1348,-222.5 1182,-222.5"/>
<polygon fill="none" stroke="#000000" points="1182,-222.5 1182,-257.5 1348,-257.5 1348,-222.5 1182,-222.5"/>
<text text-anchor="start" x="1194.3708" y="-235.3" font-family="Arial Bold" font-size="18.00" fill="#000000">users</text>
<text text-anchor="start" x="1238.3754" y="-235.3" font-family="Arial" font-size="14.00" fill="#000000"> </text>
<text text-anchor="start" x="1242.266" y="-235.3" font-family="Arial" font-size="14.00" fill="#666666">[BASE TABLE]</text>
<polygon fill="none" stroke="#000000" points="1182,-192.5 1182,-222.5 1348,-222.5 1348,-192.5 1182,-192.5"/>
<text text-anchor="start" x="1189" y="-203.9" font-family="Arial" font-size="14.00" fill="#000000">id </text>
<text text-anchor="start" x="1203.7798" y="-203.9" font-family="Arial" font-size="14.00" fill="#666666">[bigint]</text>
<polygon fill="none" stroke="#000000" points="1182,-162.5 1182,-192.5 1348,-192.5 1348,-162.5 1182,-162.5"/>
<text text-anchor="start" x="1189" y="-173.9" font-family="Arial" font-size="14.00" fill="#000000">name </text>
<text text-anchor="start" x="1227.899" y="-173.9" font-family="Arial" font-size="14.00" fill="#666666">[varchar(255)]</text>
<polygon fill="none" stroke="#000000" points="1182,-132.5 1182,-162.5 1348,-162.5 1348,-132.5 1182,-132.5"/>
<text text-anchor="start" x="1189" y="-143.9" font-family="Arial" font-size="14.00" fill="#000000">email </text>
<text text-anchor="start" x="1226.3296" y="-143.9" font-family="Arial" font-size="14.00" fill="#666666">[varchar(255)]</text>
<polygon fill="none" stroke="#000000" points="1182,-102.5 1182,-132.5 1348,-132.5 1348,-102.5 1182,-102.5"/>
<text text-anchor="start" x="1189" y="-113.9" font-family="Arial" font-size="14.00" fill="#000000">locale </text>
<text text-anchor="start" x="1229.4516" y="-113.9" font-family="Arial" font-size="14.00" fill="#666666">[int]</text>
<polygon fill="none" stroke="#000000" points="1182,-72.5 1182,-102.5 1348,-102.5 1348,-72.5 1182,-72.5"/>
<text text-anchor="start" x="1189" y="-83.9" font-family="Arial" font-size="14.00" fill="#000000">created_at </text>
<text text-anchor="start" x="1259.028" y="-83.9" font-family="Arial" font-size="14.00" fill="#666666">[datetime(6)]</text>
<polygon fill="none" stroke="#000000" points="1182,-42.5 1182,-72.5 1348,-72.5 1348,-42.5 1182,-42.5"/>
<text text-anchor="start" x="1188.7518" y="-53.9" font-family="Arial" font-size="14.00" fill="#000000">updated_at </text>
<text text-anchor="start" x="1262.6844" y="-53.9" font-family="Arial" font-size="14.00" fill="#666666">[datetime(6)]</text>
</g>
<!-- portfolios&#45;&gt;users -->
<g id="edge3" class="edge">
<title>portfolios:user_id&#45;&gt;users:id</title>
<path fill="none" stroke="#000000" d="M1365.2971,-553.3904C1394.5338,-506.6484 1384.0673,-207.5 1348,-207.5"/>
<polygon fill="#000000" stroke="#000000" points="1365.0524,-553.5705 1354.3317,-555.8764 1361.0262,-556.5352 1357,-559.5 1357,-559.5 1357,-559.5 1361.0262,-556.5352 1359.6683,-563.1236 1365.0524,-553.5705 1365.0524,-553.5705"/>
<text text-anchor="start" x="1363.945" y="-569.5" font-family="Arial" font-size="10.00" fill="#000000">FOREIGN KEY (user_id) REFERENCES users (id)</text>
</g>
<!-- profiles -->
<g id="node7" class="node">
<title>profiles</title>
<polygon fill="#efefef" stroke="transparent" points="1462,-589.5 1462,-624.5 1631,-624.5 1631,-589.5 1462,-589.5"/>
<polygon fill="none" stroke="#000000" points="1462,-589.5 1462,-624.5 1631,-624.5 1631,-589.5 1462,-589.5"/>
<text text-anchor="start" x="1468.8724" y="-602.3" font-family="Arial Bold" font-size="18.00" fill="#000000">profiles</text>
<text text-anchor="start" x="1526.8738" y="-602.3" font-family="Arial" font-size="14.00" fill="#000000"> </text>
<text text-anchor="start" x="1530.7644" y="-602.3" font-family="Arial" font-size="14.00" fill="#666666">[BASE TABLE]</text>
<polygon fill="none" stroke="#000000" points="1462,-559.5 1462,-589.5 1631,-589.5 1631,-559.5 1462,-559.5"/>
<text text-anchor="start" x="1469" y="-570.9" font-family="Arial" font-size="14.00" fill="#000000">id </text>
<text text-anchor="start" x="1483.7798" y="-570.9" font-family="Arial" font-size="14.00" fill="#666666">[bigint]</text>
<polygon fill="none" stroke="#000000" points="1462,-529.5 1462,-559.5 1631,-559.5 1631,-529.5 1462,-529.5"/>
<text text-anchor="start" x="1469" y="-540.9" font-family="Arial" font-size="14.00" fill="#000000">user_id </text>
<text text-anchor="start" x="1518.7882" y="-540.9" font-family="Arial" font-size="14.00" fill="#666666">[bigint]</text>
<polygon fill="none" stroke="#000000" points="1462,-499.5 1462,-529.5 1631,-529.5 1631,-499.5 1462,-499.5"/>
<text text-anchor="start" x="1469" y="-510.9" font-family="Arial" font-size="14.00" fill="#000000">address </text>
<text text-anchor="start" x="1522.6816" y="-510.9" font-family="Arial" font-size="14.00" fill="#666666">[varchar(255)]</text>
<polygon fill="none" stroke="#000000" points="1462,-469.5 1462,-499.5 1631,-499.5 1631,-469.5 1462,-469.5"/>
<text text-anchor="start" x="1469" y="-480.9" font-family="Arial" font-size="14.00" fill="#000000">created_at </text>
<text text-anchor="start" x="1539.028" y="-480.9" font-family="Arial" font-size="14.00" fill="#666666">[datetime(6)]</text>
<polygon fill="none" stroke="#000000" points="1462,-439.5 1462,-469.5 1631,-469.5 1631,-439.5 1462,-439.5"/>
<text text-anchor="start" x="1469" y="-450.9" font-family="Arial" font-size="14.00" fill="#000000">updated_at </text>
<text text-anchor="start" x="1542.9326" y="-450.9" font-family="Arial" font-size="14.00" fill="#666666">[datetime(6)]</text>
</g>
<!-- profiles&#45;&gt;users -->
<g id="edge4" class="edge">
<title>profiles:user_id&#45;&gt;users:id</title>
<path fill="none" stroke="#000000" d="M1451.6055,-543.9689C1372.4658,-535.33 1439.9456,-423.0709 1409,-337 1387.4749,-277.1308 1411.6212,-207.5 1348,-207.5"/>
<polygon fill="#000000" stroke="#000000" points="1452.013,-543.9896 1461.7703,-548.9941 1457.0065,-544.2448 1462,-544.5 1462,-544.5 1462,-544.5 1457.0065,-544.2448 1462.2297,-540.0059 1452.013,-543.9896 1452.013,-543.9896"/>
<text text-anchor="start" x="1468.945" y="-528.5" font-family="Arial" font-size="10.00" fill="#000000">FOREIGN KEY (user_id) REFERENCES users (id)</text>
</g>
<!-- schema_migrations -->
<g id="node8" class="node">
<title>schema_migrations</title>
<polygon fill="#efefef" stroke="transparent" points="1735,-911.5 1735,-946.5 2002,-946.5 2002,-911.5 1735,-911.5"/>
<polygon fill="none" stroke="#000000" points="1735,-911.5 1735,-946.5 2002,-946.5 2002,-911.5 1735,-911.5"/>
<text text-anchor="start" x="1741.8647" y="-924.3" font-family="Arial Bold" font-size="18.00" fill="#000000">schema_migrations</text>
<text text-anchor="start" x="1897.8815" y="-924.3" font-family="Arial" font-size="14.00" fill="#000000"> </text>
<text text-anchor="start" x="1901.7721" y="-924.3" font-family="Arial" font-size="14.00" fill="#666666">[BASE TABLE]</text>
<polygon fill="none" stroke="#000000" points="1735,-881.5 1735,-911.5 2002,-911.5 2002,-881.5 1735,-881.5"/>
<text text-anchor="start" x="1742" y="-892.9" font-family="Arial" font-size="14.00" fill="#000000">version </text>
<text text-anchor="start" x="1791.0056" y="-892.9" font-family="Arial" font-size="14.00" fill="#666666">[varchar(255)]</text>
</g>
<!-- skills -->
<g id="node9" class="node">
<title>skills</title>
<polygon fill="#efefef" stroke="transparent" points="1464,-971.5 1464,-1006.5 1630,-1006.5 1630,-971.5 1464,-971.5"/>
<polygon fill="none" stroke="#000000" points="1464,-971.5 1464,-1006.5 1630,-1006.5 1630,-971.5 1464,-971.5"/>
<text text-anchor="start" x="1478.8818" y="-984.3" font-family="Arial Bold" font-size="18.00" fill="#000000">skills</text>
<text text-anchor="start" x="1517.8644" y="-984.3" font-family="Arial" font-size="14.00" fill="#000000"> </text>
<text text-anchor="start" x="1521.755" y="-984.3" font-family="Arial" font-size="14.00" fill="#666666">[BASE TABLE]</text>
<polygon fill="none" stroke="#000000" points="1464,-941.5 1464,-971.5 1630,-971.5 1630,-941.5 1464,-941.5"/>
<text text-anchor="start" x="1471" y="-952.9" font-family="Arial" font-size="14.00" fill="#000000">id </text>
<text text-anchor="start" x="1485.7798" y="-952.9" font-family="Arial" font-size="14.00" fill="#666666">[bigint]</text>
<polygon fill="none" stroke="#000000" points="1464,-911.5 1464,-941.5 1630,-941.5 1630,-911.5 1464,-911.5"/>
<text text-anchor="start" x="1471" y="-922.9" font-family="Arial" font-size="14.00" fill="#000000">profile_id </text>
<text text-anchor="start" x="1531.6746" y="-922.9" font-family="Arial" font-size="14.00" fill="#666666">[bigint]</text>
<polygon fill="none" stroke="#000000" points="1464,-881.5 1464,-911.5 1630,-911.5 1630,-881.5 1464,-881.5"/>
<text text-anchor="start" x="1471" y="-892.9" font-family="Arial" font-size="14.00" fill="#000000">name </text>
<text text-anchor="start" x="1509.899" y="-892.9" font-family="Arial" font-size="14.00" fill="#666666">[varchar(255)]</text>
<polygon fill="none" stroke="#000000" points="1464,-851.5 1464,-881.5 1630,-881.5 1630,-851.5 1464,-851.5"/>
<text text-anchor="start" x="1471" y="-862.9" font-family="Arial" font-size="14.00" fill="#000000">created_at </text>
<text text-anchor="start" x="1541.028" y="-862.9" font-family="Arial" font-size="14.00" fill="#666666">[datetime(6)]</text>
<polygon fill="none" stroke="#000000" points="1464,-821.5 1464,-851.5 1630,-851.5 1630,-821.5 1464,-821.5"/>
<text text-anchor="start" x="1470.7518" y="-832.9" font-family="Arial" font-size="14.00" fill="#000000">updated_at </text>
<text text-anchor="start" x="1544.6844" y="-832.9" font-family="Arial" font-size="14.00" fill="#666666">[datetime(6)]</text>
</g>
<!-- skills&#45;&gt;profiles -->
<g id="edge5" class="edge">
<title>skills:profile_id&#45;&gt;profiles:id</title>
<path fill="none" stroke="#000000" d="M1453.8056,-925.6586C1402.3504,-916.4386 1434.7815,-833.5047 1464,-779 1506.1072,-700.4526 1588.8928,-746.5474 1631,-668 1650.6337,-631.3751 1672.5556,-574.5 1631,-574.5"/>
<polygon fill="#000000" stroke="#000000" points="1454.0339,-925.6773 1463.6298,-930.9847 1459.0169,-926.0887 1464,-926.5 1464,-926.5 1464,-926.5 1459.0169,-926.0887 1464.3702,-922.0153 1454.0339,-925.6773 1454.0339,-925.6773"/>
<text text-anchor="start" x="1279.919" y="-910.5" font-family="Arial" font-size="10.00" fill="#000000">FOREIGN KEY (profile_id) REFERENCES profiles (id)</text>
</g>
<!-- user_books -->
<g id="node10" class="node">
<title>user_books</title>
<polygon fill="#efefef" stroke="transparent" points="865,-589.5 865,-624.5 1069,-624.5 1069,-589.5 865,-589.5"/>
<polygon fill="none" stroke="#000000" points="865,-589.5 865,-624.5 1069,-624.5 1069,-589.5 865,-589.5"/>
<text text-anchor="start" x="871.8584" y="-602.3" font-family="Arial Bold" font-size="18.00" fill="#000000">user_books</text>
<text text-anchor="start" x="964.8878" y="-602.3" font-family="Arial" font-size="14.00" fill="#000000"> </text>
<text text-anchor="start" x="968.7784" y="-602.3" font-family="Arial" font-size="14.00" fill="#666666">[BASE TABLE]</text>
<polygon fill="none" stroke="#000000" points="865,-559.5 865,-589.5 1069,-589.5 1069,-559.5 865,-559.5"/>
<text text-anchor="start" x="872" y="-570.9" font-family="Arial" font-size="14.00" fill="#000000">id </text>
<text text-anchor="start" x="886.7798" y="-570.9" font-family="Arial" font-size="14.00" fill="#666666">[bigint]</text>
<polygon fill="none" stroke="#000000" points="865,-529.5 865,-559.5 1069,-559.5 1069,-529.5 865,-529.5"/>
<text text-anchor="start" x="872" y="-540.9" font-family="Arial" font-size="14.00" fill="#000000">user_id </text>
<text text-anchor="start" x="921.7882" y="-540.9" font-family="Arial" font-size="14.00" fill="#666666">[bigint]</text>
<polygon fill="none" stroke="#000000" points="865,-499.5 865,-529.5 1069,-529.5 1069,-499.5 865,-499.5"/>
<text text-anchor="start" x="872" y="-510.9" font-family="Arial" font-size="14.00" fill="#000000">book_id </text>
<text text-anchor="start" x="924.9102" y="-510.9" font-family="Arial" font-size="14.00" fill="#666666">[bigint]</text>
<polygon fill="none" stroke="#000000" points="865,-469.5 865,-499.5 1069,-499.5 1069,-469.5 865,-469.5"/>
<text text-anchor="start" x="872" y="-480.9" font-family="Arial" font-size="14.00" fill="#000000">created_at </text>
<text text-anchor="start" x="942.028" y="-480.9" font-family="Arial" font-size="14.00" fill="#666666">[datetime(6)]</text>
<polygon fill="none" stroke="#000000" points="865,-439.5 865,-469.5 1069,-469.5 1069,-439.5 865,-439.5"/>
<text text-anchor="start" x="872" y="-450.9" font-family="Arial" font-size="14.00" fill="#000000">updated_at </text>
<text text-anchor="start" x="945.9326" y="-450.9" font-family="Arial" font-size="14.00" fill="#666666">[datetime(6)]</text>
</g>
<!-- user_books&#45;&gt;books -->
<g id="edge6" class="edge">
<title>user_books:book_id&#45;&gt;books:id</title>
<path fill="none" stroke="#000000" d="M1078.9322,-512.348C1142.1035,-483.6467 1121.4918,-177.5 1050,-177.5"/>
<polygon fill="#000000" stroke="#000000" points="1078.7732,-512.3824 1068.0471,-510.102 1073.8866,-513.4412 1069,-514.5 1069,-514.5 1069,-514.5 1073.8866,-513.4412 1069.9529,-518.898 1078.7732,-512.3824 1078.7732,-512.3824"/>
<text text-anchor="start" x="1075.715" y="-524.5" font-family="Arial" font-size="10.00" fill="#000000">FOREIGN KEY (book_id) REFERENCES books (id)</text>
</g>
<!-- user_books&#45;&gt;users -->
<g id="edge7" class="edge">
<title>user_books:user_id&#45;&gt;users:id</title>
<path fill="none" stroke="#000000" d="M1079.3793,-543.9687C1158.3749,-535.3277 1090.2846,-423.0421 1121,-337 1142.3895,-277.0822 1118.3788,-207.5 1182,-207.5"/>
<polygon fill="#000000" stroke="#000000" points="1078.9869,-543.9887 1068.7699,-540.0059 1073.9935,-544.2444 1069,-544.5 1069,-544.5 1069,-544.5 1073.9935,-544.2444 1069.2301,-548.9941 1078.9869,-543.9887 1078.9869,-543.9887"/>
<text text-anchor="start" x="1075.945" y="-554.5" font-family="Arial" font-size="10.00" fill="#000000">FOREIGN KEY (user_id) REFERENCES users (id)</text>
</g>
</g>
</svg>
