<?xml version="1.0" encoding="UTF-8" standalone="no"?>
<!DOCTYPE svg PUBLIC "-//W3C//DTD SVG 1.1//EN"
 "http://www.w3.org/Graphics/SVG/1.1/DTD/svg11.dtd">
<!-- Generated by graphviz version 2.40.1 (20161225.0304)
 -->
<!-- Title: set_null_children Pages: 1 -->
<svg width="557pt" height="532pt"
 viewBox="0.00 0.00 557.00 532.00" xmlns="http://www.w3.org/2000/svg" xmlns:xlink="http://www.w3.org/1999/xlink">
<g id="graph0" class="graph" transform="scale(1 1) rotate(0) translate(4 528)">
<title>set_null_children</title>
<polygon fill="#ffffff" stroke="transparent" points="-4,4 -4,-528 553,-528 553,4 -4,4"/>
<!-- set_null_children -->
<g id="node1" class="node">
<title>set_null_children</title>
<polygon fill="#efefef" stroke="transparent" points="257,-442.5 257,-477.5 503,-477.5 503,-442.5 257,-442.5"/>
<polygon fill="none" stroke="#000000" points="257,-442.5 257,-477.5 503,-477.5 503,-442.5 257,-442.5"/>
<text text-anchor="start" x="263.8596" y="-455.3" font-family="Arial Bold" font-size="18.00" fill="#000000">set_null_children</text>
<text text-anchor="start" x="398.8866" y="-455.3" font-family="Arial" font-size="14.00" fill="#000000"> </text>
<text text-anchor="start" x="402.7772" y="-455.3" font-family="Arial" font-size="14.00" fill="#666666">[BASE TABLE]</text>
<polygon fill="none" stroke="#000000" points="257,-412.5 257,-442.5 503,-442.5 503,-412.5 257,-412.5"/>
<text text-anchor="start" x="264" y="-423.9" font-family="Arial" font-size="14.00" fill="#000000">id </text>
<text text-anchor="start" x="278.7798" y="-423.9" font-family="Arial" font-size="14.00" fill="#666666">[bigint]</text>
<polygon fill="none" stroke="#000000" points="257,-382.5 257,-412.5 503,-412.5 503,-382.5 257,-382.5"/>
<text text-anchor="start" x="264" y="-393.9" font-family="Arial" font-size="14.00" fill="#000000">parent_id </text>
<text text-anchor="start" x="326.244" y="-393.9" font-family="Arial" font-size="14.00" fill="#666666">[bigint]</text>
<polygon fill="none" stroke="#000000" points="257,-352.5 257,-382.5 503,-382.5 503,-352.5 257,-352.5"/>
<text text-anchor="start" x="264" y="-363.9" font-family="Arial" font-size="14.00" fill="#000000">created_at </text>
<text text-anchor="start" x="334.028" y="-363.9" font-family="Arial" font-size="14.00" fill="#666666">[datetime(6)]</text>
<polygon fill="none" stroke="#000000" points="257,-322.5 257,-352.5 503,-352.5 503,-322.5 257,-322.5"/>
<text text-anchor="start" x="264" y="-333.9" font-family="Arial" font-size="14.00" fill="#000000">updated_at </text>
<text text-anchor="start" x="337.9326" y="-333.9" font-family="Arial" font-size="14.00" fill="#666666">[datetime(6)]</text>
<polygon fill="none" stroke="#000000" stroke-width="3" points="255.5,-321.5 255.5,-479.5 504.5,-479.5 504.5,-321.5 255.5,-321.5"/>
</g>
<!-- parents -->
<g id="node2" class="node">
<title>parents</title>
<polygon fill="#efefef" stroke="transparent" points="294,-162.5 294,-197.5 465,-197.5 465,-162.5 294,-162.5"/>
<polygon fill="none" stroke="#000000" points="294,-162.5 294,-197.5 465,-197.5 465,-162.5 294,-162.5"/>
<text text-anchor="start" x="300.8635" y="-175.3" font-family="Arial Bold" font-size="18.00" fill="#000000">parents</text>
<text text-anchor="start" x="360.8827" y="-175.3" font-family="Arial" font-size="14.00" fill="#000000"> </text>
<text text-anchor="start" x="364.7733" y="-175.3" font-family="Arial" font-size="14.00" fill="#666666">[BASE TABLE]</text>
<polygon fill="none" stroke="#000000" points="294,-132.5 294,-162.5 465,-162.5 465,-132.5 294,-132.5"/>
<text text-anchor="start" x="301" y="-143.9" font-family="Arial" font-size="14.00" fill="#000000">id </text>
<text text-anchor="start" x="315.7798" y="-143.9" font-family="Arial" font-size="14.00" fill="#666666">[bigint]</text>
<polygon fill="none" stroke="#000000" points="294,-102.5 294,-132.5 465,-132.5 465,-102.5 294,-102.5"/>
<text text-anchor="start" x="301" y="-113.9" font-family="Arial" font-size="14.00" fill="#000000">status </text>
<text text-anchor="start" x="342.237" y="-113.9" font-family="Arial" font-size="14.00" fill="#666666">[tinyint unsigned]</text>
<polygon fill="none" stroke="#000000" points="294,-72.5 294,-102.5 465,-102.5 465,-72.5 294,-72.5"/>
<text text-anchor="start" x="301" y="-83.9" font-family="Arial" font-size="14.00" fill="#000000">created_at </text>
<text text-anchor="start" x="371.028" y="-83.9" font-family="Arial" font-size="14.00" fill="#666666">[datetime(6)]</text>
<polygon fill="none" stroke="#000000" points="294,-42.5 294,-72.5 465,-72.5 465,-42.5 294,-42.5"/>
<text text-anchor="start" x="301" y="-53.9" font-family="Arial" font-size="14.00" fill="#000000">updated_at </text>
<text text-anchor="start" x="374.9326" y="-53.9" font-family="Arial" font-size="14.00" fill="#666666">[datetime(6)]</text>
</g>
<!-- set_null_children&#45;&gt;parents -->
<g id="edge1" class="edge">
<title>set_null_children:parent_id&#45;&gt;parents:id</title>
<path fill="none" stroke="#000000" d="M247.0167,-396.4228C206.1232,-386.8072 224.8682,-315.1708 257,-277 317.4188,-205.2258 404.5812,-312.7742 465,-241 491.7616,-209.2088 506.5556,-147.5 465,-147.5"/>
<polygon fill="#000000" stroke="#000000" points="247.0577,-396.4271 256.5172,-401.974 252.0289,-396.9636 257,-397.5 257,-397.5 257,-397.5 252.0289,-396.9636 257.4828,-393.026 247.0577,-396.4271 247.0577,-396.4271"/>
<text text-anchor="start" x="7.048" y="-407.5" font-family="Arial" font-size="10.00" fill="#000000">FOREIGN KEY (parent_id) REFERENCES parents (id)</text>
</g>
</g>
</svg>
