<?xml version="1.0" encoding="UTF-8" standalone="no"?>
<!DOCTYPE svg PUBLIC "-//W3C//DTD SVG 1.1//EN"
 "http://www.w3.org/Graphics/SVG/1.1/DTD/svg11.dtd">
<!-- Generated by graphviz version 2.40.1 (20161225.0304)
 -->
<!-- Title: skills Pages: 1 -->
<svg width="475pt" height="592pt"
 viewBox="0.00 0.00 475.00 592.00" xmlns="http://www.w3.org/2000/svg" xmlns:xlink="http://www.w3.org/1999/xlink">
<g id="graph0" class="graph" transform="scale(1 1) rotate(0) translate(4 588)">
<title>skills</title>
<polygon fill="#ffffff" stroke="transparent" points="-4,4 -4,-588 471,-588 471,4 -4,4"/>
<!-- skills -->
<g id="node1" class="node">
<title>skills</title>
<polygon fill="#efefef" stroke="transparent" points="255,-502.5 255,-537.5 421,-537.5 421,-502.5 255,-502.5"/>
<polygon fill="none" stroke="#000000" points="255,-502.5 255,-537.5 421,-537.5 421,-502.5 255,-502.5"/>
<text text-anchor="start" x="269.8818" y="-515.3" font-family="Arial Bold" font-size="18.00" fill="#000000">skills</text>
<text text-anchor="start" x="308.8644" y="-515.3" font-family="Arial" font-size="14.00" fill="#000000"> </text>
<text text-anchor="start" x="312.755" y="-515.3" font-family="Arial" font-size="14.00" fill="#666666">[BASE TABLE]</text>
<polygon fill="none" stroke="#000000" points="255,-472.5 255,-502.5 421,-502.5 421,-472.5 255,-472.5"/>
<text text-anchor="start" x="262" y="-483.9" font-family="Arial" font-size="14.00" fill="#000000">id </text>
<text text-anchor="start" x="276.7798" y="-483.9" font-family="Arial" font-size="14.00" fill="#666666">[bigint]</text>
<polygon fill="none" stroke="#000000" points="255,-442.5 255,-472.5 421,-472.5 421,-442.5 255,-442.5"/>
<text text-anchor="start" x="262" y="-453.9" font-family="Arial" font-size="14.00" fill="#000000">profile_id </text>
<text text-anchor="start" x="322.6746" y="-453.9" font-family="Arial" font-size="14.00" fill="#666666">[bigint]</text>
<polygon fill="none" stroke="#000000" points="255,-412.5 255,-442.5 421,-442.5 421,-412.5 255,-412.5"/>
<text text-anchor="start" x="262" y="-423.9" font-family="Arial" font-size="14.00" fill="#000000">name </text>
<text text-anchor="start" x="300.899" y="-423.9" font-family="Arial" font-size="14.00" fill="#666666">[varchar(255)]</text>
<polygon fill="none" stroke="#000000" points="255,-382.5 255,-412.5 421,-412.5 421,-382.5 255,-382.5"/>
<text text-anchor="start" x="262" y="-393.9" font-family="Arial" font-size="14.00" fill="#000000">created_at </text>
<text text-anchor="start" x="332.028" y="-393.9" font-family="Arial" font-size="14.00" fill="#666666">[datetime(6)]</text>
<polygon fill="none" stroke="#000000" points="255,-352.5 255,-382.5 421,-382.5 421,-352.5 255,-352.5"/>
<text text-anchor="start" x="261.7518" y="-363.9" font-family="Arial" font-size="14.00" fill="#000000">updated_at </text>
<text text-anchor="start" x="335.6844" y="-363.9" font-family="Arial" font-size="14.00" fill="#666666">[datetime(6)]</text>
<polygon fill="none" stroke="#000000" stroke-width="3" points="253.5,-351.5 253.5,-539.5 422.5,-539.5 422.5,-351.5 253.5,-351.5"/>
</g>
<!-- profiles -->
<g id="node2" class="node">
<title>profiles</title>
<polygon fill="#efefef" stroke="transparent" points="253,-192.5 253,-227.5 422,-227.5 422,-192.5 253,-192.5"/>
<polygon fill="none" stroke="#000000" points="253,-192.5 253,-227.5 422,-227.5 422,-192.5 253,-192.5"/>
<text text-anchor="start" x="259.8724" y="-205.3" font-family="Arial Bold" font-size="18.00" fill="#000000">profiles</text>
<text text-anchor="start" x="317.8738" y="-205.3" font-family="Arial" font-size="14.00" fill="#000000"> </text>
<text text-anchor="start" x="321.7644" y="-205.3" font-family="Arial" font-size="14.00" fill="#666666">[BASE TABLE]</text>
<polygon fill="none" stroke="#000000" points="253,-162.5 253,-192.5 422,-192.5 422,-162.5 253,-162.5"/>
<text text-anchor="start" x="260" y="-173.9" font-family="Arial" font-size="14.00" fill="#000000">id </text>
<text text-anchor="start" x="274.7798" y="-173.9" font-family="Arial" font-size="14.00" fill="#666666">[bigint]</text>
<polygon fill="none" stroke="#000000" points="253,-132.5 253,-162.5 422,-162.5 422,-132.5 253,-132.5"/>
<text text-anchor="start" x="260" y="-143.9" font-family="Arial" font-size="14.00" fill="#000000">user_id </text>
<text text-anchor="start" x="309.7882" y="-143.9" font-family="Arial" font-size="14.00" fill="#666666">[bigint]</text>
<polygon fill="none" stroke="#000000" points="253,-102.5 253,-132.5 422,-132.5 422,-102.5 253,-102.5"/>
<text text-anchor="start" x="260" y="-113.9" font-family="Arial" font-size="14.00" fill="#000000">address </text>
<text text-anchor="start" x="313.6816" y="-113.9" font-family="Arial" font-size="14.00" fill="#666666">[varchar(255)]</text>
<polygon fill="none" stroke="#000000" points="253,-72.5 253,-102.5 422,-102.5 422,-72.5 253,-72.5"/>
<text text-anchor="start" x="260" y="-83.9" font-family="Arial" font-size="14.00" fill="#000000">created_at </text>
<text text-anchor="start" x="330.028" y="-83.9" font-family="Arial" font-size="14.00" fill="#666666">[datetime(6)]</text>
<polygon fill="none" stroke="#000000" points="253,-42.5 253,-72.5 422,-72.5 422,-42.5 253,-42.5"/>
<text text-anchor="start" x="260" y="-53.9" font-family="Arial" font-size="14.00" fill="#000000">updated_at </text>
<text text-anchor="start" x="333.9326" y="-53.9" font-family="Arial" font-size="14.00" fill="#666666">[datetime(6)]</text>
</g>
<!-- skills&#45;&gt;profiles -->
<g id="edge1" class="edge">
<title>skills:profile_id&#45;&gt;profiles:id</title>
<path fill="none" stroke="#000000" d="M244.8371,-456.6403C190.8825,-446.8701 215.2783,-356.1969 255,-307 302.6975,-247.9247 374.3025,-330.0753 422,-271 448.1052,-238.6676 463.5556,-177.5 422,-177.5"/>
<polygon fill="#000000" stroke="#000000" points="245.0356,-456.657 254.6207,-461.984 250.0178,-457.0785 255,-457.5 255,-457.5 255,-457.5 250.0178,-457.0785 255.3793,-453.016 245.0356,-456.657 245.0356,-456.657"/>
<text text-anchor="start" x="7.169" y="-467.5" font-family="Arial" font-size="10.00" fill="#000000">FOREIGN KEY (profile_id) REFERENCES profiles (id)</text>
</g>
</g>
</svg>
