<?xml version="1.0" encoding="UTF-8" standalone="no"?>
<!DOCTYPE svg PUBLIC "-//W3C//DTD SVG 1.1//EN"
 "http://www.w3.org/Graphics/SVG/1.1/DTD/svg11.dtd">
<!-- Generated by graphviz version 2.40.1 (20161225.0304)
 -->
<!-- Title: sub_model_users Pages: 1 -->
<svg width="658pt" height="532pt"
 viewBox="0.00 0.00 657.50 532.00" xmlns="http://www.w3.org/2000/svg" xmlns:xlink="http://www.w3.org/1999/xlink">
<g id="graph0" class="graph" transform="scale(1 1) rotate(0) translate(4 528)">
<title>sub_model_users</title>
<polygon fill="#ffffff" stroke="transparent" points="-4,4 -4,-528 653.5,-528 653.5,4 -4,4"/>
<!-- sub_model_users -->
<g id="node1" class="node">
<title>sub_model_users</title>
<polygon fill="#efefef" stroke="transparent" points="351,-135.5 351,-170.5 604,-170.5 604,-135.5 351,-135.5"/>
<polygon fill="none" stroke="#000000" points="351,-135.5 351,-170.5 604,-170.5 604,-135.5 351,-135.5"/>
<text text-anchor="start" x="357.8559" y="-148.3" font-family="Arial Bold" font-size="18.00" fill="#000000">sub_model_users</text>
<text text-anchor="start" x="499.8903" y="-148.3" font-family="Arial" font-size="14.00" fill="#000000"> </text>
<text text-anchor="start" x="503.7809" y="-148.3" font-family="Arial" font-size="14.00" fill="#666666">[BASE TABLE]</text>
<polygon fill="none" stroke="#000000" points="351,-105.5 351,-135.5 604,-135.5 604,-105.5 351,-105.5"/>
<text text-anchor="start" x="358" y="-116.9" font-family="Arial" font-size="14.00" fill="#000000">id </text>
<text text-anchor="start" x="372.7798" y="-116.9" font-family="Arial" font-size="14.00" fill="#666666">[bigint]</text>
<polygon fill="none" stroke="#000000" points="351,-75.5 351,-105.5 604,-105.5 604,-75.5 351,-75.5"/>
<text text-anchor="start" x="358" y="-86.9" font-family="Arial" font-size="14.00" fill="#000000">created_at </text>
<text text-anchor="start" x="428.028" y="-86.9" font-family="Arial" font-size="14.00" fill="#666666">[datetime(6)]</text>
<polygon fill="none" stroke="#000000" points="351,-45.5 351,-75.5 604,-75.5 604,-45.5 351,-45.5"/>
<text text-anchor="start" x="358" y="-56.9" font-family="Arial" font-size="14.00" fill="#000000">updated_at </text>
<text text-anchor="start" x="431.9326" y="-56.9" font-family="Arial" font-size="14.00" fill="#666666">[datetime(6)]</text>
<polygon fill="none" stroke="#000000" stroke-width="3" points="349,-44.5 349,-172.5 605,-172.5 605,-44.5 349,-44.5"/>
</g>
<!-- sub_model_books -->
<g id="node2" class="node">
<title>sub_model_books</title>
<polygon fill="#efefef" stroke="transparent" points="349,-445.5 349,-480.5 606,-480.5 606,-445.5 349,-445.5"/>
<polygon fill="none" stroke="#000000" points="349,-445.5 349,-480.5 606,-480.5 606,-445.5 349,-445.5"/>
<text text-anchor="start" x="355.8489" y="-458.3" font-family="Arial Bold" font-size="18.00" fill="#000000">sub_model_books</text>
<text text-anchor="start" x="501.8973" y="-458.3" font-family="Arial" font-size="14.00" fill="#000000"> </text>
<text text-anchor="start" x="505.7879" y="-458.3" font-family="Arial" font-size="14.00" fill="#666666">[BASE TABLE]</text>
<polygon fill="none" stroke="#000000" points="349,-415.5 349,-445.5 606,-445.5 606,-415.5 349,-415.5"/>
<text text-anchor="start" x="356" y="-426.9" font-family="Arial" font-size="14.00" fill="#000000">id </text>
<text text-anchor="start" x="370.7798" y="-426.9" font-family="Arial" font-size="14.00" fill="#666666">[bigint]</text>
<polygon fill="none" stroke="#000000" points="349,-385.5 349,-415.5 606,-415.5 606,-385.5 349,-385.5"/>
<text text-anchor="start" x="356" y="-396.9" font-family="Arial" font-size="14.00" fill="#000000">sub_model_user_id </text>
<text text-anchor="start" x="482.0336" y="-396.9" font-family="Arial" font-size="14.00" fill="#666666">[bigint]</text>
<polygon fill="none" stroke="#000000" points="349,-355.5 349,-385.5 606,-385.5 606,-355.5 349,-355.5"/>
<text text-anchor="start" x="356" y="-366.9" font-family="Arial" font-size="14.00" fill="#000000">user_id </text>
<text text-anchor="start" x="405.7882" y="-366.9" font-family="Arial" font-size="14.00" fill="#666666">[bigint]</text>
<polygon fill="none" stroke="#000000" points="349,-325.5 349,-355.5 606,-355.5 606,-325.5 349,-325.5"/>
<text text-anchor="start" x="356" y="-336.9" font-family="Arial" font-size="14.00" fill="#000000">created_at </text>
<text text-anchor="start" x="426.028" y="-336.9" font-family="Arial" font-size="14.00" fill="#666666">[datetime(6)]</text>
<polygon fill="none" stroke="#000000" points="349,-295.5 349,-325.5 606,-325.5 606,-295.5 349,-295.5"/>
<text text-anchor="start" x="356" y="-306.9" font-family="Arial" font-size="14.00" fill="#000000">updated_at </text>
<text text-anchor="start" x="429.9326" y="-306.9" font-family="Arial" font-size="14.00" fill="#666666">[datetime(6)]</text>
</g>
<!-- sub_model_books&#45;&gt;sub_model_users -->
<g id="edge1" class="edge">
<title>sub_model_books:sub_model_user_id&#45;&gt;sub_model_users:id</title>
<path fill="none" stroke="#000000" d="M339.0442,-397.9069C287.196,-369.6795 292.3006,-120.5 351,-120.5"/>
<polygon fill="#000000" stroke="#000000" points="339.3229,-397.9794 347.8657,-404.8547 344.1614,-399.2397 349,-400.5 349,-400.5 349,-400.5 344.1614,-399.2397 350.1343,-396.1453 339.3229,-397.9794 339.3229,-397.9794"/>
<text text-anchor="start" x="7.484" y="-410.5" font-family="Arial" font-size="10.00" fill="#000000">FOREIGN KEY (sub_model_user_id) REFERENCES sub_model_users (id)</text>
</g>
<!-- sub_model_books&#45;&gt;sub_model_users -->
<g id="edge2" class="edge">
<title>sub_model_books:user_id&#45;&gt;sub_model_users:id</title>
<path fill="none" stroke="#000000" d="M339.2565,-367.6924C293.9019,-340.2266 298.915,-120.5 351,-120.5"/>
<polygon fill="#000000" stroke="#000000" points="339.391,-367.7311 347.754,-374.8241 344.1955,-369.1155 349,-370.5 349,-370.5 349,-370.5 344.1955,-369.1155 350.246,-366.1759 339.391,-367.7311 339.391,-367.7311"/>
<text text-anchor="start" x="61.7145" y="-380.5" font-family="Arial" font-size="10.00" fill="#000000">FOREIGN KEY (user_id) REFERENCES sub_model_users (id)</text>
</g>
</g>
</svg>
