<?xml version="1.0" encoding="UTF-8" standalone="no"?>
<!DOCTYPE svg PUBLIC "-//W3C//DTD SVG 1.1//EN"
 "http://www.w3.org/Graphics/SVG/1.1/DTD/svg11.dtd">
<!-- Generated by graphviz version 2.40.1 (20161225.0304)
 -->
<!-- Title: sub_model_books Pages: 1 -->
<svg width="660pt" height="532pt"
 viewBox="0.00 0.00 659.50 532.00" xmlns="http://www.w3.org/2000/svg" xmlns:xlink="http://www.w3.org/1999/xlink">
<g id="graph0" class="graph" transform="scale(1 1) rotate(0) translate(4 528)">
<title>sub_model_books</title>
<polygon fill="#ffffff" stroke="transparent" points="-4,4 -4,-528 655.5,-528 655.5,4 -4,4"/>
<!-- sub_model_books -->
<g id="node1" class="node">
<title>sub_model_books</title>
<polygon fill="#efefef" stroke="transparent" points="349,-442.5 349,-477.5 606,-477.5 606,-442.5 349,-442.5"/>
<polygon fill="none" stroke="#000000" points="349,-442.5 349,-477.5 606,-477.5 606,-442.5 349,-442.5"/>
<text text-anchor="start" x="355.8489" y="-455.3" font-family="Arial Bold" font-size="18.00" fill="#000000">sub_model_books</text>
<text text-anchor="start" x="501.8973" y="-455.3" font-family="Arial" font-size="14.00" fill="#000000"> </text>
<text text-anchor="start" x="505.7879" y="-455.3" font-family="Arial" font-size="14.00" fill="#666666">[BASE TABLE]</text>
<polygon fill="none" stroke="#000000" points="349,-412.5 349,-442.5 606,-442.5 606,-412.5 349,-412.5"/>
<text text-anchor="start" x="356" y="-423.9" font-family="Arial" font-size="14.00" fill="#000000">id </text>
<text text-anchor="start" x="370.7798" y="-423.9" font-family="Arial" font-size="14.00" fill="#666666">[bigint]</text>
<polygon fill="none" stroke="#000000" points="349,-382.5 349,-412.5 606,-412.5 606,-382.5 349,-382.5"/>
<text text-anchor="start" x="356" y="-393.9" font-family="Arial" font-size="14.00" fill="#000000">sub_model_user_id </text>
<text text-anchor="start" x="482.0336" y="-393.9" font-family="Arial" font-size="14.00" fill="#666666">[bigint]</text>
<polygon fill="none" stroke="#000000" points="349,-352.5 349,-382.5 606,-382.5 606,-352.5 349,-352.5"/>
<text text-anchor="start" x="356" y="-363.9" font-family="Arial" font-size="14.00" fill="#000000">user_id </text>
<text text-anchor="start" x="405.7882" y="-363.9" font-family="Arial" font-size="14.00" fill="#666666">[bigint]</text>
<polygon fill="none" stroke="#000000" points="349,-322.5 349,-352.5 606,-352.5 606,-322.5 349,-322.5"/>
<text text-anchor="start" x="356" y="-333.9" font-family="Arial" font-size="14.00" fill="#000000">created_at </text>
<text text-anchor="start" x="426.028" y="-333.9" font-family="Arial" font-size="14.00" fill="#666666">[datetime(6)]</text>
<polygon fill="none" stroke="#000000" points="349,-292.5 349,-322.5 606,-322.5 606,-292.5 349,-292.5"/>
<text text-anchor="start" x="356" y="-303.9" font-family="Arial" font-size="14.00" fill="#000000">updated_at </text>
<text text-anchor="start" x="429.9326" y="-303.9" font-family="Arial" font-size="14.00" fill="#666666">[datetime(6)]</text>
<polygon fill="none" stroke="#000000" stroke-width="3" points="347,-291.5 347,-479.5 607,-479.5 607,-291.5 347,-291.5"/>
</g>
<!-- sub_model_users -->
<g id="node2" class="node">
<title>sub_model_users</title>
<polygon fill="#efefef" stroke="transparent" points="351,-132.5 351,-167.5 604,-167.5 604,-132.5 351,-132.5"/>
<polygon fill="none" stroke="#000000" points="351,-132.5 351,-167.5 604,-167.5 604,-132.5 351,-132.5"/>
<text text-anchor="start" x="357.8559" y="-145.3" font-family="Arial Bold" font-size="18.00" fill="#000000">sub_model_users</text>
<text text-anchor="start" x="499.8903" y="-145.3" font-family="Arial" font-size="14.00" fill="#000000"> </text>
<text text-anchor="start" x="503.7809" y="-145.3" font-family="Arial" font-size="14.00" fill="#666666">[BASE TABLE]</text>
<polygon fill="none" stroke="#000000" points="351,-102.5 351,-132.5 604,-132.5 604,-102.5 351,-102.5"/>
<text text-anchor="start" x="358" y="-113.9" font-family="Arial" font-size="14.00" fill="#000000">id </text>
<text text-anchor="start" x="372.7798" y="-113.9" font-family="Arial" font-size="14.00" fill="#666666">[bigint]</text>
<polygon fill="none" stroke="#000000" points="351,-72.5 351,-102.5 604,-102.5 604,-72.5 351,-72.5"/>
<text text-anchor="start" x="358" y="-83.9" font-family="Arial" font-size="14.00" fill="#000000">created_at </text>
<text text-anchor="start" x="428.028" y="-83.9" font-family="Arial" font-size="14.00" fill="#666666">[datetime(6)]</text>
<polygon fill="none" stroke="#000000" points="351,-42.5 351,-72.5 604,-72.5 604,-42.5 351,-42.5"/>
<text text-anchor="start" x="358" y="-53.9" font-family="Arial" font-size="14.00" fill="#000000">updated_at </text>
<text text-anchor="start" x="431.9326" y="-53.9" font-family="Arial" font-size="14.00" fill="#666666">[datetime(6)]</text>
</g>
<!-- sub_model_books&#45;&gt;sub_model_users -->
<g id="edge1" class="edge">
<title>sub_model_books:sub_model_user_id&#45;&gt;sub_model_users:id</title>
<path fill="none" stroke="#000000" d="M339.0442,-394.9069C287.196,-366.6795 292.3006,-117.5 351,-117.5"/>
<polygon fill="#000000" stroke="#000000" points="339.3229,-394.9794 347.8657,-401.8547 344.1614,-396.2397 349,-397.5 349,-397.5 349,-397.5 344.1614,-396.2397 350.1343,-393.1453 339.3229,-394.9794 339.3229,-394.9794"/>
<text text-anchor="start" x="7.484" y="-407.5" font-family="Arial" font-size="10.00" fill="#000000">FOREIGN KEY (sub_model_user_id) REFERENCES sub_model_users (id)</text>
</g>
<!-- sub_model_books&#45;&gt;sub_model_users -->
<g id="edge2" class="edge">
<title>sub_model_books:user_id&#45;&gt;sub_model_users:id</title>
<path fill="none" stroke="#000000" d="M339.2565,-364.6924C293.9019,-337.2266 298.915,-117.5 351,-117.5"/>
<polygon fill="#000000" stroke="#000000" points="339.391,-364.7311 347.754,-371.8241 344.1955,-366.1155 349,-367.5 349,-367.5 349,-367.5 344.1955,-366.1155 350.246,-363.1759 339.391,-364.7311 339.391,-364.7311"/>
<text text-anchor="start" x="61.7145" y="-377.5" font-family="Arial" font-size="10.00" fill="#000000">FOREIGN KEY (user_id) REFERENCES sub_model_users (id)</text>
</g>
</g>
</svg>
