<?xml version="1.0" encoding="UTF-8" standalone="no"?>
<!DOCTYPE svg PUBLIC "-//W3C//DTD SVG 1.1//EN"
 "http://www.w3.org/Graphics/SVG/1.1/DTD/svg11.dtd">
<!-- Generated by graphviz version 2.40.1 (20161225.0304)
 -->
<!-- Title: user_books Pages: 1 -->
<svg width="696pt" height="652pt"
 viewBox="0.00 0.00 696.00 652.00" xmlns="http://www.w3.org/2000/svg" xmlns:xlink="http://www.w3.org/1999/xlink">
<g id="graph0" class="graph" transform="scale(1 1) rotate(0) translate(4 648)">
<title>user_books</title>
<polygon fill="#ffffff" stroke="transparent" points="-4,4 -4,-648 692,-648 692,4 -4,4"/>
<!-- user_books -->
<g id="node1" class="node">
<title>user_books</title>
<polygon fill="#efefef" stroke="transparent" points="240,-562.5 240,-597.5 444,-597.5 444,-562.5 240,-562.5"/>
<polygon fill="none" stroke="#000000" points="240,-562.5 240,-597.5 444,-597.5 444,-562.5 240,-562.5"/>
<text text-anchor="start" x="246.8584" y="-575.3" font-family="Arial Bold" font-size="18.00" fill="#000000">user_books</text>
<text text-anchor="start" x="339.8878" y="-575.3" font-family="Arial" font-size="14.00" fill="#000000"> </text>
<text text-anchor="start" x="343.7784" y="-575.3" font-family="Arial" font-size="14.00" fill="#666666">[BASE TABLE]</text>
<polygon fill="none" stroke="#000000" points="240,-532.5 240,-562.5 444,-562.5 444,-532.5 240,-532.5"/>
<text text-anchor="start" x="247" y="-543.9" font-family="Arial" font-size="14.00" fill="#000000">id </text>
<text text-anchor="start" x="261.7798" y="-543.9" font-family="Arial" font-size="14.00" fill="#666666">[bigint]</text>
<polygon fill="none" stroke="#000000" points="240,-502.5 240,-532.5 444,-532.5 444,-502.5 240,-502.5"/>
<text text-anchor="start" x="247" y="-513.9" font-family="Arial" font-size="14.00" fill="#000000">user_id </text>
<text text-anchor="start" x="296.7882" y="-513.9" font-family="Arial" font-size="14.00" fill="#666666">[bigint]</text>
<polygon fill="none" stroke="#000000" points="240,-472.5 240,-502.5 444,-502.5 444,-472.5 240,-472.5"/>
<text text-anchor="start" x="247" y="-483.9" font-family="Arial" font-size="14.00" fill="#000000">book_id </text>
<text text-anchor="start" x="299.9102" y="-483.9" font-family="Arial" font-size="14.00" fill="#666666">[bigint]</text>
<polygon fill="none" stroke="#000000" points="240,-442.5 240,-472.5 444,-472.5 444,-442.5 240,-442.5"/>
<text text-anchor="start" x="247" y="-453.9" font-family="Arial" font-size="14.00" fill="#000000">created_at </text>
<text text-anchor="start" x="317.028" y="-453.9" font-family="Arial" font-size="14.00" fill="#666666">[datetime(6)]</text>
<polygon fill="none" stroke="#000000" points="240,-412.5 240,-442.5 444,-442.5 444,-412.5 240,-412.5"/>
<text text-anchor="start" x="247" y="-423.9" font-family="Arial" font-size="14.00" fill="#000000">updated_at </text>
<text text-anchor="start" x="320.9326" y="-423.9" font-family="Arial" font-size="14.00" fill="#666666">[datetime(6)]</text>
<polygon fill="none" stroke="#000000" stroke-width="3" points="238.5,-411.5 238.5,-599.5 445.5,-599.5 445.5,-411.5 238.5,-411.5"/>
</g>
<!-- users -->
<g id="node2" class="node">
<title>users</title>
<polygon fill="#efefef" stroke="transparent" points="124,-252.5 124,-287.5 290,-287.5 290,-252.5 124,-252.5"/>
<polygon fill="none" stroke="#000000" points="124,-252.5 124,-287.5 290,-287.5 290,-252.5 124,-252.5"/>
<text text-anchor="start" x="136.3708" y="-265.3" font-family="Arial Bold" font-size="18.00" fill="#000000">users</text>
<text text-anchor="start" x="180.3754" y="-265.3" font-family="Arial" font-size="14.00" fill="#000000"> </text>
<text text-anchor="start" x="184.266" y="-265.3" font-family="Arial" font-size="14.00" fill="#666666">[BASE TABLE]</text>
<polygon fill="none" stroke="#000000" points="124,-222.5 124,-252.5 290,-252.5 290,-222.5 124,-222.5"/>
<text text-anchor="start" x="131" y="-233.9" font-family="Arial" font-size="14.00" fill="#000000">id </text>
<text text-anchor="start" x="145.7798" y="-233.9" font-family="Arial" font-size="14.00" fill="#666666">[bigint]</text>
<polygon fill="none" stroke="#000000" points="124,-192.5 124,-222.5 290,-222.5 290,-192.5 124,-192.5"/>
<text text-anchor="start" x="131" y="-203.9" font-family="Arial" font-size="14.00" fill="#000000">email </text>
<text text-anchor="start" x="168.3296" y="-203.9" font-family="Arial" font-size="14.00" fill="#666666">[varchar(255)]</text>
<polygon fill="none" stroke="#000000" points="124,-162.5 124,-192.5 290,-192.5 290,-162.5 124,-162.5"/>
<text text-anchor="start" x="131" y="-173.9" font-family="Arial" font-size="14.00" fill="#000000">name </text>
<text text-anchor="start" x="169.899" y="-173.9" font-family="Arial" font-size="14.00" fill="#666666">[varchar(255)]</text>
<polygon fill="none" stroke="#000000" points="124,-132.5 124,-162.5 290,-162.5 290,-132.5 124,-132.5"/>
<text text-anchor="start" x="131" y="-143.9" font-family="Arial" font-size="14.00" fill="#000000">locale </text>
<text text-anchor="start" x="171.4516" y="-143.9" font-family="Arial" font-size="14.00" fill="#666666">[int]</text>
<polygon fill="none" stroke="#000000" points="124,-102.5 124,-132.5 290,-132.5 290,-102.5 124,-102.5"/>
<text text-anchor="start" x="131" y="-113.9" font-family="Arial" font-size="14.00" fill="#000000">nickname </text>
<text text-anchor="start" x="194.7882" y="-113.9" font-family="Arial" font-size="14.00" fill="#666666">[varchar(255)]</text>
<polygon fill="none" stroke="#000000" points="124,-72.5 124,-102.5 290,-102.5 290,-72.5 124,-72.5"/>
<text text-anchor="start" x="131" y="-83.9" font-family="Arial" font-size="14.00" fill="#000000">created_at </text>
<text text-anchor="start" x="201.028" y="-83.9" font-family="Arial" font-size="14.00" fill="#666666">[datetime(6)]</text>
<polygon fill="none" stroke="#000000" points="124,-42.5 124,-72.5 290,-72.5 290,-42.5 124,-42.5"/>
<text text-anchor="start" x="130.7518" y="-53.9" font-family="Arial" font-size="14.00" fill="#000000">updated_at </text>
<text text-anchor="start" x="204.6844" y="-53.9" font-family="Arial" font-size="14.00" fill="#666666">[datetime(6)]</text>
</g>
<!-- user_books&#45;&gt;users -->
<g id="edge1" class="edge">
<title>user_books:user_id&#45;&gt;users:id</title>
<path fill="none" stroke="#000000" d="M229.6048,-517.4263C-55.1398,-513.2999 286.8232,-337.2019 290,-331 308.9453,-294.0143 331.5556,-237.5 290,-237.5"/>
<polygon fill="#000000" stroke="#000000" points="230.0003,-517.429 239.9681,-521.9999 235.0001,-517.4645 240,-517.5 240,-517.5 240,-517.5 235.0001,-517.4645 240.0319,-513.0001 230.0003,-517.429 230.0003,-517.429"/>
<text text-anchor="start" x="6.945" y="-527.5" font-family="Arial" font-size="10.00" fill="#000000">FOREIGN KEY (user_id) REFERENCES users (id)</text>
</g>
<!-- books -->
<g id="node3" class="node">
<title>books</title>
<polygon fill="#efefef" stroke="transparent" points="394,-207.5 394,-242.5 560,-242.5 560,-207.5 394,-207.5"/>
<polygon fill="none" stroke="#000000" points="394,-207.5 394,-242.5 560,-242.5 560,-207.5 394,-207.5"/>
<text text-anchor="start" x="404.3638" y="-220.3" font-family="Arial Bold" font-size="18.00" fill="#000000">books</text>
<text text-anchor="start" x="452.3824" y="-220.3" font-family="Arial" font-size="14.00" fill="#000000"> </text>
<text text-anchor="start" x="456.273" y="-220.3" font-family="Arial" font-size="14.00" fill="#666666">[BASE TABLE]</text>
<polygon fill="none" stroke="#000000" points="394,-177.5 394,-207.5 560,-207.5 560,-177.5 394,-177.5"/>
<text text-anchor="start" x="401" y="-188.9" font-family="Arial" font-size="14.00" fill="#000000">id </text>
<text text-anchor="start" x="415.7798" y="-188.9" font-family="Arial" font-size="14.00" fill="#666666">[bigint]</text>
<polygon fill="none" stroke="#000000" points="394,-147.5 394,-177.5 560,-177.5 560,-147.5 394,-147.5"/>
<text text-anchor="start" x="401" y="-158.9" font-family="Arial" font-size="14.00" fill="#000000">title </text>
<text text-anchor="start" x="426.6676" y="-158.9" font-family="Arial" font-size="14.00" fill="#666666">[varchar(255)]</text>
<polygon fill="none" stroke="#000000" points="394,-117.5 394,-147.5 560,-147.5 560,-117.5 394,-117.5"/>
<text text-anchor="start" x="401" y="-128.9" font-family="Arial" font-size="14.00" fill="#000000">created_at </text>
<text text-anchor="start" x="471.028" y="-128.9" font-family="Arial" font-size="14.00" fill="#666666">[datetime(6)]</text>
<polygon fill="none" stroke="#000000" points="394,-87.5 394,-117.5 560,-117.5 560,-87.5 394,-87.5"/>
<text text-anchor="start" x="400.7518" y="-98.9" font-family="Arial" font-size="14.00" fill="#000000">updated_at </text>
<text text-anchor="start" x="474.6844" y="-98.9" font-family="Arial" font-size="14.00" fill="#666666">[datetime(6)]</text>
</g>
<!-- user_books&#45;&gt;books -->
<g id="edge2" class="edge">
<title>user_books:book_id&#45;&gt;books:id</title>
<path fill="none" stroke="#000000" d="M454.0182,-487.0082C556.5888,-476.2512 395.864,-292.5685 394,-286 382.6551,-246.023 352.4444,-192.5 394,-192.5"/>
<polygon fill="#000000" stroke="#000000" points="453.988,-487.0096 443.7793,-483.0054 448.994,-487.2548 444,-487.5 444,-487.5 444,-487.5 448.994,-487.2548 444.2207,-491.9946 453.988,-487.0096 453.988,-487.0096"/>
<text text-anchor="start" x="450.715" y="-497.5" font-family="Arial" font-size="10.00" fill="#000000">FOREIGN KEY (book_id) REFERENCES books (id)</text>
</g>
</g>
</svg>
