<?xml version="1.0" encoding="UTF-8" standalone="no"?>
<!DOCTYPE svg PUBLIC "-//W3C//DTD SVG 1.1//EN"
 "http://www.w3.org/Graphics/SVG/1.1/DTD/svg11.dtd">
<!-- Generated by graphviz version 2.40.1 (20161225.0304)
 -->
<!-- Title: user_books Pages: 1 -->
<svg width="696pt" height="622pt"
 viewBox="0.00 0.00 696.00 622.00" xmlns="http://www.w3.org/2000/svg" xmlns:xlink="http://www.w3.org/1999/xlink">
<g id="graph0" class="graph" transform="scale(1 1) rotate(0) translate(4 618)">
<title>user_books</title>
<polygon fill="#ffffff" stroke="transparent" points="-4,4 -4,-618 692,-618 692,4 -4,4"/>
<!-- user_books -->
<g id="node1" class="node">
<title>user_books</title>
<polygon fill="#efefef" stroke="transparent" points="240,-532.5 240,-567.5 444,-567.5 444,-532.5 240,-532.5"/>
<polygon fill="none" stroke="#000000" points="240,-532.5 240,-567.5 444,-567.5 444,-532.5 240,-532.5"/>
<text text-anchor="start" x="246.8584" y="-545.3" font-family="Arial Bold" font-size="18.00" fill="#000000">user_books</text>
<text text-anchor="start" x="339.8878" y="-545.3" font-family="Arial" font-size="14.00" fill="#000000"> </text>
<text text-anchor="start" x="343.7784" y="-545.3" font-family="Arial" font-size="14.00" fill="#666666">[BASE TABLE]</text>
<polygon fill="none" stroke="#000000" points="240,-502.5 240,-532.5 444,-532.5 444,-502.5 240,-502.5"/>
<text text-anchor="start" x="247" y="-513.9" font-family="Arial" font-size="14.00" fill="#000000">id </text>
<text text-anchor="start" x="261.7798" y="-513.9" font-family="Arial" font-size="14.00" fill="#666666">[bigint]</text>
<polygon fill="none" stroke="#000000" points="240,-472.5 240,-502.5 444,-502.5 444,-472.5 240,-472.5"/>
<text text-anchor="start" x="247" y="-483.9" font-family="Arial" font-size="14.00" fill="#000000">user_id </text>
<text text-anchor="start" x="296.7882" y="-483.9" font-family="Arial" font-size="14.00" fill="#666666">[bigint]</text>
<polygon fill="none" stroke="#000000" points="240,-442.5 240,-472.5 444,-472.5 444,-442.5 240,-442.5"/>
<text text-anchor="start" x="247" y="-453.9" font-family="Arial" font-size="14.00" fill="#000000">book_id </text>
<text text-anchor="start" x="299.9102" y="-453.9" font-family="Arial" font-size="14.00" fill="#666666">[bigint]</text>
<polygon fill="none" stroke="#000000" points="240,-412.5 240,-442.5 444,-442.5 444,-412.5 240,-412.5"/>
<text text-anchor="start" x="247" y="-423.9" font-family="Arial" font-size="14.00" fill="#000000">created_at </text>
<text text-anchor="start" x="317.028" y="-423.9" font-family="Arial" font-size="14.00" fill="#666666">[datetime(6)]</text>
<polygon fill="none" stroke="#000000" points="240,-382.5 240,-412.5 444,-412.5 444,-382.5 240,-382.5"/>
<text text-anchor="start" x="247" y="-393.9" font-family="Arial" font-size="14.00" fill="#000000">updated_at </text>
<text text-anchor="start" x="320.9326" y="-393.9" font-family="Arial" font-size="14.00" fill="#666666">[datetime(6)]</text>
<polygon fill="none" stroke="#000000" stroke-width="3" points="238.5,-381.5 238.5,-569.5 445.5,-569.5 445.5,-381.5 238.5,-381.5"/>
</g>
<!-- users -->
<g id="node2" class="node">
<title>users</title>
<polygon fill="#efefef" stroke="transparent" points="124,-222.5 124,-257.5 290,-257.5 290,-222.5 124,-222.5"/>
<polygon fill="none" stroke="#000000" points="124,-222.5 124,-257.5 290,-257.5 290,-222.5 124,-222.5"/>
<text text-anchor="start" x="136.3708" y="-235.3" font-family="Arial Bold" font-size="18.00" fill="#000000">users</text>
<text text-anchor="start" x="180.3754" y="-235.3" font-family="Arial" font-size="14.00" fill="#000000"> </text>
<text text-anchor="start" x="184.266" y="-235.3" font-family="Arial" font-size="14.00" fill="#666666">[BASE TABLE]</text>
<polygon fill="none" stroke="#000000" points="124,-192.5 124,-222.5 290,-222.5 290,-192.5 124,-192.5"/>
<text text-anchor="start" x="131" y="-203.9" font-family="Arial" font-size="14.00" fill="#000000">id </text>
<text text-anchor="start" x="145.7798" y="-203.9" font-family="Arial" font-size="14.00" fill="#666666">[bigint]</text>
<polygon fill="none" stroke="#000000" points="124,-162.5 124,-192.5 290,-192.5 290,-162.5 124,-162.5"/>
<text text-anchor="start" x="131" y="-173.9" font-family="Arial" font-size="14.00" fill="#000000">name </text>
<text text-anchor="start" x="169.899" y="-173.9" font-family="Arial" font-size="14.00" fill="#666666">[varchar(255)]</text>
<polygon fill="none" stroke="#000000" points="124,-132.5 124,-162.5 290,-162.5 290,-132.5 124,-132.5"/>
<text text-anchor="start" x="131" y="-143.9" font-family="Arial" font-size="14.00" fill="#000000">email </text>
<text text-anchor="start" x="168.3296" y="-143.9" font-family="Arial" font-size="14.00" fill="#666666">[varchar(255)]</text>
<polygon fill="none" stroke="#000000" points="124,-102.5 124,-132.5 290,-132.5 290,-102.5 124,-102.5"/>
<text text-anchor="start" x="131" y="-113.9" font-family="Arial" font-size="14.00" fill="#000000">locale </text>
<text text-anchor="start" x="171.4516" y="-113.9" font-family="Arial" font-size="14.00" fill="#666666">[int]</text>
<polygon fill="none" stroke="#000000" points="124,-72.5 124,-102.5 290,-102.5 290,-72.5 124,-72.5"/>
<text text-anchor="start" x="131" y="-83.9" font-family="Arial" font-size="14.00" fill="#000000">created_at </text>
<text text-anchor="start" x="201.028" y="-83.9" font-family="Arial" font-size="14.00" fill="#666666">[datetime(6)]</text>
<polygon fill="none" stroke="#000000" points="124,-42.5 124,-72.5 290,-72.5 290,-42.5 124,-42.5"/>
<text text-anchor="start" x="130.7518" y="-53.9" font-family="Arial" font-size="14.00" fill="#000000">updated_at </text>
<text text-anchor="start" x="204.6844" y="-53.9" font-family="Arial" font-size="14.00" fill="#666666">[datetime(6)]</text>
</g>
<!-- user_books&#45;&gt;users -->
<g id="edge1" class="edge">
<title>user_books:user_id&#45;&gt;users:id</title>
<path fill="none" stroke="#000000" d="M229.6048,-487.4263C-55.1398,-483.2999 286.8232,-307.2019 290,-301 308.9453,-264.0143 331.5556,-207.5 290,-207.5"/>
<polygon fill="#000000" stroke="#000000" points="230.0003,-487.429 239.9681,-491.9999 235.0001,-487.4645 240,-487.5 240,-487.5 240,-487.5 235.0001,-487.4645 240.0319,-483.0001 230.0003,-487.429 230.0003,-487.429"/>
<text text-anchor="start" x="6.945" y="-497.5" font-family="Arial" font-size="10.00" fill="#000000">FOREIGN KEY (user_id) REFERENCES users (id)</text>
</g>
<!-- books -->
<g id="node3" class="node">
<title>books</title>
<polygon fill="#efefef" stroke="transparent" points="394,-192.5 394,-227.5 560,-227.5 560,-192.5 394,-192.5"/>
<polygon fill="none" stroke="#000000" points="394,-192.5 394,-227.5 560,-227.5 560,-192.5 394,-192.5"/>
<text text-anchor="start" x="404.3638" y="-205.3" font-family="Arial Bold" font-size="18.00" fill="#000000">books</text>
<text text-anchor="start" x="452.3824" y="-205.3" font-family="Arial" font-size="14.00" fill="#000000"> </text>
<text text-anchor="start" x="456.273" y="-205.3" font-family="Arial" font-size="14.00" fill="#666666">[BASE TABLE]</text>
<polygon fill="none" stroke="#000000" points="394,-162.5 394,-192.5 560,-192.5 560,-162.5 394,-162.5"/>
<text text-anchor="start" x="401" y="-173.9" font-family="Arial" font-size="14.00" fill="#000000">id </text>
<text text-anchor="start" x="415.7798" y="-173.9" font-family="Arial" font-size="14.00" fill="#666666">[bigint]</text>
<polygon fill="none" stroke="#000000" points="394,-132.5 394,-162.5 560,-162.5 560,-132.5 394,-132.5"/>
<text text-anchor="start" x="401" y="-143.9" font-family="Arial" font-size="14.00" fill="#000000">title </text>
<text text-anchor="start" x="426.6676" y="-143.9" font-family="Arial" font-size="14.00" fill="#666666">[varchar(255)]</text>
<polygon fill="none" stroke="#000000" points="394,-102.5 394,-132.5 560,-132.5 560,-102.5 394,-102.5"/>
<text text-anchor="start" x="401" y="-113.9" font-family="Arial" font-size="14.00" fill="#000000">created_at </text>
<text text-anchor="start" x="471.028" y="-113.9" font-family="Arial" font-size="14.00" fill="#666666">[datetime(6)]</text>
<polygon fill="none" stroke="#000000" points="394,-72.5 394,-102.5 560,-102.5 560,-72.5 394,-72.5"/>
<text text-anchor="start" x="400.7518" y="-83.9" font-family="Arial" font-size="14.00" fill="#000000">updated_at </text>
<text text-anchor="start" x="474.6844" y="-83.9" font-family="Arial" font-size="14.00" fill="#666666">[datetime(6)]</text>
</g>
<!-- user_books&#45;&gt;books -->
<g id="edge2" class="edge">
<title>user_books:book_id&#45;&gt;books:id</title>
<path fill="none" stroke="#000000" d="M454.1294,-457.1807C581.13,-448.7429 395.639,-275.8777 394,-271 380.7638,-231.6088 352.4444,-177.5 394,-177.5"/>
<polygon fill="#000000" stroke="#000000" points="453.995,-457.1848 443.8582,-453.0022 448.9975,-457.3424 444,-457.5 444,-457.5 444,-457.5 448.9975,-457.3424 444.1418,-461.9978 453.995,-457.1848 453.995,-457.1848"/>
<text text-anchor="start" x="450.715" y="-467.5" font-family="Arial" font-size="10.00" fill="#000000">FOREIGN KEY (book_id) REFERENCES books (id)</text>
</g>
</g>
</svg>
