<?xml version="1.0" encoding="UTF-8" standalone="no"?>
<!DOCTYPE svg PUBLIC "-//W3C//DTD SVG 1.1//EN"
 "http://www.w3.org/Graphics/SVG/1.1/DTD/svg11.dtd">
<!-- Generated by graphviz version 2.40.1 (20161225.0304)
 -->
<!-- Title: users Pages: 1 -->
<svg width="860pt" height="682pt"
 viewBox="0.00 0.00 860.00 682.00" xmlns="http://www.w3.org/2000/svg" xmlns:xlink="http://www.w3.org/1999/xlink">
<g id="graph0" class="graph" transform="scale(1 1) rotate(0) translate(4 678)">
<title>users</title>
<polygon fill="#ffffff" stroke="transparent" points="-4,4 -4,-678 856,-678 856,4 -4,4"/>
<!-- users -->
<g id="node1" class="node">
<title>users</title>
<polygon fill="#efefef" stroke="transparent" points="334,-255.5 334,-290.5 500,-290.5 500,-255.5 334,-255.5"/>
<polygon fill="none" stroke="#000000" points="334,-255.5 334,-290.5 500,-290.5 500,-255.5 334,-255.5"/>
<text text-anchor="start" x="346.3708" y="-268.3" font-family="Arial Bold" font-size="18.00" fill="#000000">users</text>
<text text-anchor="start" x="390.3754" y="-268.3" font-family="Arial" font-size="14.00" fill="#000000"> </text>
<text text-anchor="start" x="394.266" y="-268.3" font-family="Arial" font-size="14.00" fill="#666666">[BASE TABLE]</text>
<polygon fill="none" stroke="#000000" points="334,-225.5 334,-255.5 500,-255.5 500,-225.5 334,-225.5"/>
<text text-anchor="start" x="341" y="-236.9" font-family="Arial" font-size="14.00" fill="#000000">id </text>
<text text-anchor="start" x="355.7798" y="-236.9" font-family="Arial" font-size="14.00" fill="#666666">[bigint]</text>
<polygon fill="none" stroke="#000000" points="334,-195.5 334,-225.5 500,-225.5 500,-195.5 334,-195.5"/>
<text text-anchor="start" x="341" y="-206.9" font-family="Arial" font-size="14.00" fill="#000000">email </text>
<text text-anchor="start" x="378.3296" y="-206.9" font-family="Arial" font-size="14.00" fill="#666666">[varchar(255)]</text>
<polygon fill="none" stroke="#000000" points="334,-165.5 334,-195.5 500,-195.5 500,-165.5 334,-165.5"/>
<text text-anchor="start" x="341" y="-176.9" font-family="Arial" font-size="14.00" fill="#000000">name </text>
<text text-anchor="start" x="379.899" y="-176.9" font-family="Arial" font-size="14.00" fill="#666666">[varchar(255)]</text>
<polygon fill="none" stroke="#000000" points="334,-135.5 334,-165.5 500,-165.5 500,-135.5 334,-135.5"/>
<text text-anchor="start" x="341" y="-146.9" font-family="Arial" font-size="14.00" fill="#000000">locale </text>
<text text-anchor="start" x="381.4516" y="-146.9" font-family="Arial" font-size="14.00" fill="#666666">[int]</text>
<polygon fill="none" stroke="#000000" points="334,-105.5 334,-135.5 500,-135.5 500,-105.5 334,-105.5"/>
<text text-anchor="start" x="341" y="-116.9" font-family="Arial" font-size="14.00" fill="#000000">nickname </text>
<text text-anchor="start" x="404.7882" y="-116.9" font-family="Arial" font-size="14.00" fill="#666666">[varchar(255)]</text>
<polygon fill="none" stroke="#000000" points="334,-75.5 334,-105.5 500,-105.5 500,-75.5 334,-75.5"/>
<text text-anchor="start" x="341" y="-86.9" font-family="Arial" font-size="14.00" fill="#000000">created_at </text>
<text text-anchor="start" x="411.028" y="-86.9" font-family="Arial" font-size="14.00" fill="#666666">[datetime(6)]</text>
<polygon fill="none" stroke="#000000" points="334,-45.5 334,-75.5 500,-75.5 500,-45.5 334,-45.5"/>
<text text-anchor="start" x="340.7518" y="-56.9" font-family="Arial" font-size="14.00" fill="#000000">updated_at </text>
<text text-anchor="start" x="414.6844" y="-56.9" font-family="Arial" font-size="14.00" fill="#666666">[datetime(6)]</text>
<polygon fill="none" stroke="#000000" stroke-width="3" points="332.5,-44.5 332.5,-292.5 501.5,-292.5 501.5,-44.5 332.5,-44.5"/>
</g>
<!-- portfolios -->
<g id="node2" class="node">
<title>portfolios</title>
<polygon fill="#efefef" stroke="transparent" points="43,-595.5 43,-630.5 227,-630.5 227,-595.5 43,-595.5"/>
<polygon fill="none" stroke="#000000" points="43,-595.5 43,-630.5 227,-630.5 227,-595.5 43,-595.5"/>
<text text-anchor="start" x="49.8682" y="-608.3" font-family="Arial Bold" font-size="18.00" fill="#000000">portfolios</text>
<text text-anchor="start" x="122.878" y="-608.3" font-family="Arial" font-size="14.00" fill="#000000"> </text>
<text text-anchor="start" x="126.7686" y="-608.3" font-family="Arial" font-size="14.00" fill="#666666">[BASE TABLE]</text>
<polygon fill="none" stroke="#000000" points="43,-565.5 43,-595.5 227,-595.5 227,-565.5 43,-565.5"/>
<text text-anchor="start" x="50" y="-576.9" font-family="Arial" font-size="14.00" fill="#000000">id </text>
<text text-anchor="start" x="64.7798" y="-576.9" font-family="Arial" font-size="14.00" fill="#666666">[bigint]</text>
<polygon fill="none" stroke="#000000" points="43,-535.5 43,-565.5 227,-565.5 227,-535.5 43,-535.5"/>
<text text-anchor="start" x="50" y="-546.9" font-family="Arial" font-size="14.00" fill="#000000">user_id </text>
<text text-anchor="start" x="99.7882" y="-546.9" font-family="Arial" font-size="14.00" fill="#666666">[bigint]</text>
<polygon fill="none" stroke="#000000" points="43,-505.5 43,-535.5 227,-535.5 227,-505.5 43,-505.5"/>
<text text-anchor="start" x="50" y="-516.9" font-family="Arial" font-size="14.00" fill="#000000">name </text>
<text text-anchor="start" x="88.899" y="-516.9" font-family="Arial" font-size="14.00" fill="#666666">[varchar(255)]</text>
<polygon fill="none" stroke="#000000" points="43,-475.5 43,-505.5 227,-505.5 227,-475.5 43,-475.5"/>
<text text-anchor="start" x="50" y="-486.9" font-family="Arial" font-size="14.00" fill="#000000">url </text>
<text text-anchor="start" x="69.4404" y="-486.9" font-family="Arial" font-size="14.00" fill="#666666">[varchar(255)]</text>
<polygon fill="none" stroke="#000000" points="43,-445.5 43,-475.5 227,-475.5 227,-445.5 43,-445.5"/>
<text text-anchor="start" x="50" y="-456.9" font-family="Arial" font-size="14.00" fill="#000000">created_at </text>
<text text-anchor="start" x="120.028" y="-456.9" font-family="Arial" font-size="14.00" fill="#666666">[datetime(6)]</text>
<polygon fill="none" stroke="#000000" points="43,-415.5 43,-445.5 227,-445.5 227,-415.5 43,-415.5"/>
<text text-anchor="start" x="50" y="-426.9" font-family="Arial" font-size="14.00" fill="#000000">updated_at </text>
<text text-anchor="start" x="123.9326" y="-426.9" font-family="Arial" font-size="14.00" fill="#666666">[datetime(6)]</text>
</g>
<!-- portfolios&#45;&gt;users -->
<g id="edge1" class="edge">
<title>portfolios:user_id&#45;&gt;users:id</title>
<path fill="none" stroke="#000000" d="M237.2526,-549.9058C304.2046,-541.5628 252.8753,-447.0378 279,-373 300.2163,-312.8726 270.2393,-240.5 334,-240.5"/>
<polygon fill="#000000" stroke="#000000" points="236.9832,-549.9213 226.7396,-546.0075 231.9916,-550.2107 227,-550.5 227,-550.5 227,-550.5 231.9916,-550.2107 227.2604,-554.9925 236.9832,-549.9213 236.9832,-549.9213"/>
<text text-anchor="start" x="233.945" y="-560.5" font-family="Arial" font-size="10.00" fill="#000000">FOREIGN KEY (user_id) REFERENCES users (id)</text>
</g>
<!-- profiles -->
<g id="node3" class="node">
<title>profiles</title>
<polygon fill="#efefef" stroke="transparent" points="332,-580.5 332,-615.5 501,-615.5 501,-580.5 332,-580.5"/>
<polygon fill="none" stroke="#000000" points="332,-580.5 332,-615.5 501,-615.5 501,-580.5 332,-580.5"/>
<text text-anchor="start" x="338.8724" y="-593.3" font-family="Arial Bold" font-size="18.00" fill="#000000">profiles</text>
<text text-anchor="start" x="396.8738" y="-593.3" font-family="Arial" font-size="14.00" fill="#000000"> </text>
<text text-anchor="start" x="400.7644" y="-593.3" font-family="Arial" font-size="14.00" fill="#666666">[BASE TABLE]</text>
<polygon fill="none" stroke="#000000" points="332,-550.5 332,-580.5 501,-580.5 501,-550.5 332,-550.5"/>
<text text-anchor="start" x="339" y="-561.9" font-family="Arial" font-size="14.00" fill="#000000">id </text>
<text text-anchor="start" x="353.7798" y="-561.9" font-family="Arial" font-size="14.00" fill="#666666">[bigint]</text>
<polygon fill="none" stroke="#000000" points="332,-520.5 332,-550.5 501,-550.5 501,-520.5 332,-520.5"/>
<text text-anchor="start" x="339" y="-531.9" font-family="Arial" font-size="14.00" fill="#000000">user_id </text>
<text text-anchor="start" x="388.7882" y="-531.9" font-family="Arial" font-size="14.00" fill="#666666">[bigint]</text>
<polygon fill="none" stroke="#000000" points="332,-490.5 332,-520.5 501,-520.5 501,-490.5 332,-490.5"/>
<text text-anchor="start" x="339" y="-501.9" font-family="Arial" font-size="14.00" fill="#000000">address </text>
<text text-anchor="start" x="392.6816" y="-501.9" font-family="Arial" font-size="14.00" fill="#666666">[varchar(255)]</text>
<polygon fill="none" stroke="#000000" points="332,-460.5 332,-490.5 501,-490.5 501,-460.5 332,-460.5"/>
<text text-anchor="start" x="339" y="-471.9" font-family="Arial" font-size="14.00" fill="#000000">created_at </text>
<text text-anchor="start" x="409.028" y="-471.9" font-family="Arial" font-size="14.00" fill="#666666">[datetime(6)]</text>
<polygon fill="none" stroke="#000000" points="332,-430.5 332,-460.5 501,-460.5 501,-430.5 332,-430.5"/>
<text text-anchor="start" x="339" y="-441.9" font-family="Arial" font-size="14.00" fill="#000000">updated_at </text>
<text text-anchor="start" x="412.9326" y="-441.9" font-family="Arial" font-size="14.00" fill="#666666">[datetime(6)]</text>
</g>
<!-- profiles&#45;&gt;users -->
<g id="edge2" class="edge">
<title>profiles:user_id&#45;&gt;users:id</title>
<path fill="none" stroke="#000000" d="M511.2673,-534.6124C563.5076,-524.8951 537.7931,-437.7067 501,-388 454.8283,-325.623 380.1717,-399.377 334,-337 308.4833,-302.5275 291.1111,-240.5 334,-240.5"/>
<polygon fill="#000000" stroke="#000000" points="510.9628,-534.6386 500.6124,-531.0167 505.9814,-535.0693 501,-535.5 501,-535.5 501,-535.5 505.9814,-535.0693 501.3876,-539.9833 510.9628,-534.6386 510.9628,-534.6386"/>
<text text-anchor="start" x="387.945" y="-519.5" font-family="Arial" font-size="10.00" fill="#000000">FOREIGN KEY (user_id) REFERENCES users (id)</text>
</g>
<!-- user_books -->
<g id="node4" class="node">
<title>user_books</title>
<polygon fill="#efefef" stroke="transparent" points="605,-580.5 605,-615.5 809,-615.5 809,-580.5 605,-580.5"/>
<polygon fill="none" stroke="#000000" points="605,-580.5 605,-615.5 809,-615.5 809,-580.5 605,-580.5"/>
<text text-anchor="start" x="611.8584" y="-593.3" font-family="Arial Bold" font-size="18.00" fill="#000000">user_books</text>
<text text-anchor="start" x="704.8878" y="-593.3" font-family="Arial" font-size="14.00" fill="#000000"> </text>
<text text-anchor="start" x="708.7784" y="-593.3" font-family="Arial" font-size="14.00" fill="#666666">[BASE TABLE]</text>
<polygon fill="none" stroke="#000000" points="605,-550.5 605,-580.5 809,-580.5 809,-550.5 605,-550.5"/>
<text text-anchor="start" x="612" y="-561.9" font-family="Arial" font-size="14.00" fill="#000000">id </text>
<text text-anchor="start" x="626.7798" y="-561.9" font-family="Arial" font-size="14.00" fill="#666666">[bigint]</text>
<polygon fill="none" stroke="#000000" points="605,-520.5 605,-550.5 809,-550.5 809,-520.5 605,-520.5"/>
<text text-anchor="start" x="612" y="-531.9" font-family="Arial" font-size="14.00" fill="#000000">user_id </text>
<text text-anchor="start" x="661.7882" y="-531.9" font-family="Arial" font-size="14.00" fill="#666666">[bigint]</text>
<polygon fill="none" stroke="#000000" points="605,-490.5 605,-520.5 809,-520.5 809,-490.5 605,-490.5"/>
<text text-anchor="start" x="612" y="-501.9" font-family="Arial" font-size="14.00" fill="#000000">book_id </text>
<text text-anchor="start" x="664.9102" y="-501.9" font-family="Arial" font-size="14.00" fill="#666666">[bigint]</text>
<polygon fill="none" stroke="#000000" points="605,-460.5 605,-490.5 809,-490.5 809,-460.5 605,-460.5"/>
<text text-anchor="start" x="612" y="-471.9" font-family="Arial" font-size="14.00" fill="#000000">created_at </text>
<text text-anchor="start" x="682.028" y="-471.9" font-family="Arial" font-size="14.00" fill="#666666">[datetime(6)]</text>
<polygon fill="none" stroke="#000000" points="605,-430.5 605,-460.5 809,-460.5 809,-430.5 605,-430.5"/>
<text text-anchor="start" x="612" y="-441.9" font-family="Arial" font-size="14.00" fill="#000000">updated_at </text>
<text text-anchor="start" x="685.9326" y="-441.9" font-family="Arial" font-size="14.00" fill="#666666">[datetime(6)]</text>
</g>
<!-- user_books&#45;&gt;users -->
<g id="edge3" class="edge">
<title>user_books:user_id&#45;&gt;users:id</title>
<path fill="none" stroke="#000000" d="M594.7651,-534.861C533.8233,-526.6467 577.4003,-440.8746 553,-373 531.5435,-313.3143 563.4253,-240.5 500,-240.5"/>
<polygon fill="#000000" stroke="#000000" points="595.0194,-534.8768 604.7196,-539.9913 600.0097,-535.1884 605,-535.5 605,-535.5 605,-535.5 600.0097,-535.1884 605.2804,-531.0087 595.0194,-534.8768 595.0194,-534.8768"/>
<text text-anchor="start" x="611.945" y="-545.5" font-family="Arial" font-size="10.00" fill="#000000">FOREIGN KEY (user_id) REFERENCES users (id)</text>
</g>
</g>
</svg>
