<?xml version="1.0" encoding="UTF-8" standalone="no"?>
<!DOCTYPE svg PUBLIC "-//W3C//DTD SVG 1.1//EN"
 "http://www.w3.org/Graphics/SVG/1.1/DTD/svg11.dtd">
<!-- Generated by graphviz version 2.40.1 (20161225.0304)
 -->
<!-- Title: users Pages: 1 -->
<svg width="495pt" height="622pt"
 viewBox="0.00 0.00 495.00 622.00" xmlns="http://www.w3.org/2000/svg" xmlns:xlink="http://www.w3.org/1999/xlink">
<g id="graph0" class="graph" transform="scale(1 1) rotate(0) translate(4 618)">
<title>users</title>
<polygon fill="#ffffff" stroke="transparent" points="-4,4 -4,-618 491,-618 491,4 -4,4"/>
<!-- users -->
<g id="node1" class="node">
<title>users</title>
<polygon fill="#efefef" stroke="transparent" points="62,-225.5 62,-260.5 228,-260.5 228,-225.5 62,-225.5"/>
<polygon fill="none" stroke="#000000" points="62,-225.5 62,-260.5 228,-260.5 228,-225.5 62,-225.5"/>
<text text-anchor="start" x="74.3708" y="-238.3" font-family="Arial Bold" font-size="18.00" fill="#000000">users</text>
<text text-anchor="start" x="118.3754" y="-238.3" font-family="Arial" font-size="14.00" fill="#000000"> </text>
<text text-anchor="start" x="122.266" y="-238.3" font-family="Arial" font-size="14.00" fill="#666666">[BASE TABLE]</text>
<polygon fill="none" stroke="#000000" points="62,-195.5 62,-225.5 228,-225.5 228,-195.5 62,-195.5"/>
<text text-anchor="start" x="69" y="-206.9" font-family="Arial" font-size="14.00" fill="#000000">id </text>
<text text-anchor="start" x="83.7798" y="-206.9" font-family="Arial" font-size="14.00" fill="#666666">[bigint]</text>
<polygon fill="none" stroke="#000000" points="62,-165.5 62,-195.5 228,-195.5 228,-165.5 62,-165.5"/>
<text text-anchor="start" x="69" y="-176.9" font-family="Arial" font-size="14.00" fill="#000000">name </text>
<text text-anchor="start" x="107.899" y="-176.9" font-family="Arial" font-size="14.00" fill="#666666">[varchar(255)]</text>
<polygon fill="none" stroke="#000000" points="62,-135.5 62,-165.5 228,-165.5 228,-135.5 62,-135.5"/>
<text text-anchor="start" x="69" y="-146.9" font-family="Arial" font-size="14.00" fill="#000000">email </text>
<text text-anchor="start" x="106.3296" y="-146.9" font-family="Arial" font-size="14.00" fill="#666666">[varchar(255)]</text>
<polygon fill="none" stroke="#000000" points="62,-105.5 62,-135.5 228,-135.5 228,-105.5 62,-105.5"/>
<text text-anchor="start" x="69" y="-116.9" font-family="Arial" font-size="14.00" fill="#000000">locale </text>
<text text-anchor="start" x="109.4516" y="-116.9" font-family="Arial" font-size="14.00" fill="#666666">[int]</text>
<polygon fill="none" stroke="#000000" points="62,-75.5 62,-105.5 228,-105.5 228,-75.5 62,-75.5"/>
<text text-anchor="start" x="69" y="-86.9" font-family="Arial" font-size="14.00" fill="#000000">created_at </text>
<text text-anchor="start" x="139.028" y="-86.9" font-family="Arial" font-size="14.00" fill="#666666">[datetime(6)]</text>
<polygon fill="none" stroke="#000000" points="62,-45.5 62,-75.5 228,-75.5 228,-45.5 62,-45.5"/>
<text text-anchor="start" x="68.7518" y="-56.9" font-family="Arial" font-size="14.00" fill="#000000">updated_at </text>
<text text-anchor="start" x="142.6844" y="-56.9" font-family="Arial" font-size="14.00" fill="#666666">[datetime(6)]</text>
<polygon fill="none" stroke="#000000" stroke-width="3" points="60.5,-44.5 60.5,-262.5 229.5,-262.5 229.5,-44.5 60.5,-44.5"/>
</g>
<!-- user_books -->
<g id="node2" class="node">
<title>user_books</title>
<polygon fill="#efefef" stroke="transparent" points="43,-535.5 43,-570.5 247,-570.5 247,-535.5 43,-535.5"/>
<polygon fill="none" stroke="#000000" points="43,-535.5 43,-570.5 247,-570.5 247,-535.5 43,-535.5"/>
<text text-anchor="start" x="49.8584" y="-548.3" font-family="Arial Bold" font-size="18.00" fill="#000000">user_books</text>
<text text-anchor="start" x="142.8878" y="-548.3" font-family="Arial" font-size="14.00" fill="#000000"> </text>
<text text-anchor="start" x="146.7784" y="-548.3" font-family="Arial" font-size="14.00" fill="#666666">[BASE TABLE]</text>
<polygon fill="none" stroke="#000000" points="43,-505.5 43,-535.5 247,-535.5 247,-505.5 43,-505.5"/>
<text text-anchor="start" x="50" y="-516.9" font-family="Arial" font-size="14.00" fill="#000000">id </text>
<text text-anchor="start" x="64.7798" y="-516.9" font-family="Arial" font-size="14.00" fill="#666666">[bigint]</text>
<polygon fill="none" stroke="#000000" points="43,-475.5 43,-505.5 247,-505.5 247,-475.5 43,-475.5"/>
<text text-anchor="start" x="50" y="-486.9" font-family="Arial" font-size="14.00" fill="#000000">user_id </text>
<text text-anchor="start" x="99.7882" y="-486.9" font-family="Arial" font-size="14.00" fill="#666666">[bigint]</text>
<polygon fill="none" stroke="#000000" points="43,-445.5 43,-475.5 247,-475.5 247,-445.5 43,-445.5"/>
<text text-anchor="start" x="50" y="-456.9" font-family="Arial" font-size="14.00" fill="#000000">book_id </text>
<text text-anchor="start" x="102.9102" y="-456.9" font-family="Arial" font-size="14.00" fill="#666666">[bigint]</text>
<polygon fill="none" stroke="#000000" points="43,-415.5 43,-445.5 247,-445.5 247,-415.5 43,-415.5"/>
<text text-anchor="start" x="50" y="-426.9" font-family="Arial" font-size="14.00" fill="#000000">created_at </text>
<text text-anchor="start" x="120.028" y="-426.9" font-family="Arial" font-size="14.00" fill="#666666">[datetime(6)]</text>
<polygon fill="none" stroke="#000000" points="43,-385.5 43,-415.5 247,-415.5 247,-385.5 43,-385.5"/>
<text text-anchor="start" x="50" y="-396.9" font-family="Arial" font-size="14.00" fill="#000000">updated_at </text>
<text text-anchor="start" x="123.9326" y="-396.9" font-family="Arial" font-size="14.00" fill="#666666">[datetime(6)]</text>
</g>
<!-- user_books&#45;&gt;users -->
<g id="edge1" class="edge">
<title>user_books:user_id&#45;&gt;users:id</title>
<path fill="none" stroke="#000000" d="M256.821,-487.9069C307.0738,-459.6795 286.8329,-210.5 228,-210.5"/>
<polygon fill="#000000" stroke="#000000" points="256.6687,-487.9471 245.8512,-486.1491 251.8343,-489.2235 247,-490.5 247,-490.5 247,-490.5 251.8343,-489.2235 248.1488,-494.8509 256.6687,-487.9471 256.6687,-487.9471"/>
<text text-anchor="start" x="253.945" y="-500.5" font-family="Arial" font-size="10.00" fill="#000000">FOREIGN KEY (user_id) REFERENCES users (id)</text>
</g>
</g>
</svg>
